<svg xmlns="http://www.w3.org/2000/svg" xmlns:xlink="http://www.w3.org/1999/xlink" width="70.684" height="52.215" viewBox="0 0 70.684 52.215"><defs><style>.a{fill:url(#a);}.b{fill:url(#b);}</style><radialGradient id="a" cx="0.47" cy="0.378" r="0.904" gradientTransform="matrix(0.366, -0.931, 0.725, 0.285, 0.163, 0.729)" gradientUnits="objectBoundingBox"><stop offset="0" stop-color="#c9b06d"/><stop offset="1" stop-color="#b56d03"/></radialGradient><radialGradient id="b" cx="0.747" cy="0.226" r="0.671" gradientTransform="matrix(0.999, 0.047, -0.062, 1.318, 0.015, -0.107)" gradientUnits="objectBoundingBox"><stop offset="0" stop-color="#f0e473"/><stop offset="0.247" stop-color="#ecdf6e"/><stop offset="0.778" stop-color="#9e880f"/><stop offset="1" stop-color="#9a840b"/></radialGradient></defs><g transform="translate(0)"><path class="a" d="M4614.215,6977.751c-1.326.234-1.06-.917-2.987-2.39-2.219-1.711-19.543-8.067-31.656,8.163-2.673,3.9-4.469,9.611-5.176,14.534a97.015,97.015,0,0,0-1.077,14.259l1.077,1.48,5.176,1.037a19.559,19.559,0,0,0,9.743,7.553c4.722,1.734,13.907,3.172,20.586,2.222,3.042-.43,1.423-1.091,3.555-2.962,10.052-3.522,29.724-1.693,30.541-13.447.088-1.175-1.512-5.51-4.742-8.136-2.523-1.417-5.786-2.715-6.538-4.165a13.518,13.518,0,0,0-3.57-4.465,53.93,53.93,0,0,0-1.029-7.257c-.741-3.109-2.813-5.3-6.665-6.427S4617.6,6977.153,4614.215,6977.751Z" transform="translate(-4573.316 -6972.697)"/><path class="b" d="M4612.248,6978.851c-1.792.8-3.583-3.584-14.136-2.986s-14.932,7.765-17.719,13.937-2.713,16.937-2.713,16.937v4.043h4.941s1.156,7.89,6.532,7.89,11.15,1.792,12.543,1.792,4.947.753,6.938-.84a8.419,8.419,0,0,1,5.008-1.948c1,0,4.978-.2,6.172-1.394s14.421-1.821,16.811-4.211,4.06-2.733,2.666-6.517-8.726-8.187-11.513-12.566-.6-9.756-4.579-12.344S4614.04,6978.055,4612.248,6978.851Z" transform="translate(-4572.345 -6972.005)"/><path d="M-22.044-2.483h-4.131L-27.039,0h-1.926l4.028-10.664h1.663L-19.239,0h-1.934Zm-3.611-1.494h3.091L-24.11-8.4Zm15.218.505A3.85,3.85,0,0,1-11.7-.809a4.3,4.3,0,0,1-2.922.956,4.158,4.158,0,0,1-2.245-.6,3.966,3.966,0,0,1-1.5-1.718,6.2,6.2,0,0,1-.549-2.585v-1a6.243,6.243,0,0,1,.535-2.659,4.029,4.029,0,0,1,1.534-1.772,4.28,4.28,0,0,1,2.311-.623,4.122,4.122,0,0,1,2.842.956,3.994,3.994,0,0,1,1.252,2.706h-1.846a2.634,2.634,0,0,0-.67-1.659,2.215,2.215,0,0,0-1.578-.509,2.164,2.164,0,0,0-1.857.883,4.415,4.415,0,0,0-.663,2.592V-4.9a4.684,4.684,0,0,0,.619,2.639,2.054,2.054,0,0,0,1.813.909,2.4,2.4,0,0,0,1.641-.491,2.559,2.559,0,0,0,.7-1.633ZM-7.216,0H-9.062V-10.664h1.846ZM.245-2.747A1.288,1.288,0,0,0-.249-3.831,5.948,5.948,0,0,0-2.032-4.6a8.612,8.612,0,0,1-2.051-.864A2.737,2.737,0,0,1-5.541-7.852,2.6,2.6,0,0,1-4.49-9.976a4.254,4.254,0,0,1,2.728-.835,4.608,4.608,0,0,1,1.985.41,3.258,3.258,0,0,1,1.37,1.168,3,3,0,0,1,.5,1.681H.245A1.671,1.671,0,0,0-.278-8.859a2.161,2.161,0,0,0-1.5-.472,2.257,2.257,0,0,0-1.41.388,1.293,1.293,0,0,0-.5,1.084,1.169,1.169,0,0,0,.542.978,6.244,6.244,0,0,0,1.787.762,8.22,8.22,0,0,1,2,.842A3.18,3.18,0,0,1,1.747-4.193,2.823,2.823,0,0,1,2.1-2.761,2.538,2.538,0,0,1,1.077-.641,4.432,4.432,0,0,1-1.7.146,5.209,5.209,0,0,1-3.823-.282,3.574,3.574,0,0,1-5.332-1.465,2.948,2.948,0,0,1-5.87-3.223h1.853a1.725,1.725,0,0,0,.6,1.406,2.63,2.63,0,0,0,1.721.5A2.285,2.285,0,0,0-.242-1.71,1.264,1.264,0,0,0,.245-2.747ZM5.187-3.955V0H3.334V-10.664h4.08a4.125,4.125,0,0,1,2.838.931A3.131,3.131,0,0,1,11.3-7.269a3.027,3.027,0,0,1-1.029,2.442,4.325,4.325,0,0,1-2.882.873Zm0-1.494H7.414a2.193,2.193,0,0,0,1.509-.465,1.709,1.709,0,0,0,.52-1.344,1.844,1.844,0,0,0-.527-1.381,2.033,2.033,0,0,0-1.45-.531H5.187ZM17.2-2.483H13.066L12.2,0H10.276L14.3-10.664h1.663L20,0H18.069ZM13.586-3.977h3.091L15.132-8.4ZM24.739-4.1H22.674V0H20.821V-10.664h3.75a4.362,4.362,0,0,1,2.849.828,2.93,2.93,0,0,1,1,2.4,3,3,0,0,1-.516,1.792,3.286,3.286,0,0,1-1.439,1.111L28.863-.1V0H26.878ZM22.674-5.6h1.9a2.118,2.118,0,0,0,1.465-.472,1.647,1.647,0,0,0,.527-1.293,1.754,1.754,0,0,0-.487-1.326A2.069,2.069,0,0,0,24.63-9.17H22.674Z" transform="translate(32.684 31.303)"/></g></svg>