<svg xmlns="http://www.w3.org/2000/svg" width="106.559" height="87.908" viewBox="0 0 106.559 87.908"><defs><style>.a{fill:#2a166f;}.b{fill:red;}</style></defs><g transform="translate(0)"><path class="a" d="M58.7,23.834H48.578V11.783l-4.285,4.606L40.33,11.783V23.834H20.567L19.6,19.817h-7.82l-1.232,4.017H0L8.73,0H22.87l7.016,19.817V0h9.962l4.445,5.034L48.578,0H58.7V23.834ZM15.639,7.659l-1.982,6.695h4.017Z" transform="translate(0.572 45.738)"/><path class="a" d="M10.437,23.435H0V.095H7.07V0h8.87l-.153.1.153,0a7.782,7.782,0,0,1,3.028,14.949,7.774,7.774,0,0,1-8.531-1.669v10.06Zm.949-18.881a3.131,3.131,0,0,0-.854.118V9.94a3.134,3.134,0,0,0,.854.118,3.027,3.027,0,0,0,2.08-.806,2.628,2.628,0,0,0,0-3.891A3.027,3.027,0,0,0,11.386,4.554Z" transform="translate(82.839 46.054)"/><path class="a" d="M6506.7,8241.94a1.9,1.9,0,0,1,.778-1.026c.531-.247.92-.282.672-.777a5.7,5.7,0,0,0-1.061-1.2.979.979,0,0,1,.389-1.167,16.687,16.687,0,0,0,1.486-1.026c.106-.069.389-.142,1.025,0a2.517,2.517,0,0,0,1.769,0c.424-.282.884-.53.955-.989a1.257,1.257,0,0,1,.671-.99c.46-.318.637-.389.919-.213a2.4,2.4,0,0,0,.884.5c.389.071.814-.637.884-.742s.284-.426.779,0,.813.389.99.247.071-.778,1.1-.46a3.324,3.324,0,0,1,1.309.673,3.608,3.608,0,0,1,.778.46c.141.142.884.247,1.025.53a.958.958,0,0,0,1.1.211c.283-.177.389-.6.707-.6a1.681,1.681,0,0,0,.92-.319c.46-.248.46-.955.46-.955a15.469,15.469,0,0,1,2.122-.318c.637,0,2.936-.07,3.183,0s.991-.106.92-.53-.212-.354-.212-.813a3.091,3.091,0,0,1,1.8-2.477c1.379-.6-1.379-.849-1.592-.777s-1.627.176-1.627.176a9.757,9.757,0,0,0,0-1.449c-.071-.282-.708-.248-.708-.565a.662.662,0,0,1,1.1-.425,1.952,1.952,0,0,1,.743,1.167,2.768,2.768,0,0,0,1.344.39c.424-.036.672-.53.424-.778s-.778-.39-.424-.778.849-.85,1.1-.813.425.5.248,1.062-.106,1.2.354,1.309,1.061-.708,1.2-.92,1.2-1.309,1.1-1.45a1.621,1.621,0,0,0-1.1-.177c-.39.07-.248-.391-.248-.99s.353-1.98-.283-2.265a1.381,1.381,0,0,0-1.627.354c-.142.354-.283,1.272-.743,1.414s-.99-.564-.849-1.061a26.191,26.191,0,0,0,.177-2.759c.036-.354-.459-.53-.813-.354a2.475,2.475,0,0,1-2.087,0c-.778-.425-2.193.105-3.006.354s-1.309-.07-1.415-.778.92-1.874,1.061-2.263a2.187,2.187,0,0,0-.849-2.193c-.955-.85-2.405-2.44-2.334-3.112s.636-1.45.282-1.663-.99.037-1.026-.247a22.284,22.284,0,0,0,.213-2.687,2.642,2.642,0,0,1-.566-1.45,1.453,1.453,0,0,0-1.132-1.38,1.683,1.683,0,0,1-1.521-1.273c-.389-1.06-.248-.884-1.627-.884-.573,0-1.647.314-2.536.412a11.157,11.157,0,0,1-2.419,0c-.637-.07-1.835-1.085-2.473-1.3s-1.1.141-1.733,0c-.288-.064-1.339-.513-2.313-.708-1.061-.213-1.915-.183-2.3-.318a10.836,10.836,0,0,0-2.352-.813c-.884-.106-1.238-.637-1.556-.637a1.279,1.279,0,0,0-1.238.354c-.389.494-.778,1.132-1.273,1.1s-.743-.318-1.025-.318-.318.318-.637.318a1.2,1.2,0,0,1-.884-.53.859.859,0,0,0-1.131,0c-.177.247-.212.6-.6.53s-1.131,0-1.415-.53-.92-.247-1.1,0a3.638,3.638,0,0,1-.779.849c-.211.106-.141.212-.424.46s-2.4,1.662-2.935,2.016-.566.39-.884.46-.5.105-.424.5a2.03,2.03,0,0,1-.142,1.485c-.318.5-.6.425-.6.743s-.105.389,0,.707a1.741,1.741,0,0,1-.778,1.734c-.778.53-1.238,0-1.451,0s-.318.282-.211.812.318.107,0,.6-.318.213-.354.955a6.351,6.351,0,0,1-.283,1.486s.284,1.131-1.1,1.167-1.875.5-1.733,1.167a1.592,1.592,0,0,0,.778,1.167c.318.178.424.708,0,1.168s-.354.92-.531,1.45.354,1.661,0,2.121-.531.5-.566.884a8.406,8.406,0,0,1-.141,1.841,2.831,2.831,0,0,1-.425.813c-.177.248-.142.885.212.99s.318-.142.213.5a13.256,13.256,0,0,1-1.486,3.184c-.318.354-.424,1.485,0,1.768s1.7.248,1.945-.176.531-.178,1.061-.213.637-.354.673-.814.99.638,1.733,1.027,1.025.883.955,1.131a.751.751,0,0,1-.743.46c-.318-.035-.459.6-.211.849a2.444,2.444,0,0,1,.742,1.239c.036.46.319.389.778.6s1.38.92,1.663.989,1.026.248,1.2.708-.035,1.1.283,1.2a4.457,4.457,0,0,1,1.167.673c.105.142.459-.213.6-.673s.778-.565,1.061-.494,1.344,1.45,1.592,1.556,1.1-.6,1.238-.849-.036-.247,1.025,0a4.66,4.66,0,0,0,1.839,0c.177.035.708.566,1.061.673a2.336,2.336,0,0,0,1.557-.213,2.854,2.854,0,0,1,1.8,0c.106.142.813.213.813.213s-.071.813.425.99a25.231,25.231,0,0,0,3.006.282c.284.035,2.017.213,2.158,0S6506.7,8241.94,6506.7,8241.94Z" transform="translate(-6447.322 -8199.302)"/><path class="b" d="M5.691,18.4c-.743-.389-1.7-1.485-1.733-1.026s-.141.778-.672.813a2.142,2.142,0,0,1-.412-.018c-.283-.034-.475-.068-.649.231-.247.424-1.521.46-1.945.177s-.318-1.415,0-1.768a13.227,13.227,0,0,0,1.485-3.183c.106-.637.142-.389-.212-.5s-.389-.743-.212-.99a2.807,2.807,0,0,0,.424-.813,8.384,8.384,0,0,0,.142-1.839c.035-.389.212-.424.566-.884s-.177-1.592,0-2.122.106-.99.531-1.45.318-.99,0-1.167A1.6,1.6,0,0,1,2.225,2.7c-.141-.672.354-1.132,1.733-1.167S5.055.363,5.055.363,5.1.221,5.158,0a2.877,2.877,0,0,1,.514.405,1.861,1.861,0,0,1,.585.937,7.215,7.215,0,0,0,.507,1.483c.117.039.156-.859.625-1.483s.625.117,1.21.585.781,1.093,1.171,1.21.507-.468.82-.78.351.312.585.468.273-.039.625-.468a1.439,1.439,0,0,1,1.288-.43c.234.078.468,1.444.547,1.874s.7.39.859,1.015a9.712,9.712,0,0,0,1.717,3.123,1.553,1.553,0,0,0,1.21.312c.547,0,1.8,1.64,2.225,1.952a3,3,0,0,1,.9,1.522,4.02,4.02,0,0,1-.9,2.693c-.7,1.015-2.771.9-3.24,1.288a2.386,2.386,0,0,0-.625,2.186c.078,1.171-1.21.937-2.147.859s-1.6-.937-1.835-.859a17.554,17.554,0,0,1-1.718.664c-.312.039-.742-.468-.742-.468a1.833,1.833,0,0,1-.742.468,3.412,3.412,0,0,0-1.21.2A4.268,4.268,0,0,1,6.455,19,2.38,2.38,0,0,0,5.691,18.4Z" transform="translate(28.191 13.379)"/><path d="M-265.823-22.656l-.435-1h-2.171l-.429,1h-.594l1.829-4.118h.588l1.824,4.118Zm-2.382-1.512h1.729l-.871-2Zm5.959-1.747a2.369,2.369,0,0,0-.6-.274,2.017,2.017,0,0,0-.568-.091,1.048,1.048,0,0,0-.574.138.43.43,0,0,0-.215.379.5.5,0,0,0,.129.356.916.916,0,0,0,.318.218q.188.079.524.185a5.913,5.913,0,0,1,.677.247,1.171,1.171,0,0,1,.441.35.968.968,0,0,1,.182.615,1.027,1.027,0,0,1-.191.618,1.224,1.224,0,0,1-.535.409,2.034,2.034,0,0,1-.791.144,2.3,2.3,0,0,1-.882-.176,2.393,2.393,0,0,1-.741-.471l.253-.488a2.123,2.123,0,0,0,.662.444,1.825,1.825,0,0,0,.715.156,1.143,1.143,0,0,0,.65-.162.5.5,0,0,0,.238-.438.511.511,0,0,0-.129-.359.913.913,0,0,0-.326-.224,5.556,5.556,0,0,0-.532-.182,5.444,5.444,0,0,1-.671-.241,1.158,1.158,0,0,1-.438-.347.956.956,0,0,1-.179-.606.97.97,0,0,1,.182-.582,1.151,1.151,0,0,1,.512-.388,2,2,0,0,1,.765-.135,2.471,2.471,0,0,1,.727.109,2.434,2.434,0,0,1,.632.291Zm3.624,0a2.369,2.369,0,0,0-.6-.274,2.017,2.017,0,0,0-.568-.091,1.048,1.048,0,0,0-.574.138.43.43,0,0,0-.215.379.5.5,0,0,0,.129.356.916.916,0,0,0,.318.218q.188.079.524.185a5.91,5.91,0,0,1,.676.247,1.171,1.171,0,0,1,.441.35.968.968,0,0,1,.182.615,1.027,1.027,0,0,1-.191.618,1.224,1.224,0,0,1-.535.409,2.034,2.034,0,0,1-.791.144,2.3,2.3,0,0,1-.882-.176,2.393,2.393,0,0,1-.741-.471l.253-.488a2.124,2.124,0,0,0,.662.444,1.825,1.825,0,0,0,.715.156,1.143,1.143,0,0,0,.65-.162.5.5,0,0,0,.238-.438.511.511,0,0,0-.129-.359.913.913,0,0,0-.326-.224,5.553,5.553,0,0,0-.532-.182,5.442,5.442,0,0,1-.671-.241,1.158,1.158,0,0,1-.438-.347.956.956,0,0,1-.179-.606.97.97,0,0,1,.182-.582,1.151,1.151,0,0,1,.512-.388,2,2,0,0,1,.765-.135,2.471,2.471,0,0,1,.727.109,2.434,2.434,0,0,1,.632.291Zm3.018-.894a2.207,2.207,0,0,1,1.091.276,2.077,2.077,0,0,1,.785.756,2.011,2.011,0,0,1,.288,1.056,2.041,2.041,0,0,1-.288,1.062,2.086,2.086,0,0,1-.785.765,2.189,2.189,0,0,1-1.091.279,2.189,2.189,0,0,1-1.091-.279,2.085,2.085,0,0,1-.785-.765,2.042,2.042,0,0,1-.288-1.062,2.011,2.011,0,0,1,.288-1.056,2.084,2.084,0,0,1,.782-.756A2.2,2.2,0,0,1-255.6-26.809Zm.006.506a1.57,1.57,0,0,0-.8.212,1.61,1.61,0,0,0-.585.574,1.517,1.517,0,0,0-.218.8,1.532,1.532,0,0,0,.218.8,1.625,1.625,0,0,0,.585.579,1.553,1.553,0,0,0,.8.215,1.522,1.522,0,0,0,.791-.215,1.617,1.617,0,0,0,.576-.579,1.548,1.548,0,0,0,.215-.8,1.533,1.533,0,0,0-.215-.8,1.6,1.6,0,0,0-.576-.574A1.538,1.538,0,0,0-255.6-26.3Zm5.824.518a1.7,1.7,0,0,0-.547-.385,1.567,1.567,0,0,0-.641-.138,1.565,1.565,0,0,0-.8.212,1.57,1.57,0,0,0-.577.574,1.549,1.549,0,0,0-.212.8,1.554,1.554,0,0,0,.212.794,1.563,1.563,0,0,0,.577.576,1.565,1.565,0,0,0,.8.212,1.612,1.612,0,0,0,.635-.132,1.836,1.836,0,0,0,.553-.362l.341.371a2.3,2.3,0,0,1-.724.479,2.133,2.133,0,0,1-.835.174,2.129,2.129,0,0,1-1.077-.279,2.067,2.067,0,0,1-.771-.762,2.069,2.069,0,0,1-.282-1.065,2.026,2.026,0,0,1,.285-1.056,2.062,2.062,0,0,1,.779-.756,2.191,2.191,0,0,1,1.088-.276,2.215,2.215,0,0,1,.832.162,2.058,2.058,0,0,1,.7.456Zm1.129-.988h.565v4.118h-.565Zm4.8,4.118-.435-1h-2.171l-.429,1h-.594l1.829-4.118h.588l1.824,4.118Zm-2.382-1.512h1.729l-.871-2Zm5.324,1.818a.6.6,0,0,1,.356.162.417.417,0,0,1,.121.3.444.444,0,0,1-.182.374.748.748,0,0,1-.465.138,1.267,1.267,0,0,1-.541-.124l.118-.335a.954.954,0,0,0,.359.076.328.328,0,0,0,.2-.056.159.159,0,0,0,.074-.126.147.147,0,0,0-.079-.126.413.413,0,0,0-.221-.05h-.188l.159-.506a2.106,2.106,0,0,1-.971-.341,2.065,2.065,0,0,1-.685-.75,2.073,2.073,0,0,1-.25-1,2.026,2.026,0,0,1,.285-1.056,2.061,2.061,0,0,1,.779-.756,2.191,2.191,0,0,1,1.088-.276,2.215,2.215,0,0,1,.832.162,2.057,2.057,0,0,1,.7.456l-.335.406a1.7,1.7,0,0,0-.547-.385,1.566,1.566,0,0,0-.641-.138,1.565,1.565,0,0,0-.8.212,1.571,1.571,0,0,0-.577.574,1.549,1.549,0,0,0-.212.8,1.554,1.554,0,0,0,.212.794,1.564,1.564,0,0,0,.577.576,1.565,1.565,0,0,0,.8.212,1.612,1.612,0,0,0,.635-.132,1.836,1.836,0,0,0,.553-.362l.341.371a2.43,2.43,0,0,1-.65.447,2.121,2.121,0,0,1-.75.2Zm5.318-.306-.435-1h-2.171l-.429,1h-.594l1.829-4.118h.588l1.824,4.118Zm-2.382-1.512h1.729l-.871-2Zm1.777-3.688a1.036,1.036,0,0,1-.115.515.386.386,0,0,1-.362.2.579.579,0,0,1-.232-.047,1.865,1.865,0,0,1-.256-.141q-.106-.065-.168-.094a.269.269,0,0,0-.115-.029q-.188,0-.188.288h-.382a1.036,1.036,0,0,1,.115-.515.386.386,0,0,1,.362-.2.569.569,0,0,1,.226.044,2.383,2.383,0,0,1,.262.138q.106.065.168.094a.269.269,0,0,0,.115.029q.188,0,.188-.282Zm3.518,1.047a2.207,2.207,0,0,1,1.091.276,2.077,2.077,0,0,1,.785.756,2.011,2.011,0,0,1,.288,1.056,2.041,2.041,0,0,1-.288,1.062,2.086,2.086,0,0,1-.785.765,2.189,2.189,0,0,1-1.091.279,2.189,2.189,0,0,1-1.091-.279,2.086,2.086,0,0,1-.785-.765,2.041,2.041,0,0,1-.288-1.062,2.011,2.011,0,0,1,.288-1.056,2.084,2.084,0,0,1,.782-.756A2.2,2.2,0,0,1-232.675-26.809Zm.006.506a1.57,1.57,0,0,0-.8.212,1.609,1.609,0,0,0-.585.574,1.517,1.517,0,0,0-.218.8,1.532,1.532,0,0,0,.218.8,1.625,1.625,0,0,0,.585.579,1.553,1.553,0,0,0,.8.215,1.522,1.522,0,0,0,.791-.215,1.616,1.616,0,0,0,.577-.579,1.548,1.548,0,0,0,.215-.8,1.533,1.533,0,0,0-.215-.8,1.6,1.6,0,0,0-.577-.574A1.538,1.538,0,0,0-232.669-26.3Zm6.188-.471a2.209,2.209,0,0,1,1.085.268,1.969,1.969,0,0,1,.762.738,2.04,2.04,0,0,1,.276,1.053,2.023,2.023,0,0,1-.279,1.053,1.985,1.985,0,0,1-.768.738,2.238,2.238,0,0,1-1.094.268h-1.659v-4.118Zm.012,3.606a1.543,1.543,0,0,0,.779-.2,1.468,1.468,0,0,0,.553-.553,1.553,1.553,0,0,0,.2-.788,1.547,1.547,0,0,0-.206-.794,1.5,1.5,0,0,0-.562-.556,1.569,1.569,0,0,0-.791-.2h-1.1v3.094Zm4.588-3.641a2.207,2.207,0,0,1,1.091.276,2.077,2.077,0,0,1,.785.756,2.011,2.011,0,0,1,.288,1.056A2.041,2.041,0,0,1-220-23.659a2.086,2.086,0,0,1-.785.765,2.189,2.189,0,0,1-1.091.279,2.189,2.189,0,0,1-1.091-.279,2.086,2.086,0,0,1-.785-.765,2.041,2.041,0,0,1-.288-1.062,2.011,2.011,0,0,1,.288-1.056,2.083,2.083,0,0,1,.782-.756A2.2,2.2,0,0,1-221.88-26.809Zm.006.506a1.57,1.57,0,0,0-.8.212,1.609,1.609,0,0,0-.585.574,1.517,1.517,0,0,0-.218.8,1.532,1.532,0,0,0,.218.8,1.625,1.625,0,0,0,.585.579,1.553,1.553,0,0,0,.8.215,1.522,1.522,0,0,0,.791-.215,1.617,1.617,0,0,0,.576-.579,1.548,1.548,0,0,0,.215-.8,1.533,1.533,0,0,0-.215-.8,1.6,1.6,0,0,0-.576-.574A1.538,1.538,0,0,0-221.874-26.3Zm5.377.388a2.369,2.369,0,0,0-.6-.274,2.017,2.017,0,0,0-.568-.091,1.048,1.048,0,0,0-.574.138.43.43,0,0,0-.215.379.5.5,0,0,0,.129.356.916.916,0,0,0,.318.218q.188.079.524.185a5.909,5.909,0,0,1,.676.247,1.171,1.171,0,0,1,.441.35.968.968,0,0,1,.182.615,1.027,1.027,0,0,1-.191.618,1.225,1.225,0,0,1-.535.409,2.034,2.034,0,0,1-.791.144,2.3,2.3,0,0,1-.882-.176,2.393,2.393,0,0,1-.741-.471l.253-.488a2.124,2.124,0,0,0,.662.444,1.825,1.825,0,0,0,.715.156,1.143,1.143,0,0,0,.65-.162.5.5,0,0,0,.238-.438.51.51,0,0,0-.129-.359.913.913,0,0,0-.326-.224,5.557,5.557,0,0,0-.532-.182,5.442,5.442,0,0,1-.671-.241,1.158,1.158,0,0,1-.438-.347.956.956,0,0,1-.179-.606.97.97,0,0,1,.182-.582,1.151,1.151,0,0,1,.512-.388,2,2,0,0,1,.765-.135,2.471,2.471,0,0,1,.726.109,2.434,2.434,0,0,1,.632.291Zm2.759-.859h.671l1.506,2.894,1.494-2.894h.676v4.118h-.529l-.006-3.288-1.465,2.853h-.347l-1.477-2.853v3.288h-.524Zm6,2.435a1.218,1.218,0,0,0,.315.891,1.16,1.16,0,0,0,.868.321,1.142,1.142,0,0,0,.859-.321,1.224,1.224,0,0,0,.312-.891v-2.435h.565v2.435a1.7,1.7,0,0,1-.462,1.265,1.727,1.727,0,0,1-1.274.459,1.746,1.746,0,0,1-1.282-.459,1.7,1.7,0,0,1-.465-1.265v-2.435h.565Zm6.936-2.435h.559v4.118h-.571l-2.353-3.188v3.188h-.565v-4.118h.571s1.769,3.194,2.359,3.194S-200.8-26.774-200.8-26.774Zm1.741,0h.565v4.118h-.565Zm4.724.988a1.7,1.7,0,0,0-.547-.385,1.566,1.566,0,0,0-.641-.138,1.565,1.565,0,0,0-.8.212,1.57,1.57,0,0,0-.577.574,1.549,1.549,0,0,0-.212.8,1.554,1.554,0,0,0,.212.794,1.563,1.563,0,0,0,.577.576,1.565,1.565,0,0,0,.8.212,1.612,1.612,0,0,0,.635-.132,1.836,1.836,0,0,0,.553-.362l.341.371a2.3,2.3,0,0,1-.724.479,2.133,2.133,0,0,1-.835.174,2.129,2.129,0,0,1-1.077-.279,2.067,2.067,0,0,1-.771-.762,2.069,2.069,0,0,1-.282-1.065,2.026,2.026,0,0,1,.285-1.056,2.061,2.061,0,0,1,.779-.756,2.191,2.191,0,0,1,1.088-.276,2.215,2.215,0,0,1,.832.162,2.057,2.057,0,0,1,.7.456Zm1.129-.988h.565v4.118h-.565Zm.606-1.188.565.247-.729.576-.465-.059Zm2.724,1.188a1.763,1.763,0,0,1,1.191.365,1.282,1.282,0,0,1,.421,1.024,1.359,1.359,0,0,1-.424,1.068,1.719,1.719,0,0,1-1.188.379H-190.9v1.282h-.565v-4.118Zm-.024,2.324a1.248,1.248,0,0,0,.812-.232.836.836,0,0,0,.282-.685.8.8,0,0,0-.282-.668,1.271,1.271,0,0,0-.812-.226l-1,.006v1.806Zm2.382-2.324h.565v4.118h-.565Zm3.541-.035a2.207,2.207,0,0,1,1.091.276,2.077,2.077,0,0,1,.785.756,2.011,2.011,0,0,1,.288,1.056,2.041,2.041,0,0,1-.288,1.062,2.086,2.086,0,0,1-.785.765,2.189,2.189,0,0,1-1.091.279,2.189,2.189,0,0,1-1.091-.279,2.086,2.086,0,0,1-.785-.765,2.041,2.041,0,0,1-.288-1.062,2.011,2.011,0,0,1,.288-1.056,2.084,2.084,0,0,1,.782-.756A2.2,2.2,0,0,1-183.979-26.809Zm.006.506a1.57,1.57,0,0,0-.8.212,1.609,1.609,0,0,0-.585.574,1.517,1.517,0,0,0-.218.8,1.532,1.532,0,0,0,.218.8,1.625,1.625,0,0,0,.585.579,1.553,1.553,0,0,0,.8.215,1.522,1.522,0,0,0,.791-.215,1.616,1.616,0,0,0,.576-.579,1.548,1.548,0,0,0,.215-.8,1.533,1.533,0,0,0-.215-.8,1.6,1.6,0,0,0-.576-.574A1.538,1.538,0,0,0-183.973-26.3Zm5.377.388a2.369,2.369,0,0,0-.6-.274,2.017,2.017,0,0,0-.568-.091,1.048,1.048,0,0,0-.574.138.43.43,0,0,0-.215.379.5.5,0,0,0,.129.356.916.916,0,0,0,.318.218q.188.079.524.185a5.908,5.908,0,0,1,.676.247,1.171,1.171,0,0,1,.441.35.968.968,0,0,1,.182.615,1.027,1.027,0,0,1-.191.618,1.225,1.225,0,0,1-.535.409,2.034,2.034,0,0,1-.791.144,2.3,2.3,0,0,1-.882-.176,2.393,2.393,0,0,1-.741-.471l.253-.488a2.124,2.124,0,0,0,.662.444,1.825,1.825,0,0,0,.715.156,1.143,1.143,0,0,0,.65-.162.5.5,0,0,0,.238-.438.51.51,0,0,0-.129-.359.912.912,0,0,0-.326-.224,5.556,5.556,0,0,0-.532-.182,5.44,5.44,0,0,1-.671-.241,1.158,1.158,0,0,1-.438-.347.956.956,0,0,1-.179-.606A.97.97,0,0,1-181-26.3a1.151,1.151,0,0,1,.512-.388,2,2,0,0,1,.765-.135,2.471,2.471,0,0,1,.726.109,2.434,2.434,0,0,1,.632.291Zm4.435-.859a2.209,2.209,0,0,1,1.085.268,1.969,1.969,0,0,1,.762.738,2.04,2.04,0,0,1,.276,1.053,2.023,2.023,0,0,1-.279,1.053,1.985,1.985,0,0,1-.768.738,2.238,2.238,0,0,1-1.094.268h-1.659v-4.118Zm.012,3.606a1.543,1.543,0,0,0,.779-.2,1.468,1.468,0,0,0,.553-.553,1.553,1.553,0,0,0,.2-.788,1.547,1.547,0,0,0-.206-.794,1.5,1.5,0,0,0-.562-.556,1.569,1.569,0,0,0-.791-.2h-1.1v3.094Zm4.588-3.641a2.207,2.207,0,0,1,1.091.276,2.077,2.077,0,0,1,.785.756,2.011,2.011,0,0,1,.288,1.056,2.041,2.041,0,0,1-.288,1.062,2.086,2.086,0,0,1-.785.765,2.189,2.189,0,0,1-1.091.279,2.189,2.189,0,0,1-1.091-.279,2.086,2.086,0,0,1-.785-.765,2.041,2.041,0,0,1-.288-1.062,2.011,2.011,0,0,1,.288-1.056,2.084,2.084,0,0,1,.782-.756A2.2,2.2,0,0,1-169.561-26.809Zm.006.506a1.57,1.57,0,0,0-.8.212,1.609,1.609,0,0,0-.585.574,1.517,1.517,0,0,0-.218.8,1.532,1.532,0,0,0,.218.8,1.625,1.625,0,0,0,.585.579,1.553,1.553,0,0,0,.8.215,1.522,1.522,0,0,0,.791-.215,1.617,1.617,0,0,0,.576-.579,1.548,1.548,0,0,0,.215-.8,1.533,1.533,0,0,0-.215-.8,1.6,1.6,0,0,0-.576-.574A1.538,1.538,0,0,0-169.555-26.3Z" transform="translate(271.083 99.641)"/><path d="M-268.084-48.824a4.11,4.11,0,0,1,2.014.5,3.719,3.719,0,0,1,1.429,1.371,3.7,3.7,0,0,1,.521,1.934,3.727,3.727,0,0,1-.521,1.939,3.785,3.785,0,0,1-1.429,1.387,4.042,4.042,0,0,1-2.014.51,4.042,4.042,0,0,1-2.014-.51,3.785,3.785,0,0,1-1.429-1.387,3.727,3.727,0,0,1-.521-1.939,3.7,3.7,0,0,1,.521-1.934,3.719,3.719,0,0,1,1.429-1.371A4.11,4.11,0,0,1-268.084-48.824Zm.021,1.275a2.5,2.5,0,0,0-1.265.335,2.487,2.487,0,0,0-.924.914,2.482,2.482,0,0,0-.34,1.28,2.481,2.481,0,0,0,.345,1.286,2.57,2.57,0,0,0,.925.925,2.443,2.443,0,0,0,1.259.34,2.4,2.4,0,0,0,1.243-.34,2.5,2.5,0,0,0,.909-.925,2.541,2.541,0,0,0,.335-1.286,2.512,2.512,0,0,0-.335-1.28,2.471,2.471,0,0,0-.909-.914A2.425,2.425,0,0,0-268.063-47.549Zm5.2-1.18h5.451v1.243h-4.027v1.838h3.613V-44.4h-3.613v1.87h4.155v1.243h-5.579Zm11.7,1.913a5.383,5.383,0,0,0-1.174-.542,3.545,3.545,0,0,0-1.057-.191,1.481,1.481,0,0,0-.808.191.6.6,0,0,0-.3.531.7.7,0,0,0,.207.515,1.619,1.619,0,0,0,.521.34,8.264,8.264,0,0,0,.855.292,9.346,9.346,0,0,1,1.238.446,2.208,2.208,0,0,1,.824.659,1.813,1.813,0,0,1,.34,1.148,1.962,1.962,0,0,1-.367,1.185,2.3,2.3,0,0,1-1.01.77,3.827,3.827,0,0,1-1.472.266,4.631,4.631,0,0,1-1.7-.324,4.828,4.828,0,0,1-1.445-.866l.6-1.211a4.356,4.356,0,0,0,1.265.818,3.363,3.363,0,0,0,1.307.3,1.66,1.66,0,0,0,.935-.228.712.712,0,0,0,.34-.622.713.713,0,0,0-.207-.526,1.542,1.542,0,0,0-.526-.335q-.319-.128-.871-.287a10.319,10.319,0,0,1-1.233-.436,2.141,2.141,0,0,1-.818-.643,1.773,1.773,0,0,1-.34-1.132,1.9,1.9,0,0,1,.345-1.132,2.223,2.223,0,0,1,.978-.749,3.747,3.747,0,0,1,1.461-.266,4.938,4.938,0,0,1,1.429.213,4.826,4.826,0,0,1,1.259.574ZM-250-48.728h6.068v1.265h-2.317v6.174h-1.435v-6.174H-250Zm7.077,0h5.451v1.243H-241.5v1.838h3.613V-44.4H-241.5v1.87h4.155v1.243h-5.579Zm12.72,0a4.161,4.161,0,0,1,2,.473,3.473,3.473,0,0,1,1.381,1.323,3.725,3.725,0,0,1,.5,1.923,3.667,3.667,0,0,1-.5,1.918,3.541,3.541,0,0,1-1.4,1.323,4.23,4.23,0,0,1-2.03.478h-3.039v-7.439Zm.032,6.185a2.425,2.425,0,0,0,1.227-.313,2.224,2.224,0,0,0,.855-.871,2.582,2.582,0,0,0,.308-1.27,2.572,2.572,0,0,0-.319-1.28,2.257,2.257,0,0,0-.877-.882,2.5,2.5,0,0,0-1.249-.313h-1.647v4.931Zm8.214-6.28a4.11,4.11,0,0,1,2.014.5,3.719,3.719,0,0,1,1.429,1.371,3.7,3.7,0,0,1,.521,1.934,3.727,3.727,0,0,1-.521,1.939,3.785,3.785,0,0,1-1.429,1.387,4.042,4.042,0,0,1-2.014.51,4.042,4.042,0,0,1-2.014-.51A3.785,3.785,0,0,1-225.4-43.08a3.727,3.727,0,0,1-.521-1.939,3.7,3.7,0,0,1,.521-1.934,3.719,3.719,0,0,1,1.429-1.371A4.11,4.11,0,0,1-221.955-48.824Zm.021,1.275a2.5,2.5,0,0,0-1.265.335,2.488,2.488,0,0,0-.925.914,2.482,2.482,0,0,0-.34,1.28,2.481,2.481,0,0,0,.345,1.286,2.57,2.57,0,0,0,.925.925,2.443,2.443,0,0,0,1.259.34,2.4,2.4,0,0,0,1.243-.34,2.5,2.5,0,0,0,.909-.925,2.542,2.542,0,0,0,.335-1.286,2.513,2.513,0,0,0-.335-1.28,2.472,2.472,0,0,0-.909-.914A2.425,2.425,0,0,0-221.933-47.549Zm10.85-1.18a3.21,3.21,0,0,1,2.173.669,2.371,2.371,0,0,1,.77,1.892,2.554,2.554,0,0,1-.77,1.982,3.1,3.1,0,0,1-2.173.707h-1.626v2.189h-1.424v-7.439Zm-.074,4a1.916,1.916,0,0,0,1.238-.351,1.264,1.264,0,0,0,.43-1.041,1.221,1.221,0,0,0-.43-1.02,1.959,1.959,0,0,0-1.238-.34h-1.551v2.752Zm9.213,3.443-.659-1.573h-3.634l-.659,1.573h-1.477l3.262-7.439h1.477l3.22,7.439Zm-3.783-2.795h2.614l-1.3-3.124Zm10.871,2.795-1.286-2.2a2.371,2.371,0,0,1-.266.011h-1.679v2.189h-1.424v-7.439h3.1a3.344,3.344,0,0,1,2.232.669,2.348,2.348,0,0,1,.786,1.892,2.8,2.8,0,0,1-.377,1.488,2.309,2.309,0,0,1-1.1.925l1.636,2.465Zm-3.23-3.443h1.679a1.894,1.894,0,0,0,1.233-.351,1.272,1.272,0,0,0,.425-1.041,1.228,1.228,0,0,0-.425-1.02,1.936,1.936,0,0,0-1.233-.34h-1.679Zm11.764,3.443-.659-1.573h-3.634l-.659,1.573h-1.477l3.262-7.439h1.477l3.22,7.439Zm-3.783-2.795h2.614l-1.3-3.124Zm11.4-4.644h1.381v7.439h-1.35l-3.826-5.122v5.122h-1.392v-7.439h1.35L-178.7-43.6Zm8.714,7.439-.659-1.573h-3.634l-.659,1.573h-1.477l3.262-7.439h1.477l3.22,7.439Zm-3.783-2.795h2.614l-1.3-3.124Zm1.743-6.875,1.328.542-1.36,1.095-1.073-.106Z" transform="translate(272.048 129.091)"/><path class="b" d="M12.262,24.524A12.265,12.265,0,0,1,7.489.964a12.265,12.265,0,0,1,9.546,22.6A12.185,12.185,0,0,1,12.262,24.524Zm0-14.9A2.641,2.641,0,1,0,14.9,12.262,2.644,2.644,0,0,0,12.262,9.621Z" transform="translate(59.078 45.128)"/></g></svg>