<svg xmlns="http://www.w3.org/2000/svg" width="80.052" height="50.339" viewBox="0 0 80.052 50.339"><defs><style>.a,.b{fill:none;stroke:red;}.a{stroke-width:4px;}.b{stroke-width:2px;}</style></defs><g transform="translate(-1220.482 -1944.068)"><g transform="translate(1221 1946)"><g transform="translate(0 0)"><path class="a" d="M0,0H12.732" transform="matrix(0.966, 0.259, -0.259, 0.966, 22.309, 7.184)"/><path class="b" d="M0,24.849H5.97L16.907,35.122l4.384-2.589L13.96,25.208l8.667,8.654L27.262,31.1l-9.277-9.263,10.5,10.489,4.676-3.164-10.11-10.09,11.364,11.35,3.815-3.809L19.355,7.752,13.31,13.79h-9.5L17.624,0h15.9l4.8,4.791" transform="matrix(0.966, 0.259, -0.259, 0.966, 23.424, 3.021)"/><path class="a" d="M19.5,0H0V24.137H19.5" transform="matrix(0.966, 0.259, -0.259, 0.966, 60.185, 15.06)"/><path class="b" d="M4.675,2.33A2.334,2.334,0,0,1,2.346,4.669H2.338A2.334,2.334,0,0,1,0,2.338V2.33A2.332,2.332,0,0,1,2.334,0h0A2.332,2.332,0,0,1,4.675,2.326Z" transform="matrix(0.966, 0.259, -0.259, 0.966, 9.155, 17.441)"/><path class="b" d="M4.675,2.33a2.334,2.334,0,0,1-2.33,2.338H2.337A2.334,2.334,0,0,1,0,2.339V2.33A2.332,2.332,0,0,1,2.333,0h0A2.332,2.332,0,0,1,4.675,2.327Z" transform="matrix(0.966, 0.259, -0.259, 0.966, 61.549, 30.612)"/><path class="a" d="M0,25.492H17.035V0H.359" transform="matrix(0.966, 0.259, -0.259, 0.966, 6.598, 0)"/></g></g></g></svg>