<svg xmlns="http://www.w3.org/2000/svg" width="51.049" height="46.922" viewBox="0 0 51.049 46.922"><defs><style>.a,.b{fill:none;stroke:red;}.a{stroke-width:2px;}.b{stroke-width:4px;}</style></defs><g transform="translate(-1519.308 -247.667)"><g transform="translate(1521.308 249.667)"><g transform="translate(4.511 20.872)"><path class="a" d="M2364.614,1594.337a7.9,7.9,0,1,1,3.994-3.233" transform="translate(-2354 -1579)"/><path class="a" d="M2367.88,1598.094v-2.929h-3.972v-2.532h3.972v-4.22h2.88" transform="translate(-2361.233 -1585.986)"/><path class="a" d="M2379.668,1593.037v2.929h3.972v2.532h-3.972v4.22h-2.88" transform="translate(-2370.636 -1589.418)"/></g><path class="b" d="M505.7,1038.5h16.845v28.108a5.323,5.323,0,0,1-5.322,5.322H475.5V1038.5h16.269" transform="translate(-475.5 -1029.008)"/><path class="b" d="M519.5,1029.945V1015.5h10.318v14.445" transform="translate(-501.341 -1015.5)"/><line class="a" x1="16.593" transform="translate(14.679 17.21)"/><line class="a" x2="9.126" transform="translate(24.635 23.507)"/><line class="a" x2="2.489" transform="translate(37.08 23.507)"/><line class="a" x2="9.08" transform="translate(24.969 33.017)"/><line class="a" x2="3.302" transform="translate(36.525 33.017)"/><line class="a" x1="9.08" transform="translate(30.747 28.477)"/><line class="a" x1="3.302" transform="translate(24.969 28.477)"/></g></g></svg>