<svg xmlns="http://www.w3.org/2000/svg" width="51.902" height="59.781" viewBox="0 0 51.902 59.781"><defs><style>.a,.b,.c{fill:none;}.a,.c{stroke:red;}.a{stroke-width:4px;}.b{stroke:#008b30;stroke-width:3px;}.c{stroke-width:2px;}</style></defs><g transform="translate(2 -1.519)"><g transform="translate(0.022 3.519)"><path class="a" d="M.219,42.295H7.471V.126H5.548C2.6.126.219,2.234.219,4.835Z" transform="translate(-0.219 -0.126)"/></g><g transform="translate(7.198 3.519)"><path class="a" d="M71.589,42.294h-40.7V.125H68.964a2.486,2.486,0,0,1,2.625,2.319Z" transform="translate(-30.885 -0.125)"/></g><g transform="translate(7.226 2.994)"><path class="a" d="M31.007.178V55.65l3.771-1.341,4.08,1.341V47.109" transform="translate(-31.007 -0.178)"/></g><path class="b" d="M104.341,151.294" transform="translate(-79.955 -117.955)"/><path class="a" d="M.125,204.247v2.081a5.3,5.3,0,0,0,5.3,5.3H7.312v-7.378h7.909v7.378H46.172v-7.378Z" transform="translate(-0.125 -158.517)"/><path class="c" d="M62.892,75.119A14.419,14.419,0,0,1,61.5,68.726C61.5,60.235,67.4,52.9,76.55,52.9c6.835,0,11.536,4.567,11.963,10.954v1.367c-.632,8.764-11.953,14.918-9.785,5.826l1.752-6.354a3.453,3.453,0,0,0-3.5-1.971c-4.969,0-8.473,4.293-8.473,9,0,3,1.788,4.836,3.861,4.786a6.547,6.547,0,0,0,6.362-5.464" transform="translate(-47.865 -40.236)"/></g></svg>