<svg xmlns="http://www.w3.org/2000/svg" width="51.914" height="60.141" viewBox="0 0 51.914 60.141"><defs><style>.a,.c{fill:rgba(0,0,0,0);}.a,.b,.c{stroke:red;}.a{stroke-width:4px;}.b{fill:none;}.b,.c{stroke-width:2px;}</style></defs><g transform="translate(-656.427 -943.885)"><path class="a" d="M660.9,994.3h-2.477V948.311h38.09v7.442" transform="translate(0 -2.426)"/><path class="a" d="M689.464,964.807v21.679h-6.25" transform="translate(7.053 5.384)"/><line class="b" x2="7.347" transform="translate(675.511 955.708)"/><line class="b" x2="7.364" transform="translate(675.768 968.517)"/><path class="c" d="M669.651,966.579a3.645,3.645,0,1,1-3.038-5.656" transform="translate(2.461 5.206)"/><path class="c" d="M669.8,966.7a3.726,3.726,0,1,1-3.105-5.782" transform="translate(1.999 -7.912)"/><path class="c" d="M687.293,967.558l13.2-13.2-3.543-3.544-14.293,14.294-1.621,5.268,3-.923,2.262-.7-2.869-2.871" transform="translate(6.433 0.117)"/><g transform="translate(662.746 976.249)"><path class="c" d="M386.4,1567.88a9.642,9.642,0,0,0-3.514-2.234,17.049,17.049,0,0,0-4.792-.464l2.266-6a4.347,4.347,0,0,1,8.162,2.993l-4.587,12.582a4.338,4.338,0,0,1-7.732.857" transform="translate(-360.53 -1550.932)"/><path class="c" d="M370.162,1557.9l2.349-6.359a4.344,4.344,0,0,1,8.418,1.741l-.09,1.081" transform="translate(-358.761 -1548.689)"/><path class="c" d="M370.223,1561.137a9.648,9.648,0,0,1,4.832.466h0a9.65,9.65,0,0,1,2.563,1.4" transform="translate(-358.779 -1552.301)"/><path class="c" d="M371.661,1570.445a8.812,8.812,0,1,1-8.812-8.813A8.813,8.813,0,0,1,371.661,1570.445Z" transform="translate(-354.036 -1552.481)"/><line class="b" y1="11.629" x2="11.629" transform="translate(2.713 12.275)"/></g></g></svg>