<svg xmlns="http://www.w3.org/2000/svg" width="50" height="50" viewBox="0 0 50 50"><defs><style>.a{fill:#fff;}.b{fill:#0953ff;}</style></defs><path class="a" d="M25,0A25,25,0,1,1,0,25,25,25,0,0,1,25,0Z" transform="translate(0 0)"/><g transform="translate(20.027 17.045)"><path class="b" d="M863.489,514.822s-1.319-.012-2.179.043a.859.859,0,0,0-.839.878v2.009H863.5l-.379,3.488h-2.676v6.979h-4.05v-6.9H854.5v-3.571h1.917v-2.243a4.711,4.711,0,0,1,.539-2.191,3.966,3.966,0,0,1,3.6-1.81h2.921Z" transform="translate(-854.5 -511.499)"/></g></svg>