<svg xmlns="http://www.w3.org/2000/svg" width="68.752" height="68.398" viewBox="0 0 68.752 68.398"><defs><style>.a,.b,.c,.d{fill:none;stroke-linecap:round;}.a{stroke:#982954;stroke-width:2px;}.b{stroke:#972954;}.b,.d{stroke-width:3px;}.c{stroke:#bf1a5c;stroke-width:5px;}.d{stroke:#972953;}</style></defs><g transform="translate(1.002 2.5)"><path class="a" d="M114.433,107.043l-3.571-.214a1.679,1.679,0,0,0-1.766,1.286c-.37,1.523-.492,2.119-.492,2.119s-.213,1.389.973,1.6c.98.013,2.008,0,2.74,0,0,0,1.575.032,1.436,1.212a22.9,22.9,0,0,1-.53,2.919,2,2,0,0,1-1.9,1.042h-3.874" transform="translate(-81.438 -52.5)"/><path class="a" d="M115.108,117.1l4.1-10.278h1.286l.68,10.278" transform="translate(-81.026 -52.5)"/><path class="a" d="M124.209,106.846l-1.355,8.147s-.278,1.827,1.355,2.015a12.512,12.512,0,0,0,2.918,0s1.39-.139,2.084-2.74l1.145-7.421" transform="translate(-80.61 -52.499)"/><line class="a" y1="2.363" x2="2.189" transform="translate(46.518 51.689)"/><path class="a" d="M132.454,106.82l-1.436,10.188h3.768s1.768.238,2.434-2.765l.861-5.26s.555-1.806-1.112-2.015Z" transform="translate(-80.169 -52.5)"/><path class="a" d="M145.48,106.991h-5.42l-.884,4.715-.992,5.29h5.524" transform="translate(-78.73 -52.491)"/><path class="a" d="M143.787,111.654" transform="translate(-78.428 -52.24)"/><line class="a" x2="4.914" transform="translate(60.517 59.219)"/><line class="a" x2="3.161" transform="translate(36.357 61.376)"/><path class="a" d="M83.928,109.934l-1.153,5.992s-.061.138.139.154h8.649a3.114,3.114,0,0,0,2.412-2.059l.645-4.839a1.71,1.71,0,0,0-1.628-1.846H88.338s-.184.018-.246.494-.913,5.491-.913,5.491" transform="translate(-82.767 -52.473)"/><path class="a" d="M95.2,116.206h6.76c1.414-.414,2.382-1.044,2.534-2.658s-1.705-1.785-1.705-1.785H99.237s-2.474-.427-2-2.424,2.965-2.075,2.965-2.075h5.563" transform="translate(-82.098 -52.476)"/><line class="a" y1="0.749" x2="0.127" transform="translate(1.5 54.488)"/><g transform="translate(7.377)"><circle class="b" cx="2.475" cy="2.475" r="2.475" transform="translate(21.878 8.77)"/><path class="c" d="M131.685,94.385a23.591,23.591,0,1,1-18.068-38.759,23.813,23.813,0,0,1,11.051,2.743" transform="translate(-90.027 -55.625)"/><path class="b" d="M110.067,71.5s-5.887-2.027-8.27,5.1" transform="translate(-89.213 -54.544)"/><path class="b" d="M115.473,71.408s7.13-1.855,9.08,5.188" transform="translate(-88.265 -54.548)"/><path class="b" d="M103.3,82.266a26.272,26.272,0,0,0,10.222,9.787s8.5-4.76,10.534-9.787" transform="translate(-89.109 -53.781)"/><path class="d" d="M4862.4,1067.767h13.491l1.4-5.056,4.359,9.927,2.259-4.871h9.514" transform="translate(-4853.698 -1042.705)"/><path class="c" d="M1503.612,877.545l-.11.029" transform="translate(-1463.891 -871.592)"/></g></g></svg>