<svg xmlns="http://www.w3.org/2000/svg" width="25.564" height="28.954" viewBox="0 0 25.564 28.954"><defs><style>.a{fill:none;stroke:#fff;stroke-width:2px;}</style></defs><g transform="translate(-1474.4 -872.227)"><circle class="a" cx="1.414" cy="1.414" r="1.414" transform="translate(1487.899 878.237)"/><path class="a" d="M113.826,77.768a13.475,13.475,0,1,1-3.347-20.2" transform="translate(1385.373 817.602)"/><path class="a" d="M106.522,71.389s-3.363-1.158-4.725,2.911" transform="translate(1380.792 811.527)"/><path class="a" d="M115.473,71.314s4.073-1.06,5.187,2.964" transform="translate(1375.47 811.546)"/><path class="a" d="M103.3,82.266a15.009,15.009,0,0,0,5.84,5.591s4.855-2.719,6.018-5.591" transform="translate(1380.209 807.234)"/><path class="a" d="M4862.4,1065.6h7.708l.8-2.889,2.491,5.671,1.291-2.783h5.435" transform="translate(-3382.028 -178.054)"/><path class="a" d="M1503.565,877.545l-.063.017" transform="translate(-5.473 -0.917)"/></g></svg>