<svg xmlns="http://www.w3.org/2000/svg" width="55.269" height="61.141" viewBox="0 0 55.269 61.141"><defs><style>.a,.b,.c{fill:none;stroke:red;stroke-linecap:round;}.a{stroke-width:2px;}.b{stroke-width:4px;}.c{stroke-width:5px;}</style></defs><g transform="translate(-1500 -2350.65)"><g transform="translate(1502 2352.65)"><circle class="a" cx="2.997" cy="2.997" r="2.997" transform="translate(26.496 10.621)"/><path class="b" d="M140.479,102.566a28.566,28.566,0,1,1-7.095-42.822" transform="translate(-90.027 -55.625)"/><path class="a" d="M111.813,71.56s-7.13-2.455-10.016,6.172" transform="translate(-86.556 -51.021)"/><path class="a" d="M115.473,71.455s8.635-2.247,11,6.283" transform="translate(-82.522 -51.035)"/><path class="a" d="M103.3,82.266a31.817,31.817,0,0,0,12.379,11.852s10.292-5.765,12.758-11.852" transform="translate(-86.114 -47.768)"/><path class="a" d="M4862.4,1068.834h16.339l1.694-6.124,5.28,12.023,2.736-5.9h11.522" transform="translate(-4851.861 -1038.482)"/><path class="c" d="M1503.635,877.545l-.134.035" transform="translate(-1455.529 -870.335)"/></g></g></svg>