<svg xmlns="http://www.w3.org/2000/svg" width="58.853" height="29.079" viewBox="0 0 58.853 29.079"><defs><style>.a{fill:#ff660a;}.a,.b{stroke:rgba(0,0,0,0);stroke-miterlimit:10;fill-rule:evenodd;}.b{fill:#fff;}</style></defs><g transform="translate(0.5 0.5)"><path class="a" d="M985.334,2680.458v1.627H984.29v-1.627Zm-17.944,0v2.994h-1.024v-2.994Zm20.477-1.025v4.04h1.688a.472.472,0,0,1,.381.362v.644h-2.27a.911.911,0,0,1-.8-.965v-4.08Zm-2.411,0a.89.89,0,0,1,.884.784v4.261h-.985v-1.367H984.29v1.367h-1v-4.241a.882.882,0,0,0,.04-.2c.039-.381.542-.623.823-.6Zm-2.693,0v1h-1.025v4.04h-1.024v-4.04h-1.025v-1Zm-3.6,0v1H978.14v3.035h1.025v1.005h-3.054v-1.005h1v-3.035h-1v-1Zm-3.577,0v1h-2.069v3.035h1.065v-1.367h1v2.372h-2.271a.9.9,0,0,1-.8-.845v-3.356a.337.337,0,0,0,.02-.14.859.859,0,0,1,.864-.7Zm-3.6,0v1h-1.025v3.035h1.025v1.005h-3.074v-1.005h1.025v-3.035h-1.025v-1Zm-4.481,0a.92.92,0,0,1,.9,1v3.015a.939.939,0,0,1-.864,1.025H965.34v-5.045Zm55.4-22.874c.02.02.061.02.061.081v2.834a1.094,1.094,0,0,1-1.025.985h-2.712c-.02-.02-.06-.02-.1-.061V2657.4a1.064,1.064,0,0,1,.9-.844Zm-51.743-.1c.04,0,.2.04.2.12v4.6a.475.475,0,0,0-.04.16c0,.522-.865,1.267-1.347,1.267h-4.561c-.04-.02-.121-.1-.121-.141v-4.442a.678.678,0,0,0,.02-.2,1.719,1.719,0,0,1,1.346-1.346.674.674,0,0,0,.2-.02Z" transform="translate(-965.3 -2656.399)"/><path class="b" d="M1017.865,2668.261v2.593c-.02.06-.241.422-.4.422h-3.657v-2.593a.554.554,0,0,1,.482-.422Zm-46.1,7.959H965.74v-13.527l4.521.02a2.563,2.563,0,0,0,1.508-.664Zm28.855-15.3v10.17h-4.059v-10.01c.02-.1.16-.16.261-.16Zm18.708-5.125a1.759,1.759,0,0,0-.5,1.086v2.914a.874.874,0,0,0,.724.744h2.894a1.952,1.952,0,0,0,1.1-.5l-.02,16.18h-11.393c-.2-.02-.4-.081-.6-.1a4.618,4.618,0,0,1-3.215-2.371c-.06-.161-.161-.362-.2-.5-.061-.261-.161-.745-.161-.784v-5.849c.04-.261.1-.563.161-.824.422-1.669,2.391-2.332,3.6-2.332h5.767v-2.553h-8.3V2655.8Zm-12.66,0v23.918c-.02.261-.081.5-.1.744a6.9,6.9,0,0,1-.221.8c-.6,1.728-2.552,2.392-3.818,2.532-.221.02-.663.081-.723.081H991.622v-5.1h9v-2.553h-6.611c-1.045-.121-2.573-.221-3.215-1.708a3.422,3.422,0,0,1-.2-.644,7.317,7.317,0,0,1-.1-.844v-13.466c.02-.18.04-.381.06-.563a3.887,3.887,0,0,1,2.11-2.834c.1-.039.221-.1.342-.14a3.476,3.476,0,0,1,.623-.16,4.416,4.416,0,0,1,.543-.061Zm-21.521,0a4.024,4.024,0,0,1,4.079,4.02v16.4h-6.049v-15.115c-.04-.04-.14-.2-.221-.2h-3.878v15.316h-6.029V2655.8Z" transform="translate(-965.7 -2655.8)"/></g></svg>