<svg xmlns="http://www.w3.org/2000/svg" xmlns:xlink="http://www.w3.org/1999/xlink" width="209.908" height="70.077" viewBox="0 0 209.908 70.077"><defs><style>.a{fill:#86858a;}.b{fill:none;}.c{fill:url(#a);}.d{fill:#a6040c;}.e{fill:#fff;}</style><linearGradient id="a" x1="0.167" y1="-0.121" x2="0.809" y2="0.887" gradientUnits="objectBoundingBox"><stop offset="0" stop-color="#afafaf"/><stop offset="1" stop-color="#5d5d5d"/></linearGradient></defs><g transform="translate(-3475.624 -3285)"><g transform="translate(3475.624 3285)"><circle class="a" cx="35.036" cy="35.036" r="35.036" transform="translate(0 0.005)"/><ellipse class="b" cx="35.035" cy="35.03" rx="35.035" ry="35.03" transform="translate(0 0.017)"/><ellipse class="c" cx="32.84" cy="35.036" rx="32.84" ry="35.036" transform="translate(4.391 0.005)"/><path class="d" d="M-1501.636,130.88l-20.151-1.617,20.151-1.493Z" transform="translate(1590.163 -104.522)"/><path class="e" d="M-1717.508,130.88l46.26-1.617-46.26-1.493Z" transform="translate(1739.624 -104.522)"/><path class="d" d="M-1501.636,146.934l-20.151-1.617,20.151-1.493Z" transform="translate(1590.163 -116.782)"/><path class="e" d="M-1717.508,146.934l46.26-1.617-46.26-1.493Z" transform="translate(1739.624 -116.782)"/><path class="d" d="M-1501.636,162.988l-20.151-1.617,20.151-1.493Z" transform="translate(1590.163 -129.042)"/><path class="e" d="M-1717.508,162.988l46.26-1.617-46.26-1.493Z" transform="translate(1739.624 -129.042)"/><path class="d" d="M-1501.636,179.043l-20.151-1.617,20.151-1.493Z" transform="translate(1590.163 -141.301)"/><path class="e" d="M-1717.508,179.043l46.26-1.617-46.26-1.493Z" transform="translate(1739.624 -141.301)"/><path class="d" d="M-1501.636,195.1l-20.151-1.617,20.151-1.493Z" transform="translate(1590.163 -153.561)"/><path class="e" d="M-1717.508,195.1l46.26-1.617-46.26-1.493Z" transform="translate(1739.624 -153.561)"/><path class="d" d="M-1501.636,211.151l-20.151-1.617,20.151-1.493Z" transform="translate(1590.163 -165.821)"/><path class="e" d="M-1717.508,211.151l46.26-1.617-46.26-1.493Z" transform="translate(1739.624 -165.821)"/><path class="d" d="M-1546.865,231.091l-6.622-1.585,6.622-1.463Z" transform="translate(1614.37 -181.095)"/><path class="e" d="M-1617.807,231.091l15.2-1.585-15.2-1.463Z" transform="translate(1663.488 -181.095)"/><path class="d" d="M-1546.865,247.935l-6.622-1.585,6.622-1.463Z" transform="translate(1614.37 -193.958)"/><path class="e" d="M-1617.807,247.935l15.2-1.585-15.2-1.463Z" transform="translate(1663.488 -193.958)"/><path class="d" d="M-1546.865,264.779l-6.622-1.585,6.622-1.463Z" transform="translate(1614.37 -206.821)"/><path class="e" d="M-1617.807,264.779l15.2-1.585-15.2-1.463Z" transform="translate(1663.488 -206.821)"/><path class="d" d="M-1546.865,281.623l-6.622-1.585,6.622-1.463Z" transform="translate(1614.37 -219.683)"/><path class="e" d="M-1617.807,281.623l15.2-1.585-15.2-1.463Z" transform="translate(1663.488 -219.683)"/><path class="d" d="M-1546.865,298.467l-6.622-1.585,6.622-1.463Z" transform="translate(1614.37 -232.546)"/><path class="e" d="M-1617.807,298.467l15.2-1.585-15.2-1.463Z" transform="translate(1663.488 -232.546)"/><path class="d" d="M-1546.865,315.31l-6.622-1.585,6.622-1.463Z" transform="translate(1614.37 -245.409)"/><path class="e" d="M-1617.807,315.31l15.2-1.585-15.2-1.463Z" transform="translate(1663.488 -245.409)"/><path class="d" d="M-1546.865,32.462l-6.622-1.585,6.622-1.463Z" transform="translate(1614.37 -29.414)"/><path class="e" d="M-1617.807,32.462l15.2-1.585-15.2-1.463Z" transform="translate(1663.488 -29.414)"/><path class="d" d="M-1546.865,49.306l-6.622-1.585,6.622-1.463Z" transform="translate(1614.37 -42.277)"/><path class="e" d="M-1617.807,49.306l15.2-1.585-15.2-1.463Z" transform="translate(1663.488 -42.277)"/><path class="d" d="M-1546.865,66.15l-6.622-1.585,6.622-1.463Z" transform="translate(1614.37 -55.139)"/><path class="e" d="M-1617.807,66.15l15.2-1.585-15.2-1.463Z" transform="translate(1663.488 -55.139)"/><path class="d" d="M-1546.865,82.994l-6.622-1.585,6.622-1.463Z" transform="translate(1614.37 -68.002)"/><path class="e" d="M-1617.807,82.994l15.2-1.585-15.2-1.463Z" transform="translate(1663.488 -68.002)"/><path class="d" d="M-1546.865,99.838l-6.622-1.585,6.622-1.463Z" transform="translate(1614.37 -80.865)"/><path class="e" d="M-1617.807,99.838l15.2-1.585-15.2-1.463Z" transform="translate(1663.488 -80.865)"/><path class="d" d="M-1546.865,116.682l-6.622-1.585,6.622-1.463Z" transform="translate(1614.37 -93.727)"/><path class="e" d="M-1617.807,116.682l15.2-1.585-15.2-1.463Z" transform="translate(1663.488 -93.727)"/></g><path class="a" d="M35.168,22.876l2.695-5.892c3.572,2.632,7.148,2.487,7.784,2.027a2.083,2.083,0,0,0,.954-1.75,2.237,2.237,0,0,0-.788-1.815,22.007,22.007,0,0,0-3.722-1.3,10.156,10.156,0,0,1-3.852-1.987A5.35,5.35,0,0,1,36.672,7.9C36.9,1.962,42.768,0,45.52,0A15.62,15.62,0,0,1,49.74.53,15.222,15.222,0,0,1,53.514,2.1l-2.3,4.608c-.752-.319-1.289-.614-2.194-.946A7.752,7.752,0,0,0,46.433,5.3,2.03,2.03,0,0,0,44.5,6.484c-1.5,5.362,9.967,2.489,10.03,10.5a7.686,7.686,0,0,1-3.823,6.393,11.891,11.891,0,0,1-6.468,1.828C40.123,25.206,36.54,23.375,35.168,22.876Zm30.1,1.3a12.479,12.479,0,0,1-4.221-2.689,12.052,12.052,0,0,1,0-17.592,12.562,12.562,0,0,1,4.221-2.721A13.347,13.347,0,0,1,70.242.251a13.5,13.5,0,0,1,5,.932A12.817,12.817,0,0,1,79.458,3.9a12.521,12.521,0,0,1,2.833,4.017,12.118,12.118,0,0,1,.948,4.778,12.2,12.2,0,0,1-.948,4.811,12.23,12.23,0,0,1-2.825,3.985,13.187,13.187,0,0,1-4.254,2.689,13.888,13.888,0,0,1-4.969.956A13.71,13.71,0,0,1,65.273,24.176Zm1.5-15.257a5.631,5.631,0,0,0-1.458,3.96,5.582,5.582,0,0,0,1.431,3.986,5.214,5.214,0,0,0,7.466-.026A5.023,5.023,0,0,0,75.3,15.072a6.478,6.478,0,0,0,.351-2.193,5.63,5.63,0,0,0-1.472-3.96,4.887,4.887,0,0,0-3.7-1.587A4.821,4.821,0,0,0,66.772,8.919ZM0,12.479C.27-2.145,17.6,1.09,18.333,1.771V8.815C17.509,8.225,8.114,6.363,8.114,12.79c0,7.578,9.75,4.033,10.219,3.812v7.013a19.2,19.2,0,0,1-6.447,1C6.529,24.616-.179,22.536,0,12.479ZM87.826,24.5V.85h8.026a38.974,38.974,0,0,1,6.64.388,8.8,8.8,0,0,1,3.21,1.325,7.411,7.411,0,0,1,2.364,2.682,7.935,7.935,0,0,1,.827,3.635,7.928,7.928,0,0,1-.827,3.716,6.192,6.192,0,0,1-2.364,2.649,7.979,7.979,0,0,1-2.826,1.115,16.7,16.7,0,0,1-4.253.339H95.932v7.8ZM95.932,11.5h1.461c1.819,0,4.16-.037,4.061-2.811-.093-2.61-2.152-2.747-3.984-2.747H95.932ZM23.26,24.5V.85h8.524V24.5Z" transform="translate(3576.638 3298)"/><path d="M-244.8-25.9a2.426,2.426,0,0,0-.707-.427,2.175,2.175,0,0,0-.783-.142,1.728,1.728,0,0,0-1.293.51,1.81,1.81,0,0,0-.5,1.321,1.8,1.8,0,0,0,.485,1.295,1.617,1.617,0,0,0,1.223.51,2.228,2.228,0,0,0,.82-.152,2.6,2.6,0,0,0,.747-.46v.891a2.325,2.325,0,0,1-.692.341,2.8,2.8,0,0,1-.811.113,2.832,2.832,0,0,1-1.028-.182,2.388,2.388,0,0,1-.829-.536,2.385,2.385,0,0,1-.545-.82,2.66,2.66,0,0,1-.19-1,2.635,2.635,0,0,1,.19-1,2.415,2.415,0,0,1,.551-.823,2.429,2.429,0,0,1,.828-.541,2.733,2.733,0,0,1,1.01-.184,2.652,2.652,0,0,1,.814.124,2.853,2.853,0,0,1,.752.376Zm5.126,1.255a1.843,1.843,0,0,0-.134-.7,1.812,1.812,0,0,0-.386-.589,1.708,1.708,0,0,0-.568-.392,1.72,1.72,0,0,0-.68-.137,1.738,1.738,0,0,0-.68.136,1.734,1.734,0,0,0-.574.394,1.752,1.752,0,0,0-.384.586,1.872,1.872,0,0,0-.133.7,1.838,1.838,0,0,0,.133.7,1.8,1.8,0,0,0,.384.586,1.739,1.739,0,0,0,.573.394,1.734,1.734,0,0,0,.682.136,1.706,1.706,0,0,0,.674-.136,1.781,1.781,0,0,0,.575-.394,1.816,1.816,0,0,0,.386-.588A1.822,1.822,0,0,0-239.672-24.646Zm.821,0a2.492,2.492,0,0,1-.194.977,2.48,2.48,0,0,1-.565.821,2.651,2.651,0,0,1-.844.553,2.585,2.585,0,0,1-.987.192,2.619,2.619,0,0,1-1-.194,2.574,2.574,0,0,1-.839-.551,2.468,2.468,0,0,1-.563-.818,2.5,2.5,0,0,1-.192-.98,2.52,2.52,0,0,1,.192-.98,2.494,2.494,0,0,1,.563-.825,2.568,2.568,0,0,1,.841-.55,2.65,2.65,0,0,1,1-.189,2.629,2.629,0,0,1,.992.189,2.573,2.573,0,0,1,.839.55,2.547,2.547,0,0,1,.565.829A2.5,2.5,0,0,1-238.851-24.646Zm.9,2.414v-5.04l3.079,2.964q.126.126.255.268t.272.321V-27.08h.728v5.036l-3.142-3.017q-.126-.123-.243-.258t-.223-.285v3.371Zm5.169-.97.629-.291a.867.867,0,0,0,.328.5,1.022,1.022,0,0,0,.609.171.78.78,0,0,0,.558-.2.685.685,0,0,0,.207-.523q0-.427-.709-.762-.1-.05-.152-.073a3.423,3.423,0,0,1-1.068-.707,1.159,1.159,0,0,1-.267-.773,1.24,1.24,0,0,1,.4-.96,1.5,1.5,0,0,1,1.055-.368,1.781,1.781,0,0,1,.9.207,1.091,1.091,0,0,1,.5.594l-.616.318a1.026,1.026,0,0,0-.32-.334.751.751,0,0,0-.4-.106.734.734,0,0,0-.5.166.563.563,0,0,0-.187.444q0,.437.821.815l.1.046a2.921,2.921,0,0,1,.987.647,1.179,1.179,0,0,1,.268.79,1.426,1.426,0,0,1-.434,1.094,1.647,1.647,0,0,1-1.172.406,1.7,1.7,0,0,1-1.015-.285A1.331,1.331,0,0,1-232.778-23.2Zm8.149-1.444a1.844,1.844,0,0,0-.134-.7,1.812,1.812,0,0,0-.386-.589,1.708,1.708,0,0,0-.568-.392,1.719,1.719,0,0,0-.68-.137,1.737,1.737,0,0,0-.68.136,1.735,1.735,0,0,0-.575.394,1.754,1.754,0,0,0-.384.586,1.873,1.873,0,0,0-.132.7,1.839,1.839,0,0,0,.132.7,1.8,1.8,0,0,0,.384.586,1.74,1.74,0,0,0,.573.394,1.734,1.734,0,0,0,.682.136,1.705,1.705,0,0,0,.674-.136,1.781,1.781,0,0,0,.574-.394,1.817,1.817,0,0,0,.386-.588A1.823,1.823,0,0,0-224.629-24.646Zm.821,0a2.492,2.492,0,0,1-.194.977,2.481,2.481,0,0,1-.565.821,2.651,2.651,0,0,1-.844.553,2.584,2.584,0,0,1-.987.192,2.619,2.619,0,0,1-1-.194,2.573,2.573,0,0,1-.839-.551,2.468,2.468,0,0,1-.563-.818,2.5,2.5,0,0,1-.192-.98,2.52,2.52,0,0,1,.192-.98,2.494,2.494,0,0,1,.563-.825,2.567,2.567,0,0,1,.841-.55,2.65,2.65,0,0,1,1-.189,2.629,2.629,0,0,1,.992.189,2.573,2.573,0,0,1,.839.55,2.548,2.548,0,0,1,.565.829A2.5,2.5,0,0,1-223.808-24.646Zm-3.056-2.911.629-.9h.745l-.967.9Zm4.748,2.543h.142a1.59,1.59,0,0,0,.831-.146.591.591,0,0,0,.205-.517.659.659,0,0,0-.22-.565,1.448,1.448,0,0,0-.816-.164h-.142Zm-.05.613v2.169h-.738V-27.08h1.1a3.446,3.446,0,0,1,.75.063,1.176,1.176,0,0,1,.455.209,1.152,1.152,0,0,1,.348.454,1.5,1.5,0,0,1,.122.609,1.361,1.361,0,0,1-.281.912,1.239,1.239,0,0,1-.831.4l1.669,2.205h-.891l-1.613-2.169Zm6.95-1.5a2.425,2.425,0,0,0-.707-.427,2.174,2.174,0,0,0-.783-.142,1.728,1.728,0,0,0-1.293.51,1.81,1.81,0,0,0-.5,1.321,1.8,1.8,0,0,0,.485,1.295,1.617,1.617,0,0,0,1.223.51,2.228,2.228,0,0,0,.82-.152,2.6,2.6,0,0,0,.747-.46v.891a2.327,2.327,0,0,1-.692.341,2.8,2.8,0,0,1-.811.113,2.832,2.832,0,0,1-1.028-.182,2.387,2.387,0,0,1-.829-.536,2.384,2.384,0,0,1-.545-.82,2.66,2.66,0,0,1-.19-1,2.635,2.635,0,0,1,.19-1,2.415,2.415,0,0,1,.551-.823,2.429,2.429,0,0,1,.828-.541,2.733,2.733,0,0,1,1.01-.184,2.652,2.652,0,0,1,.815.124,2.853,2.853,0,0,1,.752.376Zm.99,3.669V-27.08h.788v4.848Zm6.07-2.414a1.843,1.843,0,0,0-.134-.7,1.812,1.812,0,0,0-.386-.589,1.708,1.708,0,0,0-.568-.392,1.72,1.72,0,0,0-.68-.137,1.738,1.738,0,0,0-.68.136,1.735,1.735,0,0,0-.575.394,1.754,1.754,0,0,0-.384.586,1.873,1.873,0,0,0-.132.7,1.839,1.839,0,0,0,.132.7,1.8,1.8,0,0,0,.384.586,1.74,1.74,0,0,0,.573.394,1.734,1.734,0,0,0,.682.136,1.705,1.705,0,0,0,.674-.136,1.78,1.78,0,0,0,.574-.394,1.817,1.817,0,0,0,.386-.588A1.822,1.822,0,0,0-208.156-24.646Zm.821,0a2.492,2.492,0,0,1-.194.977,2.48,2.48,0,0,1-.565.821,2.652,2.652,0,0,1-.844.553,2.585,2.585,0,0,1-.987.192,2.619,2.619,0,0,1-1-.194,2.573,2.573,0,0,1-.839-.551,2.468,2.468,0,0,1-.563-.818,2.5,2.5,0,0,1-.192-.98,2.519,2.519,0,0,1,.192-.98,2.494,2.494,0,0,1,.563-.825,2.568,2.568,0,0,1,.841-.55,2.65,2.65,0,0,1,1-.189,2.629,2.629,0,0,1,.992.189,2.572,2.572,0,0,1,.839.55,2.548,2.548,0,0,1,.565.829A2.5,2.5,0,0,1-207.335-24.646Zm2.964,2.414V-27.08h.788v4.848Zm1.921,0v-5.04l3.079,2.964q.126.126.255.268t.272.321V-27.08h.728v5.036l-3.142-3.017q-.126-.123-.243-.258t-.224-.285v3.371Zm7.013-4.179v4.179h-.788v-4.179h-1.288v-.669h3.358v.669Zm1.884,4.179V-27.08h2.705v.669h-1.917V-25.2h1.917v.692h-1.917v1.566h1.917v.705Zm4.4-2.781h.142a1.59,1.59,0,0,0,.831-.146.591.591,0,0,0,.205-.517.659.659,0,0,0-.22-.565,1.448,1.448,0,0,0-.816-.164h-.142Zm-.05.613v2.169h-.738V-27.08h1.1a3.446,3.446,0,0,1,.75.063,1.176,1.176,0,0,1,.455.209,1.153,1.153,0,0,1,.348.454,1.5,1.5,0,0,1,.123.609,1.361,1.361,0,0,1-.281.912,1.239,1.239,0,0,1-.831.4l1.669,2.205h-.891l-1.613-2.169Zm7.013-.225q-.013-.056-.043-.311-.027-.212-.046-.351a2.434,2.434,0,0,1-.084.331,2.824,2.824,0,0,1-.137.338l-1.268,2.583-1.268-2.636q-.079-.162-.137-.315t-.1-.3a3.019,3.019,0,0,1-.025.32,3.421,3.421,0,0,1-.065.349l-.52,2.387h-.725l1.146-5.053,1.43,3.06q.033.073.1.242t.164.417a5.319,5.319,0,0,1,.219-.53q.04-.086.06-.132l1.4-3.056,1.172,5.053h-.732Zm1.878-2.454h.778v2.944a1.411,1.411,0,0,0,.3.985,1.171,1.171,0,0,0,.906.329,1.166,1.166,0,0,0,.9-.329,1.411,1.411,0,0,0,.3-.985V-27.08h.788v3.017a1.979,1.979,0,0,1-.5,1.472,2.055,2.055,0,0,1-1.5.488,2.047,2.047,0,0,1-1.493-.487,1.987,1.987,0,0,1-.493-1.474Zm5.066,4.848v-5.04l3.079,2.964q.126.126.255.268t.272.321V-27.08h.728v5.036l-3.142-3.017q-.126-.123-.243-.258t-.224-.285v3.371Zm5.46,0V-27.08H-169v4.848Zm5.811-3.669a2.426,2.426,0,0,0-.707-.427,2.175,2.175,0,0,0-.783-.142,1.728,1.728,0,0,0-1.293.51,1.81,1.81,0,0,0-.5,1.321,1.8,1.8,0,0,0,.485,1.295,1.617,1.617,0,0,0,1.223.51,2.228,2.228,0,0,0,.82-.152,2.6,2.6,0,0,0,.747-.46v.891a2.326,2.326,0,0,1-.692.341,2.8,2.8,0,0,1-.811.113,2.832,2.832,0,0,1-1.028-.182,2.387,2.387,0,0,1-.829-.536,2.385,2.385,0,0,1-.545-.82,2.66,2.66,0,0,1-.19-1,2.635,2.635,0,0,1,.19-1,2.416,2.416,0,0,1,.551-.823,2.429,2.429,0,0,1,.828-.541,2.733,2.733,0,0,1,1.01-.184,2.652,2.652,0,0,1,.815.124,2.854,2.854,0,0,1,.752.376Zm.99,3.669V-27.08h.788v4.848Zm2.709-2.821h.2a1.791,1.791,0,0,0,.874-.142.555.555,0,0,0,.219-.5.613.613,0,0,0-.233-.546,1.638,1.638,0,0,0-.859-.159h-.2Zm-.05.646v2.175h-.738V-27.08h1.192a3.784,3.784,0,0,1,.78.058,1.211,1.211,0,0,1,.435.19,1.129,1.129,0,0,1,.358.455,1.517,1.517,0,0,1,.129.631,1.551,1.551,0,0,1-.129.636,1.1,1.1,0,0,1-.358.457,1.19,1.19,0,0,1-.435.189,3.892,3.892,0,0,1-.78.056h-.454Zm3.894.272h1.351l-.5-1.106q-.043-.106-.089-.243t-.093-.306q-.04.159-.084.3t-.091.253Zm2.179,1.9-.55-1.248h-1.921l-.563,1.248h-.828l2.348-5.04,2.344,5.04Zm1.288,0V-27.08h.788v4.142h1.762v.705Zm6.023-.712h.662a3.42,3.42,0,0,0,.82-.073,1.2,1.2,0,0,0,.475-.245,1.458,1.458,0,0,0,.412-.584,2.212,2.212,0,0,0,.137-.813,2.212,2.212,0,0,0-.137-.813,1.458,1.458,0,0,0-.412-.584,1.221,1.221,0,0,0-.492-.245,3.975,3.975,0,0,0-.9-.073h-.57Zm-.788.712V-27.08h1.063a6.942,6.942,0,0,1,1.459.1,1.97,1.97,0,0,1,.74.349,2.027,2.027,0,0,1,.637.824,2.879,2.879,0,0,1,.217,1.149,2.843,2.843,0,0,1-.217,1.144,2.059,2.059,0,0,1-.637.823,1.978,1.978,0,0,1-.723.349,5.537,5.537,0,0,1-1.263.1h-1.275Zm5.02,0V-27.08h2.705v.669h-1.917V-25.2h1.917v.692h-1.917v1.566h1.917v.705ZM-243.4-15.064l.629-.291a.867.867,0,0,0,.328.5,1.022,1.022,0,0,0,.609.171.78.78,0,0,0,.558-.2.685.685,0,0,0,.207-.523q0-.427-.709-.762-.1-.05-.152-.073A3.422,3.422,0,0,1-243-16.95a1.159,1.159,0,0,1-.267-.773,1.24,1.24,0,0,1,.4-.96,1.5,1.5,0,0,1,1.055-.368,1.781,1.781,0,0,1,.9.207,1.09,1.09,0,0,1,.5.594l-.616.318a1.027,1.027,0,0,0-.32-.334.751.751,0,0,0-.4-.106.735.735,0,0,0-.5.166.563.563,0,0,0-.187.444q0,.437.821.815l.1.046a2.921,2.921,0,0,1,.987.647,1.179,1.179,0,0,1,.268.79,1.426,1.426,0,0,1-.434,1.094,1.647,1.647,0,0,1-1.172.406,1.7,1.7,0,0,1-1.015-.285A1.331,1.331,0,0,1-243.4-15.064Zm5.023-.934h1.351l-.5-1.106q-.043-.106-.089-.243t-.093-.306q-.04.159-.084.3t-.091.253Zm2.179,1.9-.55-1.248h-1.92l-.563,1.248h-.828l2.348-5.04,2.344,5.04Zm1.268-4.848h.778V-16a1.411,1.411,0,0,0,.3.985,1.171,1.171,0,0,0,.906.329,1.166,1.166,0,0,0,.9-.329,1.411,1.411,0,0,0,.3-.985v-2.944h.788v3.017a1.979,1.979,0,0,1-.5,1.472,2.055,2.055,0,0,1-1.5.488,2.047,2.047,0,0,1-1.493-.487,1.987,1.987,0,0,1-.493-1.474Zm1.52-.477.629-.9h.745l-.967.9Zm4.334,4.613h.662a3.42,3.42,0,0,0,.82-.073,1.2,1.2,0,0,0,.475-.245,1.458,1.458,0,0,0,.412-.584,2.213,2.213,0,0,0,.137-.813,2.213,2.213,0,0,0-.137-.813,1.458,1.458,0,0,0-.412-.584,1.221,1.221,0,0,0-.492-.245,3.974,3.974,0,0,0-.9-.073h-.57Zm-.788.712v-4.848h1.063a6.942,6.942,0,0,1,1.459.1,1.97,1.97,0,0,1,.74.349,2.027,2.027,0,0,1,.637.825,2.879,2.879,0,0,1,.217,1.149,2.843,2.843,0,0,1-.217,1.144,2.059,2.059,0,0,1-.637.823,1.978,1.978,0,0,1-.723.349,5.538,5.538,0,0,1-1.263.1h-1.275Zm5.02,0v-4.848h2.705v.669h-1.917v1.215h1.917v.692h-1.917V-14.8h1.917v.705Zm6.444-.712h.662a3.42,3.42,0,0,0,.82-.073,1.2,1.2,0,0,0,.475-.245,1.458,1.458,0,0,0,.412-.584,2.212,2.212,0,0,0,.137-.813,2.212,2.212,0,0,0-.137-.813,1.458,1.458,0,0,0-.412-.584,1.221,1.221,0,0,0-.492-.245,3.974,3.974,0,0,0-.9-.073h-.57Zm-.788.712v-4.848h1.063a6.942,6.942,0,0,1,1.459.1,1.97,1.97,0,0,1,.74.349,2.027,2.027,0,0,1,.637.825,2.879,2.879,0,0,1,.217,1.149,2.843,2.843,0,0,1-.217,1.144,2.059,2.059,0,0,1-.637.823,1.978,1.978,0,0,1-.724.349,5.537,5.537,0,0,1-1.263.1h-1.275Zm9.169-2.414a1.843,1.843,0,0,0-.134-.7,1.812,1.812,0,0,0-.386-.589,1.707,1.707,0,0,0-.568-.392,1.72,1.72,0,0,0-.68-.137,1.738,1.738,0,0,0-.68.136,1.736,1.736,0,0,0-.574.394,1.755,1.755,0,0,0-.384.586,1.873,1.873,0,0,0-.132.7,1.839,1.839,0,0,0,.132.7,1.8,1.8,0,0,0,.384.586,1.74,1.74,0,0,0,.573.394,1.734,1.734,0,0,0,.682.136,1.706,1.706,0,0,0,.674-.136,1.781,1.781,0,0,0,.574-.394,1.817,1.817,0,0,0,.386-.588A1.822,1.822,0,0,0-210.018-16.508Zm.821,0a2.493,2.493,0,0,1-.194.977,2.481,2.481,0,0,1-.565.821,2.652,2.652,0,0,1-.844.553,2.585,2.585,0,0,1-.987.192,2.619,2.619,0,0,1-1-.194,2.573,2.573,0,0,1-.839-.551,2.468,2.468,0,0,1-.563-.818,2.5,2.5,0,0,1-.192-.98,2.52,2.52,0,0,1,.192-.98,2.494,2.494,0,0,1,.563-.824,2.567,2.567,0,0,1,.841-.55,2.65,2.65,0,0,1,1-.189,2.629,2.629,0,0,1,.992.189,2.572,2.572,0,0,1,.839.55,2.548,2.548,0,0,1,.565.829A2.5,2.5,0,0,1-209.2-16.508Zm7.1,0a1.844,1.844,0,0,0-.134-.7,1.812,1.812,0,0,0-.386-.589,1.708,1.708,0,0,0-.568-.392,1.719,1.719,0,0,0-.68-.137,1.738,1.738,0,0,0-.68.136,1.735,1.735,0,0,0-.574.394,1.753,1.753,0,0,0-.384.586,1.872,1.872,0,0,0-.132.7,1.838,1.838,0,0,0,.132.7,1.8,1.8,0,0,0,.384.586,1.739,1.739,0,0,0,.573.394,1.734,1.734,0,0,0,.682.136,1.705,1.705,0,0,0,.674-.136,1.781,1.781,0,0,0,.574-.394,1.817,1.817,0,0,0,.386-.588A1.823,1.823,0,0,0-202.1-16.508Zm.821,0a2.492,2.492,0,0,1-.194.977,2.48,2.48,0,0,1-.565.821,2.652,2.652,0,0,1-.844.553,2.585,2.585,0,0,1-.987.192,2.619,2.619,0,0,1-1-.194,2.573,2.573,0,0,1-.839-.551,2.468,2.468,0,0,1-.563-.818,2.5,2.5,0,0,1-.192-.98,2.52,2.52,0,0,1,.192-.98,2.494,2.494,0,0,1,.563-.824,2.568,2.568,0,0,1,.841-.55,2.65,2.65,0,0,1,1-.189,2.629,2.629,0,0,1,.992.189,2.572,2.572,0,0,1,.839.55,2.547,2.547,0,0,1,.565.829A2.5,2.5,0,0,1-201.277-16.508Zm.9,2.414v-4.848h2.705v.669h-1.917v1.215h1.917v.692h-1.917V-14.8h1.917v.705Zm3.331-.97.629-.291a.867.867,0,0,0,.328.5,1.022,1.022,0,0,0,.609.171.78.78,0,0,0,.558-.2.685.685,0,0,0,.207-.523q0-.427-.709-.762-.1-.05-.152-.073a3.423,3.423,0,0,1-1.068-.707,1.159,1.159,0,0,1-.267-.773,1.24,1.24,0,0,1,.4-.96,1.5,1.5,0,0,1,1.055-.368,1.781,1.781,0,0,1,.9.207,1.091,1.091,0,0,1,.5.594l-.616.318a1.026,1.026,0,0,0-.32-.334.751.751,0,0,0-.4-.106.735.735,0,0,0-.5.166.563.563,0,0,0-.187.444q0,.437.821.815l.1.046a2.921,2.921,0,0,1,.987.647,1.179,1.179,0,0,1,.268.79,1.426,1.426,0,0,1-.434,1.094,1.647,1.647,0,0,1-1.172.406,1.7,1.7,0,0,1-1.015-.285A1.331,1.331,0,0,1-197.042-15.064Zm5.566-3.209v4.179h-.788v-4.179h-1.288v-.669h3.358v.669Zm1.884,4.179v-4.848h2.705v.669H-188.8v1.215h1.917v.692H-188.8V-14.8h1.917v.705Zm6.444-.712h.662a3.42,3.42,0,0,0,.82-.073,1.2,1.2,0,0,0,.475-.245,1.457,1.457,0,0,0,.412-.584,2.212,2.212,0,0,0,.137-.813,2.212,2.212,0,0,0-.137-.813,1.457,1.457,0,0,0-.412-.584,1.221,1.221,0,0,0-.492-.245,3.975,3.975,0,0,0-.9-.073h-.57Zm-.788.712v-4.848h1.063a6.943,6.943,0,0,1,1.459.1,1.97,1.97,0,0,1,.74.349,2.027,2.027,0,0,1,.637.825,2.879,2.879,0,0,1,.217,1.149,2.843,2.843,0,0,1-.217,1.144,2.059,2.059,0,0,1-.637.823,1.978,1.978,0,0,1-.723.349,5.538,5.538,0,0,1-1.263.1h-1.275Zm9.169-2.414a1.843,1.843,0,0,0-.134-.7,1.812,1.812,0,0,0-.386-.589,1.708,1.708,0,0,0-.568-.392,1.72,1.72,0,0,0-.68-.137,1.738,1.738,0,0,0-.68.136,1.735,1.735,0,0,0-.575.394,1.754,1.754,0,0,0-.384.586,1.873,1.873,0,0,0-.132.7,1.839,1.839,0,0,0,.132.7,1.8,1.8,0,0,0,.384.586,1.74,1.74,0,0,0,.573.394,1.734,1.734,0,0,0,.682.136,1.705,1.705,0,0,0,.674-.136,1.781,1.781,0,0,0,.575-.394,1.816,1.816,0,0,0,.386-.588A1.822,1.822,0,0,0-174.767-16.508Zm.821,0a2.492,2.492,0,0,1-.194.977,2.48,2.48,0,0,1-.565.821,2.651,2.651,0,0,1-.844.553,2.585,2.585,0,0,1-.987.192,2.62,2.62,0,0,1-1-.194,2.573,2.573,0,0,1-.839-.551,2.468,2.468,0,0,1-.563-.818,2.5,2.5,0,0,1-.192-.98,2.519,2.519,0,0,1,.192-.98,2.494,2.494,0,0,1,.563-.824,2.568,2.568,0,0,1,.841-.55,2.65,2.65,0,0,1,1-.189,2.629,2.629,0,0,1,.992.189,2.573,2.573,0,0,1,.839.55,2.547,2.547,0,0,1,.565.829A2.5,2.5,0,0,1-173.946-16.508Zm3.738-.407h.2a1.791,1.791,0,0,0,.874-.142.555.555,0,0,0,.219-.5.613.613,0,0,0-.233-.546,1.638,1.638,0,0,0-.859-.159h-.2Zm-.05.646v2.175H-171v-4.848h1.192a3.783,3.783,0,0,1,.78.058,1.21,1.21,0,0,1,.435.19,1.13,1.13,0,0,1,.358.455,1.517,1.517,0,0,1,.129.631,1.551,1.551,0,0,1-.129.636,1.1,1.1,0,0,1-.358.457,1.189,1.189,0,0,1-.435.189,3.892,3.892,0,0,1-.78.056h-.454Zm3.894.272h1.351l-.5-1.106q-.043-.106-.089-.243t-.093-.306q-.04.159-.084.3t-.091.253Zm2.179,1.9-.55-1.248h-1.921l-.563,1.248h-.828l2.348-5.04,2.344,5.04Zm2.076-2.781h.142a1.59,1.59,0,0,0,.831-.146.591.591,0,0,0,.205-.517.659.659,0,0,0-.22-.565,1.448,1.448,0,0,0-.816-.164h-.142Zm-.05.613v2.169h-.738v-4.848h1.1a3.446,3.446,0,0,1,.75.063,1.177,1.177,0,0,1,.455.209,1.153,1.153,0,0,1,.348.454,1.5,1.5,0,0,1,.123.609,1.361,1.361,0,0,1-.281.912,1.239,1.239,0,0,1-.831.4l1.669,2.205h-.891l-1.613-2.169Zm4.083.265h1.351l-.5-1.106q-.043-.106-.089-.243t-.093-.306q-.04.159-.084.3t-.091.253Zm2.179,1.9-.55-1.248h-1.921l-.563,1.248h-.828l2.348-5.04,2.344,5.04Zm1.288,0v-5.04l3.079,2.964q.126.126.255.268t.272.321v-3.361h.728v5.036l-3.142-3.017q-.126-.123-.243-.258t-.224-.285v3.371Zm6.47-1.9h1.351l-.5-1.106q-.043-.106-.089-.243t-.093-.306q-.04.159-.084.3t-.091.253Zm2.179,1.9-.55-1.248h-1.921l-.563,1.248h-.828l2.348-5.04,2.344,5.04Zm-1.98-5.324.629-.9h.745l-.967.9Z" transform="translate(3825.538 3355.412)"/></g></svg>