<svg xmlns="http://www.w3.org/2000/svg" width="40.169" height="30.455" viewBox="0 0 40.169 30.455"><defs><style>.a{fill:none;stroke:#fff;stroke-miterlimit:10;stroke-width:2px;}</style></defs><g transform="translate(1 1)"><path class="a" d="M79.057,10.615h0A5.066,5.066,0,0,1,74,5.557h0A5.066,5.066,0,0,1,79.057.5h0a5.066,5.066,0,0,1,5.057,5.057h0A5.142,5.142,0,0,1,79.057,10.615Z" transform="translate(-59.973 -0.5)"/><path class="a" d="M79.057,106.715h0A5.066,5.066,0,0,1,74,101.657h0A5.066,5.066,0,0,1,79.057,96.6h0a5.066,5.066,0,0,1,5.057,5.057h0A5.142,5.142,0,0,1,79.057,106.715Z" transform="translate(-59.973 -78.26)"/><path class="a" d="M152.557,106.715h0a5.066,5.066,0,0,1-5.057-5.057h0a5.066,5.066,0,0,1,5.057-5.057h0a5.066,5.066,0,0,1,5.057,5.057h0A5.142,5.142,0,0,1,152.557,106.715Z" transform="translate(-119.445 -78.26)"/><path class="a" d="M5.557,106.715h0A5.066,5.066,0,0,1,.5,101.657h0A5.066,5.066,0,0,1,5.557,96.6h0a5.066,5.066,0,0,1,5.057,5.057h0A5.142,5.142,0,0,1,5.557,106.715Z" transform="translate(-0.5 -78.26)"/><path class="a" d="M27,75.841v-2.5A1.641,1.641,0,0,1,28.641,71.7H53.528a1.641,1.641,0,0,1,1.641,1.641v2.5" transform="translate(-21.943 -58.112)"/><line class="a" y2="2.844" transform="translate(19.142 10.172)"/><line class="a" y2="3.855" transform="translate(19.142 14.485)"/></g></svg>