<svg xmlns="http://www.w3.org/2000/svg" width="56.087" height="50.443" viewBox="0 0 56.087 50.443"><defs><style>.a,.b{fill:none;stroke:red;}.a{stroke-width:4px;}.b{stroke-width:2px;}</style></defs><g transform="translate(-757 -2234)"><g transform="translate(759 2236)"><path class="a" d="M1907.079,1602.066l-2.823-2.822v-37.019a2.245,2.245,0,0,0-2.244-2.245h-40.961a2.791,2.791,0,0,0-2.791,2.791v36.641a7.01,7.01,0,0,0,7.01,7.011h42.084a2.993,2.993,0,0,0,2.993-2.991V1568.45a2.429,2.429,0,0,0-2.429-2.429H1904.8" transform="translate(-1858.26 -1559.98)"/><path class="b" d="M1862.083,1564.633h33.8" transform="translate(-1855.504 -1556.625)"/><path class="b" d="M1875.117,1568.3h11.365" transform="translate(-1846.355 -1554.08)"/><path class="b" d="M1875.117,1571.846h11.365" transform="translate(-1846.355 -1551.562)"/><path class="b" d="M1875.117,1575.51h11.365" transform="translate(-1846.355 -1548.963)"/><path class="b" d="M1875.117,1579.06h11.365" transform="translate(-1846.355 -1546.444)"/><path class="b" d="M1862.083,1582.723h33.8" transform="translate(-1855.504 -1543.896)"/><g transform="translate(6.533 14.056)"><rect class="b" width="18.718" height="18.718"/><rect class="b" width="18.521" height="18.521" transform="translate(0.099 0.099)"/></g></g></g></svg>