<svg xmlns="http://www.w3.org/2000/svg" xmlns:xlink="http://www.w3.org/1999/xlink" width="69.733" height="67.487" viewBox="0 0 69.733 67.487"><defs><style>.a{fill:none;}.b,.c,.d,.e,.g,.h,.i{fill-rule:evenodd;}.c{fill:#158638;}.d{fill:#fa0f0c;}.e{fill:#199dbf;}.f{clip-path:url(#a);}.g{fill:#f7f719;stroke:#f7f719;stroke-width:0.6px;}.g,.h{stroke-miterlimit:22.926;}.h,.i{fill:#fff;}.h{stroke:#000;stroke-width:0.5px;}</style><clipPath id="a"><rect class="a" width="30.773" height="14.065"/></clipPath></defs><path class="b" d="M912.147,542.154a.133.133,0,0,1-.087-.142c.034-.316.439-.316.677-.332a2.3,2.3,0,0,1,.889.1,12.539,12.539,0,0,0-.55-2.248c1.084.765,2.38.633,3.256,1.066a.432.432,0,0,1,.19-.564c-.8-.424-.692-.891-.178-1.379l-.032-.77c-2.525.388-3.916-2.024-4.911-2.942a9.464,9.464,0,0,1,1.608-.488,4.191,4.191,0,0,1-.417-1.533,4.833,4.833,0,0,1,3.463,1.529l-.032-.545c-.536-.145-.616-.544-.385-1.116a.8.8,0,0,1,.316-1.285v-.3a3.706,3.706,0,0,1-3.783-3.739,2.4,2.4,0,0,1,1.332.161,3.663,3.663,0,0,1-.38-1.4,14.325,14.325,0,0,1,2.435.958l.048-.337a1.25,1.25,0,0,1-.275-1.053c-3.749-1.265-2.664-3.17-4-4.754a2.293,2.293,0,0,1,2.359,1.015c.03-.4.077-.818.09-1.2.706.447,1.7.637,2.118,1.341l-.038-1.189c-.526-.072-.864-.218-.533-.934-.281-.393-.334-.743.114-.994-2.933-1.277-3.721-2.881-3.823-4.589.822.151,1.183.774,1.868,1.02a2.51,2.51,0,0,1,.48-1.328,13.711,13.711,0,0,1,1.855,1.573c-.012-.443.016-.865-.036-1.285a1.556,1.556,0,0,1,.151-2.127c-1.06-1.178-.941-2.725-.285-4.44a6.993,6.993,0,0,1,.679,1.174,2.338,2.338,0,0,1,1.061-1.213c.193.168.222.4.38.586a3,3,0,0,1,1.061-1.17,2.957,2.957,0,0,1,0,2.335l.679-.014a5,5,0,0,1-2.94,3.2l-.014.146c.464.645.41.984-.273,1.225a9.738,9.738,0,0,0-.085,1.275,4.063,4.063,0,0,1,3.015-2.189,4.559,4.559,0,0,1-.38,1.919,1.341,1.341,0,0,1,.927-.38c.286.99-1.371,3.979-3.687,3.839a.886.886,0,0,1,.6,1.1l-.011.035c.345.722.164.985-.38,1.028l-.007,1.158c1.2-1.807,2.512-2.677,3.786-2.771-.375.573-.23,1.42-.425,2.132a13.875,13.875,0,0,1,1.607-.028,2.35,2.35,0,0,1-.588.94c.311.214,1,.3,1.444.605-1.369.284-1.107,2.486-5.052,1.9-.316-.015-.5.311-.622.486.691.461.967.919.463,1.626.19.659.063.979-.412.961l.1,1.312c1.036-2.425,2.421-2.8,4.155-1.941l-.876,1.409a2.149,2.149,0,0,1,1.6.352,5.081,5.081,0,0,0,.822.627,4.279,4.279,0,0,0-.929.354,4.192,4.192,0,0,1-3.789.458,5.266,5.266,0,0,1-.949.424c.35.266.564.476.54.759.4.342.289.7-.081,1.063a.949.949,0,0,1-.426,1.159l.033.623c1.1-2.91,2.9-2.478,4.065-3.013a6.026,6.026,0,0,1-1.576,3.732,5.649,5.649,0,0,1,3.329.779c-1.971.577-3.186,2.393-5.391,1.846a.979.979,0,0,0-.063.724c.641-.132.865.34.853,1.153a.823.823,0,0,1,.138.862c.659.485.539.893.2,1.281a3.044,3.044,0,0,1,.525.787,8.69,8.69,0,0,1,2.418-5.145,5.415,5.415,0,0,1,.683,3.1c.792-.807,1.822-.834,2.443-1.265-.493,1.718-.383,3.9-2.1,5.354a18.282,18.282,0,0,1-10.062-2.45Zm42.256,1.9a7.384,7.384,0,0,1,1-5.033c.719,1.034,2.258,1.93,2.583,2.989a10.085,10.085,0,0,1,1.953-3.256l.362.38a5.575,5.575,0,0,0,.333-1.538c-3.739-.749-2.191-4.327-2.683-6.222a3.293,3.293,0,0,1,2.582,1.345,3.185,3.185,0,0,1,1.321-2.24l-.047-1.288c-2.352.19-3.026-1.538-3.229-3.807a3.216,3.216,0,0,1,2.841-.395,2.118,2.118,0,0,1,.479-1.708l-.016-1.778c-3.19.975-3.548-1.708-3.5-4.909a17.046,17.046,0,0,1,2.3,1.151,4.217,4.217,0,0,1,.743-2.952l-.087-1.041c-2.584.2-2.72-2.077-3.3-3.117,1.075.32,1.931-.638,3.222.958l-.332-1.786c-1.483.356-2.375-.559-2.826-2.254a3.466,3.466,0,0,1,2.6.2l-.111-.6c-1.195-.557-1.763-1.618-.6-4.072,1.507.9,2.27,2.052.975,3.931l.19,1.225c.488-1.61,2.138-1.265,2.835-2.122.208,2.442-.154,3.732-2.535,3.554l.233,1.878a3.545,3.545,0,0,1,2.953-1.578c.135,1.917-.273,3.474-2.787,3.669l.1.862a3.444,3.444,0,0,1,.864,1.94c.889-.5,1.994-.594,2.829-1.075-.954,2.015-.016,5.5-3.2,5.84l-.051,1.749a2.241,2.241,0,0,1,1.047,2.251,4.468,4.468,0,0,1,2.287-.235c-.19,2.737-1.285,4.071-3.251,4.123l-.075,1.392a5.045,5.045,0,0,1,1.053,3.562,2.836,2.836,0,0,1,2.49.715c-1.693,3.437-3.315,4.628-4.853,3.163a7.12,7.12,0,0,1-.371,1.978l.428,1.373a8.333,8.333,0,0,1,4.681-2.158,4.237,4.237,0,0,1-2.282,3.8l-9.162,1.125Z" transform="translate(-904.166 -489.749)"/><path class="c" d="M916.348,514.554a16.77,16.77,0,0,1-.225-1.749c-.033-.18.059-.249.2-.156s.168.249.166-.013a1.018,1.018,0,0,0-.063-.336c-.173-.492-.247-.447-.392.027a3.1,3.1,0,0,0,.316,2.226Zm.578-.723c.025-.141.056-.335.075-.512a2.684,2.684,0,0,1,0-.434c.018-.04.058-.033.143.033s.089.07.118-.043c.049-.19-.063-.479-.022-.585.022-.053.118-.046.214.019a.365.365,0,0,1,.092.316c.286.121-.166.533-.217.815-.017.08.055.089.075,0,.1-.237.405-.178.15.13a1.808,1.808,0,0,0-.367.5c-.127.259-.3.71.059.266a2.559,2.559,0,0,0,.576-1.347,2.1,2.1,0,0,0,.012-.872c-.111-.535-.181-.555-.519-.127a2.86,2.86,0,0,0-.56,1.842c.015.678.08.536.176,0Zm1.46-1.81a.6.6,0,0,1,.141-.245c.126-.363.345-.46.309-.149l-.119.454c-.058.218,0,.048.127.013s.12.118-.039.253a1.677,1.677,0,0,0-.384.618c-.033.127.012.158.225-.03a2.768,2.768,0,0,0,.45-1.8c-.018-.127-.151-.087-.242-.02a1.233,1.233,0,0,0-.54.931c-.016.526-.008.242.073-.02Zm-.738,2.357a2.758,2.758,0,0,1,1.34-1.075c.114-.063.178,0,.1.142a2.675,2.675,0,0,1-.653.907c-.2.186-.093.126-.089-.007a.131.131,0,0,0-.063-.109c-.042-.046-.034-.092.023-.127.333-.362.116-.413-.063-.249a5.038,5.038,0,0,1-.6.521Zm.347.257c-.113.006-.229.008-.28.083a1.009,1.009,0,0,0-.264.2c-.158.175-.142.183.063.1a1.884,1.884,0,0,0,.519-.29c.2-.158.154-.112-.04-.1Zm-3.782,5.951c.371.113-.01-.2-.047-.316-.055-.166-.121-.35-.361-.345-.389.009-.158-.22-.242-.338-.055-.092-.316-.2-.38-.261-.111-.109-.26-.83.185-.394.047.046.185.358.185.089,0-.427.26.3.269.365.028.121.167.21.1.017a1.174,1.174,0,0,0-.232-.543,2.619,2.619,0,0,0-.918-.621c-.305-.1.027.538.027.633,0,.38.538.648.538.908a3.589,3.589,0,0,0,.872.807Zm1.784.862c.223-.117-.242-.638-.372-.672s-.232-.172-.344-.244c-.455-.3.391-.009.353-.12a1.14,1.14,0,0,0-.483-.409c-.063-.017-.279-.087-.279-.171,0-.261.436.195.436-.047,0-.2-.288-.236-.436-.326s-.38-.2-.38-.41c0-.111.437.149.474.157.075.017.056-.085.056-.151,0-.1.168.034.168-.032,0-.466.253-.462.253-.005a5.484,5.484,0,0,0,.084.759,2.251,2.251,0,0,1,.186.294c.019.063-.056-.409-.056-.521,0-.075-.028-.512.121-.469s.2.769.2.927.214.7.214.536a3.509,3.509,0,0,0-.063-1.023,2.4,2.4,0,0,0-.168-.536c-.084-.126-.316-.328-.353-.4-.1-.054-1.106-.886-1.106-.6s-.093.654-.093.962a2.689,2.689,0,0,0,1.59,2.5Zm.617-1.075c-.089-.215.118-.8.168-.97a2.477,2.477,0,0,1,.394-.956,6.447,6.447,0,0,1,1.241-1.172,2.232,2.232,0,0,1,.6-.316c.236-.005-.463,1.471-.532,1.679a5.769,5.769,0,0,1-.493.86c-.118.121-.591.743-.67.706-.078.278-.345.422-.483.642-.2.31-.01-.237.049-.326.227-.35.561-.6.8-.975.079-.13.126-.368-.118-.2-.118.082-.158.253-.3.342-.414.285.2-.39.276-.47.02-.02.749-.48.306-.471-.384.009.039-.3.127-.388.19-.19.1-.515-.04-.3-.029.05-.384.413-.266.223.078-.13-.069-.295-.19-.1a4.379,4.379,0,0,0-.126.683c-.02.08-.02.19-.1.239-.127.092-.049-.345-.3-.092-.109.111-.03.474-.089.653a1.732,1.732,0,0,1-.266.726Zm.749.418c-.039-.088.345-.472.414-.582a8.6,8.6,0,0,1,1.063-1.084c.1-.1.316-.372.483-.376s.276-.361.276-.016a3.252,3.252,0,0,1-1.192,1.771,5.434,5.434,0,0,0-.71.43c-.207.143-.493.208-.118-.047a2.306,2.306,0,0,1,.5-.278,1.459,1.459,0,0,0,.463-.3c.009-.049-.2-.055-.127-.106.247-.164.581-.161.463-.514-.03-.089.089-.2-.079-.2-.079,0-.137.171-.137-.036,0-.127-.276.036-.276.233a2.27,2.27,0,0,1-1.025,1.089Zm-2.553,6.932c.04-.292-.5-.6-.742-.677-.111-.028-.361-.123-.321-.264.02-.081.13,0,.19,0,.13,0-.35-.506-.431-.523a1.255,1.255,0,0,1-.331-.224c-.063-.119.281-.016.29-.027a4.524,4.524,0,0,0-.24-.506c-.07-.069-.01-.2.06-.1s.321.364.341.435c.04.127.18.307.18.1,0-.261.13-.133.211-.014.04.059.1.53.13.633.01.05.331.5.331.345a7.086,7.086,0,0,0-.19-.759,7.322,7.322,0,0,1-.331-.706c-.15-.087-.4-.594-.591-.68-.17-.077-1.153-.8-.8-.093a5.5,5.5,0,0,1,.3.817,3.347,3.347,0,0,0,.633,1.342,3.054,3.054,0,0,0,.612.589l.38.233a.372.372,0,0,0,.16.047c.051,0,.161.067.161.047Zm-.11-2.148c0-.13-.05-1.075.13-1.018a2.593,2.593,0,0,1,1.635,1.662,2.7,2.7,0,0,1,.09,1.113c-.089.184.13.911-.2.427a2.071,2.071,0,0,1-.2-.759c0-.14.2-.677-.09-.671-.12,0-.07.775-.253.236-.06-.179.07-.494,0-.643-.03-.07.09-.535-.13-.53-.12,0-.12.244-.13.194a.7.7,0,0,0-.461-.412c-.211-.063.3.787.371.886a2.1,2.1,0,0,1,.14.448c0,.242-.03,0-.19-.046-.09-.029-.491,0-.271.106a1.43,1.43,0,0,1,.682.548c.331.485.03.2-.171.144-.29-.084-.411.13-.18.195.2.056.35.283.531.34a.444.444,0,0,1,.253.366c0,.127-.455-.063-.607-.17a2.471,2.471,0,0,1-.806-1.245,6.766,6.766,0,0,1-.14-1.172Zm2.147.269c-.072-.536,1.414-2.21,1.858-2.519a5.1,5.1,0,0,1,1.218-.688c.093-.033-.072.487-.072.517a5.389,5.389,0,0,1-.826,2.134,3.675,3.675,0,0,1-.753.843,3.757,3.757,0,0,1-.836.71c-.268.14-.6.612-.38-.043.135-.426,1.084-.839,1.455-1.1.454-.309.051-.259-.144-.253-.454.01.063.04.154-.253.073-.229,1.012-.755.929-1-.041-.133-.5.145-.516.207a1.556,1.556,0,0,0,.206-.366c.031-.114.093-.993-.2-.7a3.8,3.8,0,0,0-.145.8c0,.217-.3.461-.443.681-.041.063-.227.294-.227.087,0-.443-.207-.914-.207-.171,0,.165.021.34.021.5,0,.35-.692.822-.423.278.051-.1-.134-.575-.237-.243a5.53,5.53,0,0,0-.083.848c0,.64-.516-.154-.35-.271Zm1.745.7a10.776,10.776,0,0,0,1.042-.622c.289-.2.475-.557.733-.728.1-.075.547-.59.38-.586a1.178,1.178,0,0,0-.633.127,2.357,2.357,0,0,0-.5.362c-.072.074-.319.38-.113.374.126,0,.536-.817.6-.633.01.041.072.267.134.266.268-.006-.072.26-.247.263-.217.005-.031.249-.268.253-.216.005-.443.33-.589.426a2.275,2.275,0,0,0-.32.223c-.052.053-.207.273-.227.274Zm1.026-.337c.359-.341,1.121-.837,1.392-.667.144.09.65.027.753.231,0,0,.186.1.072.1a.942.942,0,0,0-.38.175c-.321.19-.682.5-.911.655-.29.2-.733.64-1.187.65a3.36,3.36,0,0,1-1.012.054c-.126-.039-.31.006-.433-.032-.372-.116.465-.31.65-.19.413.269.362-.194.589-.2.155,0,.569.091.712-.005.279-.19-.361-.24-.144-.316.351-.121.785.147,1.012-.208.052-.073-.237-.263.01-.268.392-.009.341-.4.052-.249a1.164,1.164,0,0,0-.268.161c-.186.19-.2-.037-.155-.162.135-.416-.249.025-.33.152a1.484,1.484,0,0,1-.349.31c-.278.08-.443.165-.07-.19Zm-3.877,7.249c-.263.177-1.163-.123-1.414-.369-.159-.156-.388-.288-.468-.526a.628.628,0,0,0-.194-.259c-.12-.134-1.044-1.961-.206-1.455a.69.69,0,0,0,.3.03.735.735,0,0,1,.423.216c.206.2.364.749.559.833a6.07,6.07,0,0,1,.456.756c.021.047.1.066.115.123s-.331-.164-.376-.311-.16-.168-.206-.326c-.034-.114-.308-.5-.38-.289-.046.138.023.171-.137.015-.045-.045-.331-.142-.331-.19.126-.4-.456-.264-.24-.052a5.052,5.052,0,0,1,.433.436c0,.057-.228.016-.228.016-.285-.085.022.219.057.228.09.023.8.085.718.247-.04.082-.605-.022-.627.025-.114.242.719.282.855.324a.93.93,0,0,1,.432.237c.03.031.038.1.07.127a1.669,1.669,0,0,0,.388.163Zm.334-.537a1.969,1.969,0,0,1-.512-.468c-.159-.24-.511-.517-.587-.751-.042-.127-.176-.29-.218-.424s-.127-.123-.159-.19c-.017-.034-.042-.227-.084-.225a5.431,5.431,0,0,1-.344-1.026c.092-.288,1.568.41,1.761.6a2.892,2.892,0,0,1,.528,1.433c0,.067.034,1.455-.051,1.185a2.838,2.838,0,0,1-.2-1.079c0-.177.016-1.143-.218-.424-.311.956-.051-1.209-.386-1.092-.176.063-.109.675-.276.166a1.437,1.437,0,0,0-.118-.257c-.327-.211-.185.289-.151.4s.243.305-.1.086c-.143-.089-.361.075-.235.2s.7.22.7.438c0,.059.168.13.168.257,0,.193.31.3-.025.194-.495-.149-.058.279.126.333.109.031.176.265.227.316s.134.325.159.333Zm1.153-.376c.458-.7.629-1.645,1.428-2.2.469-.32,1.535-.621,1.993-.172.085.084-.2.228-.235.325a2.442,2.442,0,0,1-.9,1.053,1.851,1.851,0,0,0-.429.365c-.3.456-1.012.643-1.418.917-.084.057-.633.205-.522.127a6.6,6.6,0,0,1,.822-.487c.1-.05.375-.079.412-.116.2-.208-.288-.292-.085-.362.15-.052.154-.19.253-.288a1.078,1.078,0,0,1,.739-.331c.139,0,.321-.147.139-.227-.247-.109.224-.5.4-.682.267-.273-.266-.165-.352.1-.022.086-.523.535-.437.266.224-.677-.085-.447-.235.016a3,3,0,0,1-.437.746c-.085.13-.171.035-.126-.093.2-.614-.224-.156-.224.253a.992.992,0,0,1-.789.786Zm1.261.329c0-.732,1.564.249,1.455-.08-.149-.454-.008-.1.26-.021.573.176.165-.24.361-.245.5-.011,1.108-.591.275-.407-.127.027-.432.12-.573.17-.259.092-.416-.063-.173-.067.519-.011.479-.672.008-.347-.094.063-.856.476-.731.284.259-.4,1.186-.38,1.587-.326.173.02,1.132.479.778.6-.283.1-.519.24-.8.341a4.571,4.571,0,0,1-1.225.2,2.709,2.709,0,0,1-.62.006c-.055-.015-.6-.113-.6-.113Zm-1.842,7.6c-.388.4-2.167-.633-2.492-.731a3.877,3.877,0,0,1-1.012-.848,3.3,3.3,0,0,1-.471-.569c-.168-.342-.24-.215.094-.443.722-.016.974-.221,1.319.474a4.846,4.846,0,0,0,.931.871c.147.039.345.253.534.316.23.068.23.226-.094.127a2.756,2.756,0,0,1-.827-.633c-.063-.208-.733-.506-.4,0,.127.2-.481-.293-.534-.345-.147-.144-.607-.291-.3.006a6.509,6.509,0,0,0,1.162.782c.073.051.408.127.073.135-.7.015,1.466.471.974.481s.1.144.316.14a1.84,1.84,0,0,1,.732.235Zm-.19-.832a4.381,4.381,0,0,1-2.087-1.427,3.639,3.639,0,0,1-.969-1.771c0-.368,1.425.211,1.657.283a1.782,1.782,0,0,1,1.173,1.022l.253.624a2.2,2.2,0,0,1,.019.669c0,.087-.32-.866-.38-.981-.029-.057.02-.185.02-.253,0-.155-.262-.111-.262.171,0,.484-.514-.253-.552-.385-.029-.087-.436-.815-.436-.494,0,.465-.253-.082-.253.354,0,.213-.155.032-.417.127-.369.127.242.208.368.206a1.051,1.051,0,0,1,.9.569c.058.173-.591-.209-.475.156.048.144.495.2.633.238.087.027.436.185.407.272-.019.059-.261.006-.29.075-.068.147.979.308.688.547Zm.575-.165a5.282,5.282,0,0,1,.808-2.829c.356-.363.42-.785.949-1.055a3.345,3.345,0,0,1,1.249-.5c.6-.013.818-.18.4.465a7.423,7.423,0,0,0-.409,1.012,5.539,5.539,0,0,1-1.392,1.905,7.733,7.733,0,0,0-.886.774c-.42.43-.3-.026-.054-.19s.5-.431.765-.621c.063-.044.2-.166.151-.283-.076-.16-.561.282-.248-.19.14-.219,1.075-.929,1.075-.994,0-.237-.323-.025-.443.01-.431.15.593-.759.2-.748-.063,0-.183.123-.193.177,0,.011.043-.184.054-.195.161-.165-.216-.674-.313-.176a4.083,4.083,0,0,0-.1.788,1.284,1.284,0,0,1-.313.729c-.443.677.183-.327-.312-.316-.183,0-.118.735-.151.855a3.407,3.407,0,0,1-.226.727c-.063.109-.334-.908-.334-.262,0,.14-.01,1.075-.29.922Zm.361.614a6,6,0,0,1,1.911-1.436,4.284,4.284,0,0,1,2.262.08c.424.126.1.17-.144.415a5.06,5.06,0,0,1-3.159,1.044c-.267-.083-.281-.015.034-.127.336-.118.925.034,1.192-.239s-.85-.119-.253-.331a3.45,3.45,0,0,1,1.1-.121c.576-.013-.068-.273.206-.279.329-.008.521-.287.151-.278a1.971,1.971,0,0,0-.768.113c-.692.269.316-.5-.384-.253-.164.058-.4.537-.651.667-.116.058-.466.285-.233-.077s-.493.279-.506.334c-.075.228-.213.253-.38.366a1.937,1.937,0,0,1-.384.118Zm-1.3,6.014a12.851,12.851,0,0,0-1.724-.668c-.174-.054-.671-.176-.763-.316-.166-.245.042-.225.34-.132.49.147,1.161.041,1.666.2a21.334,21.334,0,0,1,2.967,1.006c.166.079.912.511.431.522a2.49,2.49,0,0,1-1.542-.854c-.063-.063-.506-.288-.555-.121-.042.142.364.216.406.357.016.057.39.307.323.342-.456.234-1.293-.645-1.567-.729-.126-.039-.2-.236-.348-.233-.622.014.364.648.364.633Zm.435-1.122c-.416-.127-2.042-.253-2.042-.643a5.13,5.13,0,0,0-.118-.867c-.135-.206,1.7.352,1.907.347.524-.012,1.139.708,1.564.8a3.458,3.458,0,0,1,.958,1c.135.269-.759-.282-.858-.434a3.074,3.074,0,0,0-.849-.732,2.289,2.289,0,0,1-.434-.244c-.371-.236-.416.172.027.307.117.034.741.473.38.363a4.623,4.623,0,0,1-1.256-.733c-.117-.359-.759-.536-.587-.286.109.17-.226.476.1.469.154,0-.443.091-.352.225a5.663,5.663,0,0,0,.84.054,3.387,3.387,0,0,1,.723.372Zm3.139,1.16a4.248,4.248,0,0,1-.028-.74,3.121,3.121,0,0,1,.136-.6,8.357,8.357,0,0,1,1.048-2.563,9.112,9.112,0,0,0,.569-.813c.216-.461.316.368.391,1.347.031.413.014.832.07,1.225a5,5,0,0,1-.489,2.063c-.434.848-1.026.99-.907.6a3.644,3.644,0,0,1,.485-.781c.056-.087.225-.218.26-.338.071-.215.071-.617-.178-.233s-.035-.26-.035-.307c0-.426.443-.814.569-1.221.028-.091-.029-.271-.3-.029-.063.057-.023-.347-.023-.533s.01-1-.166-.458a5.189,5.189,0,0,0-.14,1.058,6.892,6.892,0,0,1-.262,1.116c-.04.126-.213-.295-.263-.4-.09-.186-.193-.232-.233-.178-.059.078.043.321.162.565a1.489,1.489,0,0,1,.127.407,1.124,1.124,0,0,1-.1.72c-.049.049-.144-.154-.294-.38-.063-.092-.2-.1-.2.057,0,.19.412.547.29.923-.1.3-.418.393-.494-.5Zm1.737.584c.039-.27.393-.614.393-.874a7.166,7.166,0,0,1,.259-.812c.127-.387.087-1.308.49-1.413.221-.053,1.508-.949,1.508-.648,0,1.345-.778,4.023-2.238,4.055-.413.009.692-.563.855-.672.461-.316-.039-.393-.384-.154-.019.01.356-.45.413-.569a5.209,5.209,0,0,1,.817-.9c.106-.108.259-.476-.048-.316-.019.01-.528.339-.451.337.048-.27.393-.585.48-.866.135-.406-.221-.158-.307.122-.115.367-.115-.295-.144-.323-.374-.366-.269.745-.269.928a3.947,3.947,0,0,1-.327.759l-.01-.307c0-.307-.269-.148-.269.083a2.41,2.41,0,0,1-.115.924,7.681,7.681,0,0,1-.653.648Z" transform="translate(-904.59 -492.676)"/><path class="c" d="M985.746,506.983c-.465.011-.666-.583-.666-.979,0-.2-.049-.437-.049-.638,0-.236.063-.37.063-.614a1.81,1.81,0,0,0,.18-.664c0-.6.645.521.686.61a1.811,1.811,0,0,1,.354.958,2.808,2.808,0,0,1-.19.908c-.027.084-.236.395-.236.13a3.553,3.553,0,0,1,.25-.812c.215-.547-.292-.083-.292-.466,0-.19-.159-.443-.132-.56.146-.587-.264-.523-.264.006,0,.271-.153.136-.19.247-.028.084.257.481.3.633s.07.633-.042.293c-.027-.09-.316-.222-.316-.083s.354.367.354.485c0,.09.194.079.194.211s-.166.261-.014.334Zm.014,2.669c-.073-.028-1.069-.015-.506-.253.215-.089.034-.1-.117-.149-.225-.068-.454-.19-.674-.259-.176-.055-.3-.409-.044-.332.2.06.376.29.376.07,0-.054-.034-.146-.034-.224,0-.054.073-.158.146-.087.092.091.126.354.239.464.044.043.078.175.151.2.2.059-.068-.282-.068-.3,0-.538.44.206.44.3a.537.537,0,0,0,.316.3c.014,0-.005-.127-.009-.151-.054-.287-.479-.972-.855-.964-.054,0-.42-.1-.488-.121a1.932,1.932,0,0,0-.537-.018c-.039,0-.513.06-.249.142.005,0,.054.233.083.3a6.341,6.341,0,0,0,.742.967,1.32,1.32,0,0,0,.569.256c.152,0,.3-.031.435-.034s.225-.093.078-.1Zm1.161-.343c.011-.029-.116-.175-.077-.3.159-.49.149-1.058.723-1.314a6.432,6.432,0,0,0,.822-.333,1.94,1.94,0,0,1,.325-.041c.028,0,.006.232.006.292,0,1.039-.309,1.78-1.461,1.805-.243.005.712-.247.734-.259.072-.051.281-.19.077-.253-.071-.02-.325,0-.359-.047-.1-.147.408-.434.524-.436.083,0,.248.011.3-.046.165-.17-.126-.334-.248-.249-.259.177-.072-.081-.072-.19,0-.238-.19.054-.21.126-.055.166-.121-.185-.132-.2-.132-.127-.182.435-.2.485-.049.161-.016.343-.1.09-.16-.488-.353.848-.656.865Zm-.537,4.27c.063-.045-.364-.243-.427-.273-.127-.06-.3.126-.465.073-.316-.094.157-.217.1-.3-.106-.161-.8-.29-.741-.473.069-.215.088-.115-.019-.326-.013-.031-.132-.079-.164-.109-.113-.111-.427-.474.019-.34.151.047.145.1.253.164.038.025-.006-.194.069-.2.276-.006.345.846.633.935.05.011.1.117.163.134.139.041-.276-.616-.013-.622.195,0,.245.4.316.5.088.126.044.281.245.277.025,0,0-.144,0-.144,0-.169-.389-.991-.578-.986a1.83,1.83,0,0,0-1.232-.526c-.364.008-.767-.19-.6.3.05.163.308.383.371.583a1.656,1.656,0,0,0,.3.477c.232.146.459.536.71.612.151.047.289.176.478.172a1.919,1.919,0,0,1,.584.068Zm.715-.417c-.2-.2.357-1.461.574-1.63a3.861,3.861,0,0,1,.732-.471c.284-.109.759-.077.967-.221.085-.056.109.555.109.651a1.754,1.754,0,0,1-.719,1.342,2.684,2.684,0,0,1-1.252.464c-.23.005.163-.664.417-.669.121,0,.429-.082.466-.2.054-.177-.224-.1-.29-.163-.048-.047.248-.193.3-.194.1,0,.759.074.759-.077a1.054,1.054,0,0,1,.073-.541c.211-.641-.544.266-.641.3-.218.077-.169-.027-.073-.174.242-.369-.363-.156-.363.075,0,.3-.206.241-.326.426-.19.289-.411-.094-.411.354a1.329,1.329,0,0,1-.321.734Zm-.24,8.254a2.473,2.473,0,0,1-.565.157,1.993,1.993,0,0,1-1.5-.812,1.084,1.084,0,0,0-.163-.371c-.355-.232-.479-.921-.613-1.321a4.458,4.458,0,0,0-.058-1.189c-.086-.443.759.1.91.143a1.733,1.733,0,0,1,1.428,1.342,4.845,4.845,0,0,1,.288.9c.029.24.268.522.268.743,0,.144-.479-.3-.527-.392a1.7,1.7,0,0,1-.058-.623c0-.393-.335-.108-.211.139.058.114.009.126-.087.059-.528-.343-.2-.755-.393-1.23-.106-.257-.19.033-.19.168,0,.5-.172-.034-.316-.243a.276.276,0,0,0-.307-.166c-.127,0,.038.268.038.316,0,.01-.249-.09-.316-.089-.278.006.24.341.383.338.249-.006.345.232.489.373s.067.344-.153.2c-.144-.093-.364.114-.1.175.422.1,1.573.878.566.9-.506.011.307.156.5.152a1.575,1.575,0,0,1,.681.331Zm.056-1.724c-.04-.258-.316-.7-.316-.889,0-.249-.169-.176-.229-.293-.049-.1-.02-.288-.049-.4-.127-.4.467.289.316-.157s-.38-.679-.269-1.249c.02-.13.328-1.193.328-.675a12.678,12.678,0,0,0,.1,2.129,4.621,4.621,0,0,1,.159.913c-.02.07.02.617-.04.618Zm.38-1.9c0-.249-.139-.933-.01-1.125.1-.161.127-.261-.03-.357a.277.277,0,0,1-.069-.307c.04-.08-.02-.228,0-.3.05-.161.169.395.169.424,0,.119.127.186.127.366,0,.1.109.217.109.346,0,.289-.01.827-.3.953Zm.172,3.028c-.2-.127-.047-1.258-.047-1.512a5.08,5.08,0,0,1,.443-1.683c.14-.426.985-.877,1.388-1.018.1-.03.807-.159.891-.076a22.2,22.2,0,0,1-.506,2.634c0,.968-.807,1.333-1.482,1.8-.1.068-.347.1-.347-.049,0-.263.61-.484.7-.759.084-.253.732-.506.732-.777,0-.113-.347.092-.366.1-.084.058-.657.663-.657.513a8.063,8.063,0,0,1,.526-1.645,3.469,3.469,0,0,1,.7-.269c.2,0,.413-.4.235-.4s-.328.242-.526.246c-.15,0,.413-.535.413-.827,0-.376-.629.456-.657.55s-.544.782-.413.385c.028-.094.047-.565-.15-.5-.253.09-.132,1.075-.132,1.291a1.84,1.84,0,0,1-.235.936c-.009.01,0-.3-.009-.338-.037-.131-.075-.5-.29-.492-.19,0,.019.827.019.968,0,.245.028.751-.216.916Zm-.5,8.109c-.879.4-1.741-.312-2.151-.918-.2-.3-.8-1.794-.614-2.184.171-.277.9-.157,1.168-.248,1.006-.356,1.049.652,1.459,1.053a8.522,8.522,0,0,1,.281,1.729c0,.65-.392-.752-.435-.836-.06-.118-.2-.055-.239.056a2.371,2.371,0,0,0,.034.6c.017.068-.537-.245-.537-.706,0-.068.042-.471.025-.488-.2-.19-.213.313-.341.127s-.051-.717-.051-.965c0-.274-.4-.034-.4.18,0,.393-.368-.232-.368.136,0,.12.538.27.538.356,0,.017.119.527.017.5-.145-.039-.264-.216-.443-.213-.506.011,1.476,1.1.862,1.109-.376.008-.537.354-.034.342a1.975,1.975,0,0,1,.75.069c.094.04.461.3.478.305Zm.22-2.432c0-.24-.183-.4-.183-.64,0-.316-.176-.7-.082-1,.038-.115.107-.274.132-.388.114-.464.221.008.158.211-.057.178-.233.138-.183.316l.12.421a2.539,2.539,0,0,1,.038,1.086Zm.479-1.919a2.088,2.088,0,0,0,0-.524c-.031-.132-.094-.7.025-.33.176.54.605,1,.605,1.63a.958.958,0,0,1-.1.552c-.151.231-.549.569-.221.063.082-.127.321-.431.031-.424-.176,0-.271.493-.341.242a1.508,1.508,0,0,1,.164-.857,1.154,1.154,0,0,0,.107-.38c0-.19-.221.042-.271.031Zm-.134,3.867a2.765,2.765,0,0,1,1.054-2.3,2.44,2.44,0,0,1,1.354-.4c.693-.015.482-.29.482.532a5.537,5.537,0,0,1-.9,1.957,2.041,2.041,0,0,1-1.573.593c-.361.008.233-.186.346-.19a.918.918,0,0,0,.286-.051c.376-.127-.023-.271-.263-.266-.287.006-.3.044-.1-.269.233-.352.963-.345,1.1-.552.075-.115-.253-.183-.346-.18-.008,0,.391-.084.549-.14.008,0,.474-.206.286-.2-.542.012.008-.249-.053-.443-.03-.105-.85.486-.662.158.324-.55-.226-.7-.226.02a1.237,1.237,0,0,1-.135.471c-.384.264-.324.158-.324-.19,0-.249-.18-.35-.263-.085-.075.243.008.655-.083.937a1.874,1.874,0,0,1-.165.4c-.09.137-.376.19-.369.2Zm-1.834,8.926c-1.367.03-1.928-1.491-1.928-2.649a7.119,7.119,0,0,0-.117-1.648,2.6,2.6,0,0,1-.035-.678c0-.293,2.173.569,2.173,1.356,0,.19.362.777.362,1.092l-.023,1.253c0,.164-.012.363-.012.515,0,.126.023.409-.14.46-.106.037-.023-.386-.023-.421a4.106,4.106,0,0,0-.023-.854c-.07-.209-.292.662-.257.79.07.233-.245-.135-.245-.44,0-.257-.126-.395-.011-.749a.583.583,0,0,0,.047-.34c-.047-.139-.234.181-.269.17-.269-.076-.245-1.048-.175-1.284.094-.306-.233-.217-.233.017,0,.269-.385-.316-.561-.491-.385-.38.094.583.023.561-.385-.12-.689-.137-.126.132.269.123,1.051,1.241.643,1.121a2.518,2.518,0,0,1-.538-.269c-.047-.022-.2-.042-.2.051,0,.127.783.369.876.66.082.253.233.206.233.58,0,.164-.292.135-.421.1-.327-.1.526.374.526.374.3.19.28.427.456.587Zm.89-2.711a2.964,2.964,0,0,1-.263-.983c0-.5-.122-1.4.263-1.795.084-.087.46-.547.347-.073-.056.227-.019.414-.075.388-.159-.071-.216-.2-.216.137,0,.245.291.493.178.8a2.137,2.137,0,0,0-.063.369c0,.037-.122-.289-.179-.373-.244-.362-.113.436-.056.547a4.418,4.418,0,0,1,.063.987Zm.817-1.958c.038-.151.1-1.265.141-1.284.075-.039.16.373.179.43.1.309.45.6.45,1.006,0,.433.32,1.678-.159,1.849a3.8,3.8,0,0,0-.6.455c-.047.029-.488.416-.366.225a3.422,3.422,0,0,0,.316-.554c.063-.2.817-.6.132-.586-.207,0-.316.543-.316.035a3.913,3.913,0,0,1,.263-1.154c.047-.142.253-.288.31-.459.075-.237-.272.053-.347.035Zm-.816,4.74c-.152,0,.466-1.336.594-1.432a5.94,5.94,0,0,1,1.442-1.034,1.951,1.951,0,0,1,1.543-.051c.67.427.323.282.1.958a5.474,5.474,0,0,1-1.688,1.941c-.316.109-1.493,1.019-1.756.226-.11-.346-.38-.246.221-.26.2,0,.56.276.831.092.288-.194-.449-.364-.577-.361-.339.008.407-.494.458-.512.1-.036.221-.234.331-.237.271-.006.645.079.976.072.076,0,.186-.174.1-.215-.212-.1-.6.039-.8-.05-.094-.04.373-.424.449-.506.221-.226,1.154-.085,1.154-.253,0-.136-.316-.2-.169-.243.56-.2-.407-.238-.636,0-.339.347-.364.357-.2-.046.06-.163.407-.451.127-.443-.306.007-.645.991-.662.992-.187,0-.492.589-.746.595-.06,0,.076-.537.076-.6,0-.221-.316.024-.316.194a1.391,1.391,0,0,1-.253.759c-.06.095-.2.141-.289.236a.351.351,0,0,1-.136.114,1.107,1.107,0,0,1-.178.063Zm-5.4,5.92a5.981,5.981,0,0,1-1.2.1c-.152-.032.023-.913.023-1.054a3.322,3.322,0,0,1,.233-1.152c.07-.213.549-.8.771-.731a6.874,6.874,0,0,1,.69.64,2.161,2.161,0,0,0,.362.308,5.4,5.4,0,0,1,.841,1.55c0,.27-.175.344-.468.256-.082-.022.164-.565-.127-.466-.094.026-.14.624-.327.51-.245-.158-.3-.017-.3-.414,0-.152.047-.364.047-.528a1.711,1.711,0,0,1,.035-.247c.094-.283-.175.016-.222.157a2.528,2.528,0,0,1-.19.473s-.047-.268-.082-.373a2.018,2.018,0,0,1-.126-.759c0-.127.175-.671-.047-.526-.035.024-.126.3-.126.214,0-.14-.2-.443-.28-.19-.047.165.2.885.035.841-.14-.044-.257-.146-.385.044a2.775,2.775,0,0,0,.584.514c.117.021.375.272.339.4-.023.082-.3.03-.385.032-.911.02.433.283.316.4Zm3.9-3.611a4.742,4.742,0,0,0-1.094,1.846c-.088.265-.711,1.557-.2,1.546,1.012-.022.008-.416.176-.93.008-.04.127-.019.136.005a4.842,4.842,0,0,0,.36.543c.04.039.184-.451.184-.539,0-.152-.024-.4-.024-.506,0-.176-.224-.275-.224-.459,0-.3.088-.1.24-.029.12.053.032-.264.1-.338.184-.19.126.221.144.268.08.253.216-.19.3-.214.328-.111-.239.956-.239,1.028a1.185,1.185,0,0,1-.04.384c-.04.137.176-.127.2-.19.152-.371.471.19.063.438-.671.414.328.385.607.194.624-.429-.247-2.775-.687-3.053ZM986.4,542.2c.211-.361.942-.753,1.259-1.075a5.1,5.1,0,0,1,1.25-.673A5.724,5.724,0,0,1,990.3,540c.134,0,.394-.172.279.063a6.282,6.282,0,0,0-.433,1.118c-.087.358-.452.54-.558.879-.115.359-.49.387-.827.394-.01,0-.971.359-.625,0,.231-.236.625,0,.875-.173.316-.219-.154-.2-.3-.244a5.041,5.041,0,0,1,.462-.569.776.776,0,0,1,.605-.19c.19,0-.259-.62-.259-.765,0-.19-.212-.178-.212.044,0,.154.058.307-.039.453-.077.118-.3.19-.375.307-.048.068-.028-.077-.028-.1,0-.462-.3-.38-.24-.12.087.345-.529,1.312-.741,1-.048-.066-.009-.472-.211-.371-.173.091.039.683-.127.851-.144.148-.5.281-.5-.056,0-.076-.253-.379-.253-.063,0,.925-.846.048-.394-.261Z" transform="translate(-929.366 -490.054)"/><path class="c" d="M950.471,583.911a8.943,8.943,0,0,0,7.034,2.8,19.489,19.489,0,0,1-4.736-3.363l-2.3.559Z" transform="translate(-918.545 -519.243)"/><path class="c" d="M955.474,583.911a8.942,8.942,0,0,1-7.034,2.8,19.523,19.523,0,0,0,4.735-3.363l2.3.559Z" transform="translate(-917.799 -519.243)"/><path class="b" d="M946.586,545.108l-1.048-.794c-.269-.2-.2-.269-.246-.6a3.086,3.086,0,0,0-2.63-2.7l-7.264-.006c-3.141,0-5.529-3.114-5.529-6.1V504.1h31.15l1.288,1.182v30.356a5.429,5.429,0,0,1-5.372,5.377l-7.258-.048a3.09,3.09,0,0,0-2.834,4.141.2.2,0,0,1-.253,0Z" transform="translate(-910.975 -490.123)"/><path class="d" d="M930.254,504.1h30.773v12.019H930.254V504.1Z" transform="translate(-911.117 -490.123)"/><path class="e" d="M930.254,524.132h30.773V538.2H930.254Z" transform="translate(-911.117 -497.484)"/><g transform="translate(19.137 26.648)"><g class="f"><path class="g" d="M955.374,542a9.363,9.363,0,0,0,2.5-.762l-2.5.089c-.225.037-.369-.266-.182-.471a17.822,17.822,0,0,1,2.508-1.485c-.813.114-1.827.8-2.74,1.046-.19.075-.533-.4-.33-.65l1.558-1.449a15.194,15.194,0,0,1-1.874.994c-.14.12-.543-.326-.386-.579a2.418,2.418,0,0,1,1.1-1.5c.427-.637-1.112.669-1.464,1.087a.327.327,0,0,1-.5-.34l.931-1.972c.307-.7-.933,1.263-1.458,1.711-.1.229-.5,0-.543-.256l.543-1.887c.267-.576-.751,1.266-1.158,1.817l-.331-.063V535.5c.1-.619-.376,1.277-.662,1.733h-.53l-.179-1.733c.038-.432-.415,1.149-.465,1.668-.008.21-.392.243-.514.1a15.253,15.253,0,0,0-.456-1.689l-.124,1.949-.413.1a11.871,11.871,0,0,0-.893-1.843,7.425,7.425,0,0,1,.3,2.169l-.3.163a9,9,0,0,1-1.622-1.823,5.74,5.74,0,0,1,.927,2.116l-.331.293a8.923,8.923,0,0,0-1.494-.872,8.6,8.6,0,0,1,1.014,1.264c.049.179.082.374-.116.487-.605-.323-2.244-1.053-2.054-.761a13.962,13.962,0,0,1,1.641,1.428.718.718,0,0,1-.033.633c-.7-.385-2.662-.854-2.281-.633.457.414,1.479.735,2.165,1.185a.225.225,0,0,1-.07.31l-.029.015-1.926-.015a19.67,19.67,0,0,0,2.025.328h10.69Z" transform="translate(-934.725 -528.264)"/><path class="b" d="M955.35,541.009a15.085,15.085,0,0,1,3.188-1.236,13.948,13.948,0,0,0-3.384-.2c.423-.629,1.887-1.323,2.831-1.985a12.964,12.964,0,0,0-3.546.748,20.919,20.919,0,0,1,2.375-2.408,9.334,9.334,0,0,0-3.416,1.595,19.425,19.425,0,0,1,2.408-3.353l-3.091,1.985,1.268-3.22-2.44,2.733.781-3.449-1.79,3.059a7.616,7.616,0,0,0-.488-3.611,14.421,14.421,0,0,1-.748,3.416,7.53,7.53,0,0,0-.716-3.353,8.559,8.559,0,0,1-.553,3.155,5.186,5.186,0,0,0-1.366-2.668,15.208,15.208,0,0,1,.26,3.156A7.136,7.136,0,0,0,945,532.743a11.243,11.243,0,0,1,.748,3.286,5.872,5.872,0,0,0-2.505-2.148,18.823,18.823,0,0,1,1.464,2.96l-2.733-1.594,1.952,2.473a17.2,17.2,0,0,0-3.124-.911,8.113,8.113,0,0,1,2.44,2.049l-3.352-.455c.922.575,2.819,1.41,2.765,1.724l-3.026-.163c1.1.424,2.063.822,2.115,1.075h2.087c-.642-.133-1.414-.316-2.056-.521l1.952-.063a.227.227,0,0,0,.111-.3.222.222,0,0,0-.013-.025,11.3,11.3,0,0,0-2.146-1.122,4.514,4.514,0,0,1,2.261.569.734.734,0,0,0,.033-.633,4.545,4.545,0,0,0-1.513-1.253,5.015,5.015,0,0,1,1.92.586c.194-.114.163-.309.114-.488a6.333,6.333,0,0,0-.863-1.075,5.61,5.61,0,0,1,1.334.683l.325-.292a5.628,5.628,0,0,0-.976-2.05c.576.338.87,1.281,1.659,1.757l.293-.163a6.455,6.455,0,0,0-.391-1.985,8.169,8.169,0,0,1,.976,1.659l.406-.1.049-1.757c.173.472.347.982.521,1.5.12.146.5.114.506-.1a5.51,5.51,0,0,1,.364-1.511l.27,1.576h.521a4.03,4.03,0,0,0,.552-1.5l.1,1.593.325.063a7.339,7.339,0,0,0,.956-1.8l-.352,1.871c.043.253.431.484.534.256a6.448,6.448,0,0,0,1.2-1.594l-.684,1.856a.322.322,0,0,0,.487.341,3.592,3.592,0,0,1,1.269-.977,2.638,2.638,0,0,0-.916,1.392c-.154.253.242.7.38.579a8.885,8.885,0,0,0,1.628-.929l-1.319,1.383c-.2.249.136.725.325.651.9-.244,1.674-.87,2.471-1.008a15.089,15.089,0,0,0-2.244,1.448c-.183.206-.042.506.179.472l2.23-.1a5.607,5.607,0,0,0-2.277,1.139l1.008-.063Z" transform="translate(-933.701 -526.902)"/></g></g><path class="c" d="M930.254,547.422v3.669c0,1.86,1.6,4.387,3.9,4.387h6.108c2.511,0,4.889,1.157,5.307,3.458a4.585,4.585,0,0,1,4.339-3.458H956.5a4.469,4.469,0,0,0,4.529-4.2v-3.85Z" transform="translate(-911.117 -506.041)"/><path class="h" d="M959.031,511.582l-.538,1.309-1.392.115,1.059.924-.321,1.38,1.192-.737,1.193.737-.322-1.38,1.059-.924-1.392-.115-.538-1.309Zm-4.349-.316-.538,1.309-1.392.116,1.059.924L953.49,515l1.192-.738,1.193.738-.321-1.38,1.059-.924-1.392-.116-.538-1.309Zm-20.2.316.538,1.309,1.392.115-1.059.924.322,1.38-1.193-.737-1.193.737.322-1.38-1.059-.924,1.392-.115.538-1.309Zm4.349-.316.538,1.309,1.392.116-1.059.924.322,1.38-1.192-.738-1.192.738.321-1.38-1.059-.924,1.392-.116.538-1.309Z" transform="translate(-911.961 -492.756)"/><path class="b" d="M951.882,505.152a5.293,5.293,0,0,1,3.971,2.151,5.515,5.515,0,0,1,1.048,2.924,6.131,6.131,0,0,1-.161,1.613c-.07.242-.161.51-.249.745a5.643,5.643,0,0,1-1.713,2.209,5.492,5.492,0,0,1-2.359,1.006,5.855,5.855,0,0,1-1.615,0,5.472,5.472,0,0,1-2.36-1.006,5.846,5.846,0,0,1-1.359-1.513,5.78,5.78,0,0,1-.709-1.961,7.854,7.854,0,0,1-.063-.816,5.488,5.488,0,0,1,1.056-3.2,5.337,5.337,0,0,1,2.919-1.986,5.871,5.871,0,0,1,1.593-.164Z" transform="translate(-917.018 -490.51)"/><path class="i" d="M951.737,505.487a5.139,5.139,0,1,1-5.081,5.2v-.058A5.111,5.111,0,0,1,951.737,505.487Z" transform="translate(-917.143 -490.633)"/><path class="b" d="M954.3,516.23c-.127-.075-.373-.078-.373-.276l-.008-1.252c.018-.276.1-.346.292-.313a1.746,1.746,0,0,0,1.426-2.015c0-.022-.008-.045-.013-.067a1.886,1.886,0,0,0-1.129-1.341,1.251,1.251,0,0,0-.087-.633c-.2-.19-.46-.347-.559-.611l-.029-.618a4.571,4.571,0,0,1,.047-1.346c.212-.473.778-.506.931.023a.4.4,0,0,0,.738.059,1.277,1.277,0,0,0-1.331-1.221c-.028,0-.056,0-.083.006a1.391,1.391,0,0,0-1.089,1.576l.018,1.841a.715.715,0,0,1-.008.2h-.011c0,.018-.011.018,0,.018h-.011c0,.011,0,.034-.018.034,0,.166-.234.131-.234.162-.109.068-.1.005-.175.077-.021.069-.361.249-.391.339,0,.132-.274.39-.274.734.063,0,.279.219.321.219,0,.228-.135.4-.135.611h-.011v.03H952.1v.041h-.008c-.022.03.018.119,0,.149h-.011v.149h.011v.041h.008v.019c.037,0,.06-.019.087.023,0,.059-.077.052-.077.119-.049,0-.011.119-.018.119h.008c.019.039-.008.19.051.142,0-.077.117-.163.117-.25.021-.021.069-.011.1-.011a.138.138,0,0,1,.037.1h.011c0,.021.021.142.04.142.011.019-.011.1,0,.119h.011c.046.071.087.193.163.309a4.345,4.345,0,0,1,.48.783l-.022,1.382c.007.205-.106.283-.274.321l1.49.067Z" transform="translate(-919.082 -491.049)"/><path class="i" d="M956.238,507.193c0-.046-.135-.04-.135-.019h-.015c-.027.014.033.056.033.078h0a1.368,1.368,0,0,0,.121.149c0,.068.132.144.132.2,0,0,.007.015.007.022.019,0,.015.033.033.033a.835.835,0,0,0,.063.186h0c0,.035.1.09.121.09v0c.04.08.117-.055.117-.093h0c0-.013-.008-.171-.025-.171.007.026.015,0,0-.008l0-.008c-.054,0-.071-.183-.132-.183a1.545,1.545,0,0,0-.1-.145s.007,0,0-.011-.022-.03-.037-.03a.893.893,0,0,0-.186-.1Z" transform="translate(-920.607 -491.247)"/><path class="i" d="M953.378,514.152c.091,0,.087-.108.106-.108,0-.1-.072-.082-.126-.082a.353.353,0,0,0-.043.051c-.03.059-.053.14-.056.14,0,.111.092.029.121,0Z" transform="translate(-919.569 -493.746)"/><path class="i" d="M953.106,516.321c0-.011.021-.033.021-.041l.008-.011c-.008.011,0,0,.022,0l.007-.011v-.019h.011c-.011,0,0,0,0-.019h.011c-.011,0,0,0,0-.022h.007v-.059h-.007l-.011-.041c-.018,0-.04-.03-.04-.048l-.008-.011h-.011l-.011-.008c0-.011-.008-.03-.018-.03v-.063l.011-.008h.063v.008h.022l.007.011.011.011v.019h.011c-.011,0,0,0,0,.023h.011v.067h-.011v.041H953.2v.019l-.011.011h-.007l-.011.011v.09h.011a.672.672,0,0,1,0,.112h-.1a.026.026,0,0,1,.018-.03Z" transform="translate(-919.505 -494.47)"/><path class="i" d="M954.725,513.842c-.011,0-.04-.034-.04-.034a.063.063,0,0,0-.054-.071h-.009a.184.184,0,0,0-.145.051,1.306,1.306,0,0,0-.115.114c-.056.063-.056.042-.14.056a.4.4,0,0,0-.368.4h.008c0,.437.49.464.49.812.031,0,.127.119.127.13.048,0,.063.039.075.08.028.1.039.063.114.1s.063.01.142-.005c.142-.026.1-.028.21-.108a1.066,1.066,0,0,1,.159-.094c.119-.057.2-.029.244-.171a1.247,1.247,0,0,0,.029-.328.055.055,0,0,1-.029-.03c-.063-.063-.127-.213-.146-.213a4.261,4.261,0,0,0-.109-.51c-.214,0-.082-.039-.438-.179Z" transform="translate(-919.788 -493.664)"/><path class="b" d="M902.648,559.428c5.26,4.971,12.479,3.749,17.488,4.476,1.771.316,1.058,1.476,1.193,2.173a140.453,140.453,0,0,0,25.888-.235c1.06-.135.316-2.4,2-2.335,6.82-.257,12.719-1.274,17.871-3.6l-1.525,4.944,4.175,1.923c-2.1,1.955-5.469,3.761-17.247,4.9-.64.063-.733.244-.769.862-.074,1.265-.869,1.669-2.087,1.99a52.457,52.457,0,0,1-8.856.822,121.7,121.7,0,0,1-13.537.108c-1.922-.126-8.428-.383-9.8-1.366-.9-.646-.423-2.058-1.333-2.32-5.536-1.659-12.441.022-16.1-4.958,1.22-.578,2.52-1.156,3.96-1.733a49.27,49.27,0,0,1-1.313-5.644Z" transform="translate(-900.001 -510.453)"/><path class="d" d="M951.684,567.994a5.054,5.054,0,0,0-1.057-1.575c-.316-.341-.744-.9-1.194-.384-.274.316-.056.877-.237,1.247A4.105,4.105,0,0,1,951.684,567.994Zm-32.591,0a5.055,5.055,0,0,1,1.057-1.575c.316-.341.744-.9,1.194-.384.274.316.056.877.237,1.247a4.1,4.1,0,0,0-2.489.712Zm-16.869.51a35.759,35.759,0,0,1,3.715-1.561c-.538-1.381-.817-2.8-1.227-4.2,5.187,4.112,10.081,2.576,15.01,3.53-1.429.794-2.52,2.312-2.675,5.833-4.421-1.313-10.069-.359-14.824-3.606Zm66.357,0a35.754,35.754,0,0,0-3.715-1.561c.538-1.381.817-2.8,1.226-4.2-5.187,4.112-10.081,2.576-15.01,3.53,1.429.794,2.52,2.312,2.675,5.833,4.422-1.313,10.069-.359,14.824-3.606ZM920.939,568a158.353,158.353,0,0,0,28.213,0,2.71,2.71,0,0,1,2.783,2.636c0,.049,0,.1,0,.147v1.392a2.913,2.913,0,0,1-2.783,2.783,123.049,123.049,0,0,1-28.213,0,2.926,2.926,0,0,1-2.783-2.783v-1.392A2.71,2.71,0,0,1,920.791,568C920.84,568,920.89,568,920.939,568Z" transform="translate(-900.818 -511.671)"/><path d="M929.79,577.163v-3.885l.92.127q.193.609.387,1.218c.126.406.26.812.392,1.215a.052.052,0,0,1,.013-.008q-.032-.338-.063-.675l-.055-.676V573.5l.935.112v3.871l-.935-.107c-.123-.39-.245-.781-.365-1.17l-.359-1.17-.009.008c.009.185.021.369.03.553s.025.369.037.552v1.139l-.929-.123Zm2.991-1.573a3.072,3.072,0,0,1,.111-.858,1.624,1.624,0,0,1,.295-.587,1.112,1.112,0,0,1,.42-.324,1.024,1.024,0,0,1,.493-.085,1.277,1.277,0,0,1,.569.19,1.523,1.523,0,0,1,.451.428,2.083,2.083,0,0,1,.3.633,2.86,2.86,0,0,1,.108.8,3.344,3.344,0,0,1-.141.974,1.55,1.55,0,0,1-.46.739,1.022,1.022,0,0,1-.812.229,1.12,1.12,0,0,1-.5-.183,1.509,1.509,0,0,1-.426-.433,2.23,2.23,0,0,1-.294-.668,3.234,3.234,0,0,1-.1-.86Zm1.373-.876c-.156-.011-.256.089-.3.285a3.708,3.708,0,0,0-.08.748,2.4,2.4,0,0,0,.086.7c.056.2.153.311.294.33l.006-.007h0c.138,0,.236-.089.291-.281a2.464,2.464,0,0,0,.08-.672,3.245,3.245,0,0,0-.077-.745c-.052-.22-.153-.342-.3-.352Zm3.356,3.239c-.331-.02-.659-.046-.987-.071l-.414-1.961-.414-1.961,1.024.084q.082.633.165,1.27t.166,1.27h.012q.092-.62.184-1.244c.063-.415.122-.83.19-1.245l1.051.063-.487,1.9-.487,1.9Zm3.644.18c-.337-.012-.671-.026-1.005-.041-.025-.168-.046-.335-.068-.5l-.662-.028c-.025.166-.049.332-.07.5-.337-.016-.671-.036-1.005-.056.141-.633.288-1.265.429-1.9s.288-1.265.433-1.9l1.186.053.38,1.939q.19.969.383,1.936Zm-1.6-1.382.408.018c-.031-.271-.063-.54-.089-.81s-.058-.54-.086-.81h-.009c-.04.267-.077.534-.113.8l-.11.8Zm5.919,1.434c-.334,0-.668.006-1,0-.025-.166-.046-.333-.068-.5l-.662,0c-.025.166-.049.333-.07.5-.337,0-.671-.005-1.005-.012.141-.637.288-1.275.429-1.914s.288-1.279.433-1.919l1.186.009q.19.962.379,1.921t.383,1.919Zm-1.6-1.316h.411c-.031-.269-.063-.538-.089-.806s-.058-.538-.086-.806H944.1c-.04.268-.08.537-.116.8s-.074.536-.111.8Zm1.894-2.53.977-.011v2.54c0,.266.08.4.242.392a.209.209,0,0,0,.19-.1.547.547,0,0,0,.058-.276v-2.571l.975-.029v2.49a2.4,2.4,0,0,1-.086.677.978.978,0,0,1-.253.44,1.294,1.294,0,0,1-.874.346,1.4,1.4,0,0,1-.485-.063,1.007,1.007,0,0,1-.386-.232,1.073,1.073,0,0,1-.264-.428,1.953,1.953,0,0,1-.095-.647v-2.53Zm2.985,3.78V574.27l.938-.044a2.43,2.43,0,0,1,.665.048,1.086,1.086,0,0,1,.443.2.843.843,0,0,1,.253.357,1.515,1.515,0,0,1,.092.519,1.427,1.427,0,0,1-.144.677.886.886,0,0,1-.417.4c.12.26.242.521.362.78s.242.521.365.781c-.352.022-.7.043-1.051.06-.092-.261-.184-.522-.273-.783l-.267-.782v1.585l-.966.043Zm.966-2.117a.444.444,0,0,0,.34-.148.54.54,0,0,0,.113-.352.46.46,0,0,0-.119-.335.411.411,0,0,0-.334-.114V576Zm1.8.041a3.3,3.3,0,0,1,.111-.874,2.025,2.025,0,0,1,.294-.639,1.406,1.406,0,0,1,.42-.4,1.209,1.209,0,0,1,.494-.173,1.126,1.126,0,0,1,.569.087,1.15,1.15,0,0,1,.451.346,1.7,1.7,0,0,1,.3.585,2.7,2.7,0,0,1,.108.788,3.6,3.6,0,0,1-.141,1,1.942,1.942,0,0,1-.46.817,1.208,1.208,0,0,1-.812.371.965.965,0,0,1-.506-.1,1.188,1.188,0,0,1-.423-.362,1.866,1.866,0,0,1-.294-.614,3.006,3.006,0,0,1-.108-.839Zm1.373-1.113c-.157.017-.253.135-.3.34a3.92,3.92,0,0,0-.08.759,2.264,2.264,0,0,0,.085.68c.056.19.154.285.295.278l.009-.008h0c.138-.019.236-.13.291-.332a2.617,2.617,0,0,0,.08-.686,3.129,3.129,0,0,0-.077-.732c-.051-.21-.154-.316-.3-.3Zm1.834,2.81v-3.864l.938-.092a2.459,2.459,0,0,1,.665.012,1,1,0,0,1,.443.178.782.782,0,0,1,.253.347,1.459,1.459,0,0,1,.089.517,1.516,1.516,0,0,1-.141.687.951.951,0,0,1-.42.426c.119.253.242.51.361.765s.242.51.365.765c-.353.04-.7.079-1.051.116-.092-.257-.181-.515-.269-.772s-.178-.515-.267-.772v1.6l-.965.091Zm.965-2.175a.461.461,0,0,0,.337-.166.564.564,0,0,0,.114-.359.442.442,0,0,0-.116-.331.4.4,0,0,0-.334-.1v.953Zm4.463,1.563-1,.127c-.025-.164-.047-.33-.068-.5l-.662.085c-.025.172-.049.343-.071.514-.336.04-.671.077-1.005.114.141-.662.288-1.325.429-1.986s.288-1.328.432-1.989l1.187-.157.38,1.893c.126.632.253,1.265.383,1.893Zm-1.6-1.123.408-.053c-.031-.267-.063-.534-.089-.8s-.058-.535-.086-.8h-.009c-.04.276-.077.553-.113.829s-.073.552-.111.827Z" transform="translate(-910.946 -515.541)"/><path d="M908.538,569.592l.085.037.055.023.038.019.157.09-.095.585-.929-.533.576-.789a1.579,1.579,0,0,0,.3-.645c.027-.164.013-.261-.04-.292-.025-.014-.05,0-.076.043a.719.719,0,0,0-.063.221.514.514,0,0,1-.013.091l-.352-.2a.123.123,0,0,1,.005-.037.182.182,0,0,0,.005-.037,1.321,1.321,0,0,1,.147-.462.425.425,0,0,1,.216-.2.263.263,0,0,1,.223.021.483.483,0,0,1,.168.168.944.944,0,0,1,.11.267,1.537,1.537,0,0,1,.044.336,1.991,1.991,0,0,1-.027.374,1.406,1.406,0,0,1-.071.253,1.848,1.848,0,0,1-.117.244,1.644,1.644,0,0,1-.156.222,1.489,1.489,0,0,1-.19.19v.009Zm1.061-.633a.332.332,0,0,1,.049.018.375.375,0,0,1,.158.137.848.848,0,0,1,.111.234,1.33,1.33,0,0,1,.054.3,1.6,1.6,0,0,1-.007.316,1.222,1.222,0,0,1-.132.443.555.555,0,0,1-.237.245.316.316,0,0,1-.275.005.8.8,0,0,1-.346-.354l.118-.6a.752.752,0,0,0,.266.316.14.14,0,0,0,.155-.023.273.273,0,0,0,.076-.173.43.43,0,0,0-.032-.253.3.3,0,0,0-.151-.142.35.35,0,0,0-.249-.015l.287-1.461.686.3-.073.6-.39-.169-.063.289Zm.443,2.431-.141-.274,1.38-2.581.146.266-1.385,2.59Zm1.256-1.339a3.543,3.543,0,0,1,.107-.745,1,1,0,0,1,.194-.41.3.3,0,0,1,.243-.111.411.411,0,0,1,.261.195,1.241,1.241,0,0,1,.16.482,4.255,4.255,0,0,1-.042,1.357,1.791,1.791,0,0,1-.133.414.622.622,0,0,1-.179.235.254.254,0,0,1-.208.051h0a.344.344,0,0,1-.178-.13.915.915,0,0,1-.137-.287,2.248,2.248,0,0,1-.079-.451,4.219,4.219,0,0,1,0-.6Zm.54-.66c-.03-.006-.056.018-.077.07a.9.9,0,0,0-.048.2c-.012.082-.021.171-.028.266s-.012.173-.016.232q-.041.722.077.753l.006,0h0c.037,0,.066-.035.089-.106a1.335,1.335,0,0,0,.048-.253c.01-.1.018-.2.025-.328q.019-.333.01-.574c-.005-.161-.034-.247-.089-.257Zm1.062,1.354v-.008a.243.243,0,0,1-.141.051.266.266,0,0,1-.166-.151,1.1,1.1,0,0,1-.108-.343,2.069,2.069,0,0,1-.025-.451,1.716,1.716,0,0,1,.063-.376.947.947,0,0,1,.122-.275.471.471,0,0,1,.163-.155.284.284,0,0,1,.185-.032.371.371,0,0,1,.182.1.65.65,0,0,1,.137.208,1.217,1.217,0,0,1,.083.3,2.125,2.125,0,0,1,.021.375,2.683,2.683,0,0,1-.047.37c-.026.14-.063.286-.1.443s-.091.309-.144.462l-.15.443-.407-.068.34-.9Zm.043-1.17c-.035-.006-.063.024-.084.09a1.059,1.059,0,0,0-.039.259q-.016.35.09.367c.036.006.063-.024.084-.089a1.083,1.083,0,0,0,.037-.258,1.25,1.25,0,0,0-.01-.249c-.011-.075-.037-.114-.077-.121Zm.6,2.661-.159-.235,1.175-2.917.165.225-1.181,2.927Zm1.91-.294-.379-.013.019-2.035-.155-.005.006-.612.534.018-.025,2.647Zm.9-.889,0-.007a.27.27,0,0,1-.139.069.235.235,0,0,1-.171-.127,1,1,0,0,1-.12-.328,2.072,2.072,0,0,1-.041-.447,1.789,1.789,0,0,1,.047-.38,1.037,1.037,0,0,1,.112-.29.538.538,0,0,1,.157-.177.3.3,0,0,1,.183-.055.328.328,0,0,1,.185.076.574.574,0,0,1,.144.19,1.135,1.135,0,0,1,.094.29,2.1,2.1,0,0,1,.035.372,2.765,2.765,0,0,1-.033.375q-.03.213-.087.455c-.037.161-.079.32-.127.479l-.133.463-.409-.013.306-.942Zm0-1.172c-.036,0-.063.032-.081.1a1.057,1.057,0,0,0-.029.264q0,.352.1.355c.036,0,.063-.033.08-.1a1.108,1.108,0,0,0,.028-.261,1.251,1.251,0,0,0-.02-.248q-.021-.108-.082-.11Zm1.123.916c-.063,0-.1.126-.1.361s.031.352.1.361.109-.123.112-.376c0-.229-.034-.344-.109-.347Zm.008-.443a.158.158,0,0,1,.127-.063.225.225,0,0,1,.169.116.928.928,0,0,1,.127.323,2.168,2.168,0,0,1,.044.479,1.868,1.868,0,0,1-.051.388,1.016,1.016,0,0,1-.111.279.506.506,0,0,1-.152.165.294.294,0,0,1-.173.051.335.335,0,0,1-.23-.116.782.782,0,0,1-.173-.33,1.747,1.747,0,0,1-.063-.518,2.6,2.6,0,0,1,.031-.364c.02-.133.045-.265.075-.395s.062-.256.1-.38l.17-.6.412.014-.3.946,0,.006Zm1.04,1.734-.409-.027.559-2-.478-.032.011-.611,1,.063-.686,2.6Z" transform="translate(-902.885 -513.414)"/><path d="M984.206,571.8l-.391.011-.059-1.694-.159,0-.018-.506.551-.015.076,2.2Zm1.165.026h-.391l-.039-1.694h-.16l-.012-.506h.551l.051,2.2Zm.487.347-.176-.182,1.069-2.52.18.173-1.075,2.53Zm1.95-.38-.39.02-.078-1.693-.159.008-.023-.506.55-.029.1,2.2Zm1.012-.576.089-.019.058-.013.04-.006.168-.018.035.506-1,.1.38-.936a1.608,1.608,0,0,0,.145-.667c-.01-.142-.044-.21-.1-.2-.026,0-.047.028-.063.076a.6.6,0,0,0-.015.209c0,.015.005.041.007.078l-.38.04a.123.123,0,0,0,0-.032.085.085,0,0,1,0-.032,1.175,1.175,0,0,1,.041-.443.632.632,0,0,1,.162-.278.375.375,0,0,1,.216-.108.331.331,0,0,1,.2.037.47.47,0,0,1,.161.147.837.837,0,0,1,.114.236,1.329,1.329,0,0,1,.055.306,1.151,1.151,0,0,1-.013.238,1.835,1.835,0,0,1-.058.253,2.086,2.086,0,0,1-.239.513l.005.006Zm.648.765-.19-.149.854-2.709.19.14-.858,2.72Zm1.884-.838-.38.113-.253-1.663-.156.046-.076-.5.537-.159.326,2.163Zm.72-1.1-.005,0a.417.417,0,0,1-.122.122.2.2,0,0,1-.19-.02.544.544,0,0,1-.178-.2,1.186,1.186,0,0,1-.127-.333,1.276,1.276,0,0,1-.027-.325.985.985,0,0,1,.054-.283.705.705,0,0,1,.119-.215.483.483,0,0,1,.166-.132.343.343,0,0,1,.369.052.633.633,0,0,1,.146.184,1.238,1.238,0,0,1,.1.277,1.912,1.912,0,0,1,.039.313,3.7,3.7,0,0,1,0,.4c-.008.145-.016.292-.033.443l-.042.431-.4.186.12-.893Zm-.221-.928c-.035.016-.055.056-.06.119a.772.772,0,0,0,.022.223c.042.187.1.264.166.232.036-.016.055-.056.06-.118a.813.813,0,0,0-.023-.221.744.744,0,0,0-.063-.19c-.027-.051-.063-.066-.1-.048Zm1.209.169c-.061.042-.066.155-.016.339s.108.253.174.22.076-.159.021-.355q-.074-.267-.18-.2Zm-.092-.346a.269.269,0,0,1,.106-.127.2.2,0,0,1,.186-.009.453.453,0,0,1,.19.175,1.2,1.2,0,0,1,.149.344,1.313,1.313,0,0,1,.039.329.981.981,0,0,1-.042.28.74.74,0,0,1-.106.216.518.518,0,0,1-.152.14.345.345,0,0,1-.243.046.408.408,0,0,1-.237-.153.949.949,0,0,1-.175-.363,1.767,1.767,0,0,1-.052-.3c-.011-.114-.017-.231-.018-.348s0-.235.006-.35l.027-.561.392-.231-.076.908h.005Zm.835-.239V568.7a.169.169,0,0,1-.19-.033.53.53,0,0,1-.151-.228.952.952,0,0,1-.049-.3.823.823,0,0,1,.057-.311.631.631,0,0,1,.185-.257.4.4,0,0,1,.261-.1.327.327,0,0,1,.222.1.621.621,0,0,1,.147.238.726.726,0,0,1,.043.3.452.452,0,0,1-.09.253v0a.25.25,0,0,1,.226.054.527.527,0,0,1,.158.239.925.925,0,0,1-.027.671.718.718,0,0,1-.216.278.337.337,0,0,1-.476-.019.659.659,0,0,1-.154-.244.838.838,0,0,1-.044-.328.649.649,0,0,1,.1-.306Zm.021-.731q-.076.06-.01.242c.042.1.085.135.13.1a.115.115,0,0,0,.04-.089.331.331,0,0,0-.022-.132.386.386,0,0,0-.063-.112c-.025-.03-.05-.033-.076-.013Zm.271.769a.141.141,0,0,0-.039.115.567.567,0,0,0,.035.168.384.384,0,0,0,.075.133.057.057,0,0,0,.084.013.143.143,0,0,0,.042-.117.509.509,0,0,0-.031-.172.359.359,0,0,0-.073-.126c-.031-.033-.063-.038-.091-.015Z" transform="translate(-930.71 -513.408)"/><path class="b" d="M923.553,488.149l-1.418-1.752a.231.231,0,0,1,.042-.324l.005,0,1.4-.655a.442.442,0,0,1,.513.078l.19.515a.224.224,0,0,0,.281.145l.015-.005.576-.2c.093-.046.108-.15.063-.265l-.19-.5c-.034-.18.126-.279.278-.327l1.716-.539a.414.414,0,0,1,.548.2l.249,2.031a4.116,4.116,0,0,1-.066.466.74.74,0,0,0,.066.566l.812,1.029a2.122,2.122,0,0,1,1.232-.412c.1.03.144.2.216.3a.126.126,0,0,0,.175-.036l.008-.013-.01-.148c-.013-.194-.01-.216.19-.284a3.323,3.323,0,0,1,.424-.1c.21-.04.394-.118.578.024.12.092.218.221.275.19v-1.059a.6.6,0,0,0-.24-.552,7.062,7.062,0,0,1-.856-.916l-.963-1.615a.316.316,0,0,1,.1-.436.3.3,0,0,1,.065-.03l1.433-.292a.531.531,0,0,1,.56.342l.111.271c.055.133.063.169.225.178.225.013.523-.089.469-.27l-.106-.461c-.049-.19.137-.355.388-.4l1.174-.2c.414-.039.476.1.554.289l.083.462c.055.113.164.15.4.106.221-.041.313-.115.287-.245l.009-.621c.028-.163.211-.259.446-.26l1.2-.1c.316-.015.517.127.435.465a17.168,17.168,0,0,1-.558,2.05,2.206,2.206,0,0,0-.335,1.116l.5,1.208a1.04,1.04,0,0,1,.085-.208c.126-.227.37-.193.6-.225s.366-.09.562.052a1.057,1.057,0,0,1,.2.2.36.36,0,0,1,.042-.214.323.323,0,0,1,.253-.127,4.785,4.785,0,0,1,.637-.045.337.337,0,0,1,.184.051.41.41,0,0,1,.113.115,3.323,3.323,0,0,0,.3-1.13,4.5,4.5,0,0,0-.562-1.046c-.289-.672-.521-1.425-.781-2.138a.217.217,0,0,1,.2-.316l1.471-.093c.253-.008.43.1.463.3l.087.5c.04.19.207.163.359.144.134-.017.265-.018.275-.175l.033-.537c.02-.158.094-.23.22-.22l1.525-.024c.287.006.48.138.471.323l0,.467c.012.179.42.215.523,0a4.906,4.906,0,0,1,.119-.506c.1-.328.259-.267.586-.26l1.17.032a.351.351,0,0,1,.344.358.341.341,0,0,1-.033.142c-.19.543-.355,1.085-.494,1.611a4.722,4.722,0,0,1-.3.851c-.051.107-.1.209-.152.307a.57.57,0,0,0-.088.535,5.53,5.53,0,0,0,.186.882.475.475,0,0,1,.077-.113c.151-.168.29-.073.5-.052.14.015.237.029.38.032a.607.607,0,0,1,.281.152.83.83,0,0,1,.3-.08l.619.04a.667.667,0,0,1,.45.347c.159-.431.333-.859.534-1.28a8.2,8.2,0,0,1-.557-1.08l-.342-2.177a.3.3,0,0,1,.253-.286l1.309.147c.386.077.514.2.611.452l0,.5c.019.238.6.282.681.052l.1-.576a.292.292,0,0,1,.327-.176l1.56.327c.181.063.165.235.157.461l-.063.353c-.027.1.112.174.277.223.19.055.408.07.487-.022l.159-.575a.307.307,0,0,1,.347-.165l1.581.421c.264.111.362.307.218.633l-.866,1.435a4.608,4.608,0,0,1-1.031.864c-.281.174-.283.132-.31.461a4.412,4.412,0,0,0-.029.857.3.3,0,0,1,.234-.141l.984.269a.562.562,0,0,1,.082.411h.164c.054-.208.164-.31.3-.281l.806.2a.484.484,0,0,1,.334.311c.235-.229.466-.484.707-.741.214-.228.232-.19.133-.479a6.207,6.207,0,0,1-.273-1.294,8.928,8.928,0,0,1,.457-1.748c.049-.163.161-.213.344-.179l2.19.637a.448.448,0,0,1,.262.577l-.009.021-.111.284c-.089.2.144.3.4.384s.527.19.629.016c.09-.147.165-.29.247-.4.164-.222.246-.145.485-.063a10.523,10.523,0,0,1,1.067.443.379.379,0,0,1,.155.514.388.388,0,0,1-.083.106,16.606,16.606,0,0,1-1.179,1.6,5.8,5.8,0,0,1-1.265.59l-2.936,4.5c.086.628-.108,1-.708,1.005a.288.288,0,0,0-.269.3.291.291,0,0,0,.04.129,1.35,1.35,0,0,1,.076,1.165h-29.2c.07-.238-.037-.514.106-.771.186-.21.249-.414.166-.549-.162-.264-.573-.073-.822-.264a.749.749,0,0,1-.16-.869l-2.539-4.817c-.162-.295-.7-.4-.969-.633Zm14.605,5.687a61.519,61.519,0,0,1,8.267,0,1,1,0,0,1,.968.968h0a.971.971,0,0,1-.968.968h-8.267a.971.971,0,0,1-.969-.968h0A1,1,0,0,1,938.158,493.837Zm-14.986-7.946.162-.076a.209.209,0,0,1,.278.1l.149.32a.21.21,0,0,1-.1.278l-.163.075a.209.209,0,0,1-.278-.1l-.149-.32a.209.209,0,0,1,.1-.278Zm-.682.322.031-.02a.166.166,0,0,1,.23.047l.219.333a.166.166,0,0,1-.048.23l-.03.02a.167.167,0,0,1-.23-.048l-.219-.333a.166.166,0,0,1,.047-.23Zm3.732-1.418.548-.17a.209.209,0,0,1,.261.137l.106.338a.209.209,0,0,1-.137.261l-.548.17a.209.209,0,0,1-.261-.137l-.106-.337a.209.209,0,0,1,.137-.261Zm-.745.271.034-.013a.166.166,0,0,1,.215.095l.144.372a.167.167,0,0,1-.095.215l-.034.013a.166.166,0,0,1-.214-.095l-.144-.373a.166.166,0,0,1,.095-.214Zm4.643-1.3.9-.2c.106-.024.26.034.281.133l.063.316c.02.1,0,.193-.108.218l-.814.183a.265.265,0,0,1-.28-.133l-.147-.3a.147.147,0,0,1,.108-.218Zm2.875-.579.843-.15a.206.206,0,0,1,.238.146l.072.3a.18.18,0,0,1-.141.212l-.013,0-.843.149a.206.206,0,0,1-.238-.146l-.072-.3a.178.178,0,0,1,.139-.211l.014,0Zm2.928-.447.829-.1a.161.161,0,0,1,.19.156l0,.3a.223.223,0,0,1-.2.2l-.832.1a.159.159,0,0,1-.187-.126.167.167,0,0,1,0-.031l.005-.3a.221.221,0,0,1,.2-.2Zm4.193-.407-.822.054a.162.162,0,0,0-.16.164c0,.008,0,.017,0,.025l.057.3a.218.218,0,0,0,.225.166l.822-.054a.161.161,0,0,0,.157-.19l-.057-.3a.217.217,0,0,0-.224-.166Zm4.829-.038.826.019a.165.165,0,0,1,.17.161.159.159,0,0,1,0,.024l-.04.3a.213.213,0,0,1-.215.175l-.825-.019a.165.165,0,0,1-.169-.161c0-.008,0-.016,0-.023l.04-.3a.212.212,0,0,1,.215-.174Zm-2.769.006h.744a.231.231,0,0,1,.23.23v.2a.231.231,0,0,1-.23.23h-.746a.23.23,0,0,1-.23-.23v-.2a.23.23,0,0,1,.23-.23Zm12.182,1.3.814.2a.16.16,0,0,1,.13.184.174.174,0,0,1-.008.03l-.112.282a.222.222,0,0,1-.253.12l-.814-.2a.16.16,0,0,1-.13-.184.155.155,0,0,1,.008-.03l.113-.282A.221.221,0,0,1,954.358,483.6Zm-2.139-.443-.844-.15a.207.207,0,0,0-.239.146l-.072.3a.181.181,0,0,0,.142.212l.012,0,.844.15a.206.206,0,0,0,.238-.146l.071-.3a.18.18,0,0,0-.14-.212l-.013,0Zm-2.834.219-.849-.1a.267.267,0,0,1-.223-.216l-.042-.328a.147.147,0,0,1,.118-.171.153.153,0,0,1,.054,0l.849.1a.267.267,0,0,1,.222.216l.043.328a.147.147,0,0,1-.118.171.151.151,0,0,1-.054,0Zm9.476,1.41-.732-.225a.209.209,0,0,0-.261.137l-.106.337a.21.21,0,0,0,.137.262l.732.225a.21.21,0,0,0,.261-.137l.1-.338a.209.209,0,0,0-.137-.261Zm.738.257-.034-.013a.166.166,0,0,0-.215.095l-.144.372a.166.166,0,0,0,.095.214h0l.034.013a.166.166,0,0,0,.214-.095h0l.144-.373a.166.166,0,0,0-.095-.214Zm-35.5,1.581.683-.253a.208.208,0,0,1,.261.122l.2.434a.213.213,0,0,1-.136.269h0l-.683.253a.209.209,0,0,1-.262-.122l-.2-.434a.213.213,0,0,1,.136-.269Zm1.409-.5.605-.242a.19.19,0,0,1,.251.094.151.151,0,0,1,.01.028l.1.506a.229.229,0,0,1-.137.269l-.506.166a.21.21,0,0,1-.261-.122l-.2-.434a.215.215,0,0,1,.137-.269Zm-2.359.912.243-.144a.137.137,0,0,1,.189.047v0l.271.557a.146.146,0,0,1-.049.193l-.112.063a.151.151,0,0,1-.19-.049l-.4-.479a.134.134,0,0,1,.037-.186l.012-.007Zm3.692-1.375.172-.039a.182.182,0,0,1,.232.111.243.243,0,0,1,.008.029l.053.522a.224.224,0,0,1-.178.245l-.115.02c-.115.02-.19-.075-.221-.183l-.126-.46a.215.215,0,0,1,.178-.245Zm6.536-.406.878-.109a.147.147,0,0,1,.165.127h0a.148.148,0,0,1-.127.165l-.877.109a.148.148,0,0,1-.165-.126h0A.149.149,0,0,1,933.376,485.256Zm1.418-.206.769-.106a.147.147,0,0,1,.164.127h0a.148.148,0,0,1-.126.164l-.769.107a.148.148,0,0,1-.164-.127h0a.149.149,0,0,1,.126-.165Zm-2.72.461.873-.136a.148.148,0,0,1,.169.124v0h0a.149.149,0,0,1-.123.169l-.874.136a.148.148,0,0,1-.168-.124v0h0a.148.148,0,0,1,.124-.169h0Zm-.742.159.277-.049a.148.148,0,0,1,.172.119h0a.148.148,0,0,1-.119.172l-.276.049a.148.148,0,0,1-.172-.119h0A.148.148,0,0,1,931.332,485.67Zm4.737-.782.144-.026c.055-.01.1.042.11.112h0a.126.126,0,0,1-.089.141l-.144.027c-.054.011-.1-.042-.109-.112h0a.126.126,0,0,1,.089-.141Zm-9.627,2.149.242-.067a.132.132,0,0,1,.162.091h0a.132.132,0,0,1-.091.163h0l-.241.067a.133.133,0,0,1-.163-.091h0A.132.132,0,0,1,926.442,487.038Zm.734-.162.09-.023c.026-.006.053.02.063.059h0c.007.039-.008.076-.034.083l-.09.023c-.026.006-.053-.02-.063-.059h0C927.135,486.919,927.15,486.883,927.176,486.876Zm-1.669.474.316-.091a.132.132,0,0,1,.162.091h0a.133.133,0,0,1-.091.163l-.316.091a.132.132,0,0,1-.162-.091h0a.132.132,0,0,1,.09-.163h0Zm-.77.292.235-.073a.131.131,0,0,1,.162.089v0h0a.133.133,0,0,1-.091.163l-.235.072a.132.132,0,0,1-.162-.09h0a.133.133,0,0,1,.091-.163Zm-.617.239.1-.031a.132.132,0,0,1,.162.09h0a.133.133,0,0,1-.091.162l-.1.031a.13.13,0,0,1-.162-.089v0h0a.133.133,0,0,1,.091-.163Zm1.168.132.292-.1a.129.129,0,0,1,.161.087v0h0a.135.135,0,0,1-.091.163l-.292.1a.126.126,0,0,1-.159-.081l0-.01h0a.135.135,0,0,1,.091-.163Zm.767-.281.292-.1a.126.126,0,0,1,.159.081l0,.01h0a.135.135,0,0,1-.091.163l-.292.1a.126.126,0,0,1-.159-.081l0-.01h0a.135.135,0,0,1,.092-.163Zm.86-.309L927,487.4a.134.134,0,0,1,.162.091h0a.131.131,0,0,1-.089.162h0l-.085.021a.134.134,0,0,1-.162-.091h0a.131.131,0,0,1,.09-.162h0Zm-2.241.806.147-.035a.134.134,0,0,1,.162.091h0a.13.13,0,0,1-.088.162h0l-.147.035a.135.135,0,0,1-.163-.091h0a.13.13,0,0,1,.089-.162h0Zm5.977-3.587,1.153-.268a.206.206,0,0,1,.261.122l.143.514a.214.214,0,0,1-.137.269h0l-1.055.208a.229.229,0,0,1-.261-.122l-.241-.455a.2.2,0,0,1,.115-.263Zm1.834-.38.835-.173c.113-.023.243.011.261.122l.089.533c.019.111-.023.253-.137.269l-.8.127c-.114.018-.235-.012-.261-.122l-.12-.486a.217.217,0,0,1,.137-.27Zm1.437-.281.979-.163c.115-.019.264.008.261.122l-.011.53c0,.114-.023.249-.137.269l-.849.151c-.114.02-.236-.011-.261-.122l-.119-.519a.213.213,0,0,1,.137-.269h0Zm1.549-.231,1.012-.143c.115-.016.287.009.262.122l-.12.526c-.026.112-.023.253-.137.269l-.822.127c-.113.017-.247-.009-.261-.122l-.063-.509c-.014-.113.023-.253.137-.269Zm4.128-.414,1.046-.039c.115,0,.253.009.262.122l.03.515c.006.114-.023.263-.137.269l-.9.054c-.114.007-.225-.015-.261-.122l-.179-.53c-.036-.107.023-.266.137-.27Zm1.728-.1.813-.008c.161,0,.258.063.261.179l.015.484c0,.113-.039.264-.214.27l-.794.023c-.113,0-.253-.07-.261-.184l-.029-.494c-.006-.114.038-.268.21-.269Zm4.119.1L944.4,483.3c-.115,0-.253.009-.261.122l-.03.515c-.006.114.023.263.137.269l.9.054c.114.007.226-.015.262-.122l.179-.53c.036-.107-.023-.266-.137-.27Zm-2.594-.1.813-.008c.161,0,.258.063.261.179l.015.484c0,.113-.039.264-.215.27l-.793.023c-.114,0-.253-.07-.261-.184l-.029-.494c-.007-.114.038-.268.209-.269Zm11.791,1.435-1.194-.28a.206.206,0,0,0-.261.122l-.143.514a.214.214,0,0,0,.137.269h0l1.055.208a.241.241,0,0,0,.262-.122l.281-.443a.2.2,0,0,0-.107-.26l-.03-.01Zm-1.78-.408-.908-.154c-.114-.019-.238.012-.261.122l-.1.49c-.023.111.023.253.137.269l.822.139a.221.221,0,0,0,.262-.122l.19-.474a.2.2,0,0,0-.12-.264l-.017-.006Zm-1.532-.275-1.019-.163c-.114-.018-.249.01-.261.122l-.058.5c-.013.113.023.253.137.269l.952.137c.114.016.233-.013.261-.122l.126-.476a.211.211,0,0,0-.132-.268l-.005,0Zm-1.645-.263-.963-.109c-.115-.013-.281.008-.261.122l.087.5c.02.113.024.253.137.269l.763.122c.113.018.237-.011.261-.122l.112-.514c.024-.111-.023-.256-.137-.269Zm11.593,2.993-.782-.278a.209.209,0,0,0-.262.122l-.2.434a.213.213,0,0,0,.136.269h0l.755.278a.211.211,0,0,0,.261-.122l.227-.434a.21.21,0,0,0-.129-.267l-.009,0Zm-1.4-.549-1-.323a.193.193,0,0,0-.254.1.112.112,0,0,0-.008.02l-.1.506a.229.229,0,0,0,.137.27l.847.268a.22.22,0,0,0,.262-.122l.253-.454a.206.206,0,0,0-.122-.264l-.015-.005Zm-1.667-.524-.325-.063a.189.189,0,0,0-.236.128l0,.011-.094.5a.223.223,0,0,0,.178.245l.316.077c.114.027.194-.074.221-.183l.119-.472a.215.215,0,0,0-.178-.245ZM925.03,488.7l.355-.127a.126.126,0,0,1,.153.071l.12.24a.126.126,0,0,1-.08.158l-.359.143a.12.12,0,0,1-.153-.071l-.116-.253a.127.127,0,0,1,.08-.158Zm.869-.309.536-.2a.13.13,0,0,1,.153.072l.151.229c.036.055-.016.133-.08.158l-.569.223a.121.121,0,0,1-.153-.071l-.117-.253a.127.127,0,0,1,.08-.158Zm1.056-.353.328-.1a.135.135,0,0,1,.153.071l.147.213c.037.054-.016.132-.08.158l-.321.13c-.063.026-.118-.016-.153-.071l-.154-.241c-.036-.055.015-.137.08-.157Zm.641.628.216-.074c.063-.022.113.02.153.072l.228.289c.04.051-.015.137-.08.158l-.257.08a.132.132,0,0,1-.153-.071l-.186-.3c-.035-.055.016-.135.08-.157Zm-.886.273.373-.108a.138.138,0,0,1,.153.071l.211.3c.038.053-.015.137-.08.158l-.388.122a.133.133,0,0,1-.153-.071l-.2-.316c-.035-.056.015-.139.08-.158Zm-1.31.484.093-.029a.126.126,0,0,1,.153.071l.138.3a.126.126,0,0,1-.08.158l-.085.034a.12.12,0,0,1-.152-.072l-.147-.311a.122.122,0,0,1,.074-.156l.006,0Zm2.228.2.337-.08a.141.141,0,0,1,.153.072l.186.268c.037.053-.016.135-.08.158l-.324.118a.13.13,0,0,1-.153-.071l-.2-.306c-.036-.055.015-.142.08-.158Zm-.792.33.3-.159c.063-.032.116.018.153.072l.2.286c.037.053-.017.132-.08.158l-.349.144a.127.127,0,0,1-.152-.071l-.152-.271c-.032-.058.019-.126.08-.158Zm1.76-.477.239.253c.045.047-.016.135-.08.158l-.034.012c-.063.023-.115-.018-.153-.071l-.187-.261c-.067-.094-.051-.144,0-.182.076-.056.2.071.216.092Zm-2.732.746.406-.1a.143.143,0,0,1,.153.071l.194.268c.038.052-.018.131-.08.158l-.4.173a.127.127,0,0,1-.154-.071l-.2-.344a.118.118,0,0,1,.065-.153l.015-.005Zm1.215.6.132-.039a.126.126,0,0,1,.153.071l.19.358c.03.058.03.089-.029.127l-.047.029c-.058.035-.106-.027-.152-.072l-.33-.316c-.047-.046.015-.139.08-.158Zm.623-.2.321-.119a.126.126,0,0,1,.153.072l.223.364c.034.056-.016.134-.08.158l-.33.126a.126.126,0,0,1-.153-.072l-.214-.369c-.033-.056.016-.134.08-.158Zm.834-.294.506-.169c.063-.021.109.024.153.071l.358.389c.044.047-.016.139-.08.158l-.605.174a.136.136,0,0,1-.153-.071l-.257-.393c-.036-.055.015-.136.08-.158Zm-.714,1.281.316-.063a.144.144,0,0,1,.153.071l.2.289c.037.053-.015.144-.08.157l-.278.059a.153.153,0,0,1-.153-.071l-.24-.285c-.042-.05.014-.145.08-.158Zm.835-.271.451-.111a.141.141,0,0,1,.153.071l.22.309c.037.052-.015.142-.08.158l-.509.123a.13.13,0,0,1-.153-.071l-.161-.321a.119.119,0,0,1,.068-.154l.011,0Zm4.175-5.391.874-.164a.143.143,0,0,1,.168.113v0h0a.154.154,0,0,1-.123.173l-.874.164a.142.142,0,0,1-.168-.111v-.006h0a.154.154,0,0,1,.127-.173Zm1.341-.253.845-.151a.141.141,0,0,1,.163.116v.005h0a.15.15,0,0,1-.119.171l-.845.151a.142.142,0,0,1-.162-.117v0h0A.15.15,0,0,1,934.174,485.688Zm1.378-.2.364-.063a.14.14,0,0,1,.163.116v0h0a.15.15,0,0,1-.12.171l-.364.063a.142.142,0,0,1-.163-.118v0h0a.151.151,0,0,1,.12-.171Zm-3.687.65.414-.076a.141.141,0,0,1,.163.116v.005h0a.15.15,0,0,1-.119.171l-.414.077a.142.142,0,0,1-.163-.116v-.005h0A.15.15,0,0,1,931.865,486.136Zm-2.22,4.924.132-.043a.136.136,0,0,1,.153.071l.222.309c.038.052-.015.139-.08.157l-.19.056a.126.126,0,0,1-.153-.071l-.161-.321a.123.123,0,0,1,.074-.156l.006,0Zm-.219.984.467-.127a.135.135,0,0,1,.153.072l.2.326c.034.055-.016.137-.08.158l-.486.15a.126.126,0,0,1-.153-.071l-.185-.348a.121.121,0,0,1,.07-.155l.01,0Zm-1.021.361.479-.172a.132.132,0,0,1,.153.071l.228.332c.037.054-.015.138-.08.158l-.489.144a.139.139,0,0,1-.153-.071l-.218-.3c-.039-.053.016-.135.08-.158Zm1.994-.61.029-.006a.143.143,0,0,1,.153.071l.242.331c.038.052-.016.14-.08.158l-.085.023a.127.127,0,0,1-.153-.071l-.185-.348a.118.118,0,0,1,.068-.154l.013,0Zm-1.128-2.705.7-.178a.121.121,0,0,1,.153.072l.117.386a.126.126,0,0,1-.08.158l-.541.121a.15.15,0,0,1-.153-.071l-.271-.33c-.042-.051.015-.141.08-.158Zm1.228-.311,1.08-.262c.063-.016.154.005.152.071l-.007.424c0,.067-.015.143-.08.158l-.957.223a.121.121,0,0,1-.153-.071l-.115-.385a.127.127,0,0,1,.08-.158Zm1.872-.443.56-.123c.066-.015.154.005.153.071l-.008.42c0,.066-.015.144-.08.158l-.533.118c-.063.015-.15,0-.153-.071l-.02-.415c0-.067.014-.143.08-.157Zm-.274-.834.338-.089c.063-.017.151.005.153.071l.01.383c0,.066-.014.145-.08.158l-.357.063c-.063.012-.156,0-.153-.071l.01-.361c0-.067.015-.14.08-.157Zm-1.277.689c.1-.013.19.019.19.071s-.084.1-.19.116-.19-.019-.19-.07.084-.1.19-.116Zm-1.469.369c.1-.023.19,0,.19.052s-.084.113-.19.136-.19,0-.19-.052S929.246,488.584,929.352,488.56ZM937.828,487c.1,0,.184.038.179.089s-.094.095-.2.1-.184-.038-.179-.089.094-.095.2-.1Zm1.293-.106c.1,0,.184.038.179.089s-.094.1-.2.1-.184-.038-.179-.089.094-.095.2-.1Zm-5.386.269.9-.15a.126.126,0,0,1,.153.071l.115.347a.123.123,0,0,1-.075.157h-.005l-.978.151c-.063.01-.147-.005-.153-.071l-.034-.349c-.007-.066.013-.147.08-.158Zm2.277-.347.276-.046a.126.126,0,0,1,.153.071l.115.347a.122.122,0,0,1-.074.156l-.006,0-.282.033c-.066.008-.133-.009-.153-.071l-.11-.335a.122.122,0,0,1,.075-.156l.006,0Zm-.729-.731.387-.054a.126.126,0,0,1,.153.071l.09.285a.121.121,0,0,1-.08.158l-.388.044a.131.131,0,0,1-.153-.071l-.089-.275a.121.121,0,0,1,.072-.155l.008,0Zm-1.024.19.5-.118a.126.126,0,0,1,.153.071l.127.316a.12.12,0,0,1-.071.155l-.009,0-.55.077c-.063.009-.136-.008-.153-.072l-.073-.275a.127.127,0,0,1,.08-.158Zm-.89.154.414-.1a.117.117,0,0,1,.152.068v0l.059.292c.013.063-.015.146-.08.158l-.461.082c-.063.011-.15,0-.153-.071l-.011-.272c0-.067.014-.141.08-.157Zm-.917.173.387-.083c.063-.014.144.006.153.071l.036.276c.008.063-.015.146-.08.158l-.411.077c-.063.012-.15,0-.153-.072l-.012-.271c0-.067.014-.144.08-.158Zm-.4.168h0a.069.069,0,0,1,.069.063l.012.232a.064.064,0,0,1-.063.063h0a.069.069,0,0,1-.069-.063l-.011-.232a.063.063,0,0,1,.063-.063Zm1.352,1.354.7-.152a.123.123,0,0,1,.153.071l.126.4a.127.127,0,0,1-.08.158l-.8.166c-.063.013-.15,0-.153-.071l-.02-.415c0-.067.014-.143.08-.158Zm1.23-.209.714-.115a.132.132,0,0,1,.153.072l.154.364a.12.12,0,0,1-.071.154l-.01,0-.814.14c-.063.011-.144-.005-.153-.071l-.054-.389c-.009-.063.013-.147.08-.158Zm1.277-.172.5-.077a.132.132,0,0,1,.153.071l.154.364a.118.118,0,0,1-.068.154l-.013,0-.534.063a.132.132,0,0,1-.153-.071l-.116-.353a.122.122,0,0,1,.074-.156l.006,0Zm1.551-.18.75-.1c.067-.008.147.006.153.071l.035.365c.006.063-.015.151-.08.158l-.67.07a.134.134,0,0,1-.153-.071l-.116-.338a.121.121,0,0,1,.07-.155l.01,0Zm1.259-.142.77-.07c.068-.006.18.016.168.1l-.042.325c-.008.063-.047.169-.113.175l-.653.063c-.063.006-.143-.006-.152-.071l-.058-.37c-.01-.063.013-.151.08-.158Zm1.68-.11.578-.047c.067-.006.164.006.153.071l-.063.4c-.011.063-.063.145-.127.15l-.536.043c-.063.005-.165,0-.153-.072l.07-.385c.012-.067.013-.152.08-.158Zm-.1-.914.49-.044c.068-.006.166.006.153.071l-.075.39c-.013.063-.063.144-.126.15l-.43.038c-.063.006-.164,0-.153-.071l.063-.375c.011-.067.013-.152.08-.158Zm1.168.879.911-.04c.067,0,.155.006.153.071l-.013.366a.162.162,0,0,1-.126.15l-.9.063c-.063,0-.162,0-.153-.071l.05-.38c.009-.067.013-.154.08-.157Zm1.411-.021.8,0c.067,0,.137.009.153.071l.093.364a.145.145,0,0,1-.126.15l-.816.008c-.063,0-.148,0-.153-.071l-.027-.36c-.005-.066.013-.157.08-.157Zm-.755-.915.965-.015c.067,0,.15.006.153.071l.019.423c0,.063-.063.152-.126.15l-1-.024c-.1,0-.166-.053-.153-.119l.063-.33c.012-.067.013-.157.08-.158Zm2.328.029.43.009c.066,0,.144.007.153.071l.052.376a.149.149,0,0,1-.127.15h-.38a.135.135,0,0,1-.152-.116v0l-.063-.33c-.012-.063.013-.159.08-.158Zm-.569-.81.624.009c.066,0,.143.008.153.071l.041.269a.148.148,0,0,1-.127.15H944a.135.135,0,0,1-.152-.116v0l-.042-.222c-.013-.063.013-.159.08-.158Zm-1.046-.02.569.009c.067,0,.143.008.153.071l.044.261a.148.148,0,0,1-.127.15H942.9c-.1,0-.156-.052-.153-.119l.01-.214c0-.068.013-.159.08-.158Zm-.865.015.369-.008c.067,0,.153.006.153.072v.266a.158.158,0,0,1-.127.15l-.333.008c-.1,0-.156-.051-.153-.119l.011-.211c0-.068.013-.157.08-.158Zm-1.067.042.546-.025c.066,0,.155.006.152.071l-.008.253a.163.163,0,0,1-.127.15l-.524.033c-.1.006-.164-.052-.153-.119l.033-.206c.011-.067.013-.155.08-.158Zm1.18-1.189h.789a.176.176,0,0,1,.176.177h0a.176.176,0,0,1-.176.175h-.791a.176.176,0,0,1-.176-.175h0a.176.176,0,0,1,.176-.177Zm1.43.009h.9a.176.176,0,0,1,.176.177h0a.177.177,0,0,1-.176.176h-.9a.177.177,0,0,1-.176-.176h0A.176.176,0,0,1,943.518,484.421Zm-2.72,0h.633a.176.176,0,0,1,.176.177h0a.177.177,0,0,1-.176.176H940.8a.177.177,0,0,1-.176-.176h0A.176.176,0,0,1,940.8,484.421Zm-.742.034h.2a.176.176,0,0,1,.176.176h0a.176.176,0,0,1-.176.176h-.2a.177.177,0,0,1-.175-.176h0A.176.176,0,0,1,940.056,484.455Zm4.895,0h.205a.177.177,0,0,1,.176.176h0a.177.177,0,0,1-.176.176h-.205a.177.177,0,0,1-.175-.176h0A.176.176,0,0,1,944.95,484.455Zm-3.535.506h.789a.176.176,0,0,1,.176.176h0a.177.177,0,0,1-.176.176h-.789a.176.176,0,0,1-.176-.176h0a.175.175,0,0,1,.176-.176Zm1.474,0h.789a.175.175,0,0,1,.176.176h0a.176.176,0,0,1-.176.176h-.79a.177.177,0,0,1-.176-.176h0a.177.177,0,0,1,.176-.176Zm1.44,0h.423a.177.177,0,0,1,.176.176h0a.177.177,0,0,1-.176.176h-.423a.177.177,0,0,1-.176-.176h0A.177.177,0,0,1,944.329,484.961Zm-3.9.048h.423a.176.176,0,0,1,.176.176h0a.177.177,0,0,1-.176.176h-.428a.177.177,0,0,1-.176-.176h0a.177.177,0,0,1,.176-.176Zm.033.645h0a.085.085,0,0,1,.086.083.045.045,0,0,1,0,.009l-.02.253a.1.1,0,0,1-.1.092h0a.084.084,0,0,1-.085-.083.034.034,0,0,1,0-.008l.02-.253A.1.1,0,0,1,940.459,485.654Zm10.17-.6,1.045.164a.178.178,0,0,1,.152.2h0a.174.174,0,0,1-.193.153h0l-1.045-.164a.178.178,0,0,1-.152-.2h0a.174.174,0,0,1,.193-.153h0Zm1.626.3.822.127a.178.178,0,0,1,.152.2h0a.174.174,0,0,1-.193.153h0l-.822-.127a.178.178,0,0,1-.152-.2h0a.174.174,0,0,1,.193-.153h0Zm-2.812-.469.569.058a.175.175,0,0,1,.153.194v0h0a.178.178,0,0,1-.2.152l-.569-.058a.175.175,0,0,1-.152-.2h0a.177.177,0,0,1,.2-.152Zm-.483-.075.029.005a.18.18,0,0,1,.152.2h0a.173.173,0,0,1-.191.153h-.006l-.029-.005a.181.181,0,0,1-.152-.2h0a.173.173,0,0,1,.19-.153h.006Zm4.677.816.13.019a.177.177,0,0,1,.152.2h0a.175.175,0,0,1-.2.152h0l-.13-.019a.178.178,0,0,1-.152-.2h0a.174.174,0,0,1,.194-.152ZM950,485.475l.781.126a.178.178,0,0,1,.152.2h0a.174.174,0,0,1-.193.153h0l-.781-.126a.179.179,0,0,1-.152-.2h0a.174.174,0,0,1,.193-.153h0Zm1.426.228.924.183a.18.18,0,0,1,.152.2h0a.171.171,0,0,1-.188.153h-.008l-.923-.182a.182.182,0,0,1-.153-.2h0a.173.173,0,0,1,.19-.153h.006Zm1.473.316.277.047a.179.179,0,0,1,.153.2h0a.174.174,0,0,1-.193.153h0l-.277-.048a.18.18,0,0,1-.152-.2h0a.174.174,0,0,1,.192-.153h0Zm-3.647-.636.154.016a.175.175,0,0,1,.153.194v0h0a.177.177,0,0,1-.2.152l-.154-.016a.175.175,0,0,1-.152-.2h0a.177.177,0,0,1,.2-.152Zm.016.614.385.03c.148.012.194.063.181.156l-.021.153c-.009.063-.035.157-.228.145l-.369-.022c-.1-.006-.185-.094-.166-.159l.041-.145c.034-.121.111-.163.177-.158Zm1.005.127.456.044c.147.015.2.063.181.156l-.028.153c-.012.063-.035.163-.228.146l-.383-.032a.181.181,0,0,1-.166-.159l-.01-.148a.156.156,0,0,1,.152-.159.11.11,0,0,1,.025,0Zm-6.021,1.163.519,0c.067,0,.134.01.153.071l.109.355c.019.063-.063.15-.126.15h-.59c-.063,0-.155,0-.153-.072l.008-.351c0-.068.013-.158.08-.158Zm1.662.1.609.1c.063.011.144.007.152.071l.038.265a.149.149,0,0,1-.126.15h-.54c-.063,0-.142-.006-.153-.071l-.06-.359c-.011-.063.015-.169.08-.158Zm.362-.443c.087.008.15.047.141.09s-.086.071-.173.063-.15-.047-.142-.09S946.192,486.933,946.278,486.94Zm1.181.084c.08.007.139.044.131.083s-.08.063-.16.06-.139-.044-.131-.084S947.379,487.02,947.459,487.024Zm-.413.535.822.067c.131.011.153.06.145.126l-.019.165a.185.185,0,0,1-.19.167l-.682-.025c-.063,0-.153,0-.153-.071v-.27c0-.067.013-.163.08-.158Zm1.941-.808h.223c.132,0,.168.063.144.126l-.122.32c-.024.063-.063.173-.19.167l-.211-.011c-.063,0-.176-.007-.153-.072.017-.047.057-.224.1-.361.052-.166.054-.171.207-.17Zm-8.187,4.333h1.362a.2.2,0,0,1,.2.2v.1a.2.2,0,0,1-.2.2H940.8a.2.2,0,0,1-.2-.2v-.1A.2.2,0,0,1,940.8,491.083Zm1.986-.028h1.363a.2.2,0,0,1,.2.2v.1a.2.2,0,0,1-.2.2h-1.363a.2.2,0,0,1-.2-.2v-.1A.2.2,0,0,1,942.787,491.055Zm1.976.046,1.362.063a.2.2,0,0,1,.19.211l-.005.1a.2.2,0,0,1-.211.19l-1.362-.063a.2.2,0,0,1-.19-.211l.005-.1A.2.2,0,0,1,944.763,491.1Zm-4.594.051-1.288.063a.2.2,0,0,0-.19.211l0,.1a.2.2,0,0,0,.211.19l1.288-.063a.2.2,0,0,0,.19-.211l0-.1a.2.2,0,0,0-.211-.19Zm-1.907.126-1.249.137a.208.208,0,0,0-.19.211l0,.1a.2.2,0,0,0,.207.19h0l1.249-.137a.207.207,0,0,0,.19-.211l0-.1a.2.2,0,0,0-.206-.19h-.006Zm-1.822.238-1.16.146a.209.209,0,0,0-.19.211l0,.1a.2.2,0,0,0,.2.19h.008l1.16-.145a.209.209,0,0,0,.19-.211l0-.1a.2.2,0,0,0-.206-.19h-.005Zm-1.8.288-1.153.2a.213.213,0,0,0-.19.211l0,.1a.2.2,0,0,0,.2.19h.011l1.153-.2a.213.213,0,0,0,.19-.211l0-.1a.194.194,0,0,0-.2-.19Zm-1.767.36-.932.2a.216.216,0,0,0-.19.211l0,.1a.19.19,0,0,0,.189.191h.022l.932-.2a.217.217,0,0,0,.19-.211l-.005-.1a.19.19,0,0,0-.188-.191Zm-1.578.4-1.029.288c-.106.03-.2.1-.19.211l.005.1c0,.111.1.222.211.19l1.029-.288c.107-.03.2-.1.19-.211l0-.1c-.005-.111-.1-.223-.211-.19Zm-1.738.5-1.207.384c-.106.034-.2.1-.19.211l0,.1c.005.111.105.226.211.19l1.208-.384c.1-.034.2-.1.19-.211l0-.1c-.005-.111-.1-.226-.211-.19Zm-1.827.605-.143.04c-.107.03-.2.1-.19.211l.005.1c.005.111.1.222.211.19l.143-.04c.106-.03.2-.1.19-.211l-.005-.1C927.941,493.743,927.843,493.632,927.736,493.664Zm1.173.53-.349.115a.2.2,0,0,0-.161.219l.02.1c.021.109.137.213.24.18l.35-.114a.2.2,0,0,0,.161-.22l-.02-.1c-.021-.11-.137-.213-.24-.18Zm1.635-.506-.975.307a.2.2,0,0,0-.161.22l.02.1c.022.109.137.212.24.179l.975-.306a.2.2,0,0,0,.161-.22l-.02-.1c-.021-.109-.136-.212-.24-.179Zm1.065.633-.927.245a.19.19,0,0,0-.161.214v.005l.02.1a.218.218,0,0,0,.24.179l.927-.245a.19.19,0,0,0,.161-.214V494.6l-.02-.1A.216.216,0,0,0,931.609,494.321Zm-1.49.434-.8.231a.194.194,0,0,0-.161.22l.02.1a.216.216,0,0,0,.24.18l.8-.231a.194.194,0,0,0,.161-.219l-.02-.1a.215.215,0,0,0-.24-.179Zm2.012-1.507-.926.245a.19.19,0,0,0-.161.214v.005l.02.1a.218.218,0,0,0,.24.18l.927-.245a.19.19,0,0,0,.161-.214v-.005l-.02-.1a.216.216,0,0,0-.24-.179Zm-3.444,1.974-.279.114c-.1.04-.182.11-.161.22l.02.1c.021.109.141.219.24.179l.279-.114c.1-.04.182-.11.161-.22l-.02-.1C928.9,495.291,928.786,495.18,928.687,495.221Zm5.212-2.365-1.072.224a.19.19,0,0,0-.161.214v.005l.02.1a.221.221,0,0,0,.24.18l1.072-.224a.19.19,0,0,0,.161-.214v-.005l-.02-.1a.221.221,0,0,0-.24-.18Zm-.607,1.039-1.041.235a.19.19,0,0,0-.161.214v.005l.02.1a.22.22,0,0,0,.24.179l1.041-.235a.19.19,0,0,0,.161-.214v-.005l-.02-.1A.219.219,0,0,0,933.291,493.9Zm1.673-.373-1.041.234a.19.19,0,0,0-.161.214v.005l.02.1a.22.22,0,0,0,.24.18l1.041-.235a.19.19,0,0,0,.161-.214V493.8l-.02-.1A.219.219,0,0,0,934.964,493.523Zm.683-.979-1.114.19a.186.186,0,0,0-.163.206l0,.014.02.1a.224.224,0,0,0,.24.18l1.114-.19a.186.186,0,0,0,.162-.207l0-.013-.02-.1a.223.223,0,0,0-.24-.179Zm1.623-.245-.979.148a.184.184,0,0,0-.163.2l0,.016.02.1a.225.225,0,0,0,.24.179l.979-.148a.184.184,0,0,0,.163-.2l0-.016-.02-.1a.225.225,0,0,0-.24-.179Zm-.65.976-1.039.147a.184.184,0,0,0-.164.2l0,.017.02.1a.226.226,0,0,0,.24.179l1.039-.147a.183.183,0,0,0,.163-.2l0-.018-.02-.1a.225.225,0,0,0-.24-.179Zm2.5-1.165-1.189.113a.181.181,0,0,0-.161.219l.02.1a.231.231,0,0,0,.241.179l1.189-.114a.181.181,0,0,0,.164-.2.142.142,0,0,0,0-.023l-.02-.1a.228.228,0,0,0-.24-.179Zm-1.853,1.075,1.106-.109a.2.2,0,0,1,.2.192v.112a.211.211,0,0,1-.2.2l-1.106.109a.2.2,0,0,1-.2-.19v-.113A.211.211,0,0,1,937.263,493.184Zm3.756-1.192-1.239.063a.178.178,0,0,0-.165.19.147.147,0,0,0,0,.029l.02.1a.234.234,0,0,0,.24.18l1.238-.063a.179.179,0,0,0,.165-.191.143.143,0,0,0,0-.029l-.02-.1a.232.232,0,0,0-.24-.18ZM939.006,493l1.07-.03a.2.2,0,0,1,.2.2v.1a.2.2,0,0,1-.2.2l-1.07.03a.2.2,0,0,1-.2-.2v-.1A.2.2,0,0,1,939.006,493Zm1.719-.133h1.363a.2.2,0,0,1,.2.2v.1a.2.2,0,0,1-.2.2h-1.362a.2.2,0,0,1-.2-.2v-.1a.2.2,0,0,1,.2-.2Zm1.976,0,1.241-.008a.2.2,0,0,1,.2.2h0v.1a.2.2,0,0,1-.2.2l-1.241.008a.2.2,0,0,1-.2-.2v-.1A.2.2,0,0,1,942.7,492.864Zm-.96-.929h1.275a.2.2,0,0,1,.2.2v.1a.2.2,0,0,1-.2.2h-1.273a.2.2,0,0,1-.2-.2v-.1a.2.2,0,0,1,.2-.2h0Zm1.891.041h1.274a.2.2,0,0,1,.2.2v.1a.2.2,0,0,1-.2.2h-1.274a.2.2,0,0,1-.2-.2v-.1A.2.2,0,0,1,943.632,491.977Zm.9.917,1.189.063c.111.006.253.022.253.133v.1c0,.111-.143.276-.253.271l-1.189-.063a.206.206,0,0,1-.2-.2v-.1a.2.2,0,0,1,.2-.2Zm2.156-1.63,1.344.1a.2.2,0,0,1,.19.211l0,.1a.2.2,0,0,1-.211.19l-1.344-.1a.205.205,0,0,1-.19-.211l0-.1A.2.2,0,0,1,946.684,491.265Zm-1.149.8,1.282.044a.205.205,0,0,1,.2.2v.1a.2.2,0,0,1-.2.2h0l-1.282-.044a.205.205,0,0,1-.2-.2v-.1a.2.2,0,0,1,.2-.2Zm.806.918,1.272.091a.208.208,0,0,1,.2.2v.1a.2.2,0,0,1-.194.2h-.008l-1.272-.09a.208.208,0,0,1-.2-.2v-.1a.2.2,0,0,1,.194-.2h.008Zm2.3-1.513,1.108.121a.207.207,0,0,1,.19.211l0,.1a.2.2,0,0,1-.205.19h-.005l-1.108-.121a.208.208,0,0,1-.19-.211l.005-.1a.2.2,0,0,1,.206-.19h0Zm-1.139.755,1.119.127a.212.212,0,0,1,.2.2v.1a.2.2,0,0,1-.189.2h-.013l-1.119-.127a.212.212,0,0,1-.2-.2v-.1a.2.2,0,0,1,.188-.2Zm.748.962,1.027.131a.214.214,0,0,1,.2.2v.1a.2.2,0,0,1-.189.2h-.013l-1.027-.132a.214.214,0,0,1-.2-.2v-.1a.194.194,0,0,1,.187-.2Zm.969-.755,1.082.155a.21.21,0,0,1,.19.211l0,.1a.2.2,0,0,1-.2.19h-.009l-1.082-.154a.211.211,0,0,1-.19-.211l0-.1a.2.2,0,0,1,.2-.19h.007Zm.653,1.02,1.022.164a.212.212,0,0,1,.19.211l0,.1a.2.2,0,0,1-.2.19h-.011l-1.022-.163a.212.212,0,0,1-.19-.211l.005-.1a.2.2,0,0,1,.2-.19Zm1.645.282.979.223a.219.219,0,0,1,.19.211l-.005.1a.19.19,0,0,1-.188.191h-.022l-.979-.223a.218.218,0,0,1-.19-.211l0-.1a.19.19,0,0,1,.188-.191h.023Zm-1.158-2,1.012.164a.212.212,0,0,1,.19.211l0,.1a.2.2,0,0,1-.2.19h-.011l-1.012-.164a.212.212,0,0,1-.19-.211l0-.1a.2.2,0,0,1,.2-.19h.011Zm1.65.333.988.163a.212.212,0,0,1,.19.211l-.005.1a.2.2,0,0,1-.2.19h-.01l-.988-.164a.212.212,0,0,1-.19-.211l0-.1a.2.2,0,0,1,.2-.19h.012Zm-1.075.676.945.146a.212.212,0,0,1,.19.211l-.005.1a.2.2,0,0,1-.2.19h-.01l-.945-.146a.211.211,0,0,1-.19-.211l0-.1a.2.2,0,0,1,.2-.19h.01Zm2.7-.3,1.341.34a.219.219,0,0,1,.19.211l0,.1c-.005.111-.1.219-.211.19l-1.341-.34a.22.22,0,0,1-.19-.211l0-.1c.005-.111.1-.219.211-.19Zm-1.1.624,1.143.295a.222.222,0,0,1,.19.211l-.005.1c-.005.111-.1.22-.21.19l-1.143-.295a.222.222,0,0,1-.19-.211l.005-.1c.005-.111.1-.22.211-.19Zm.627,1.075,1.071.266a.219.219,0,0,1,.19.211l0,.1c-.005.111-.1.219-.211.19l-1.071-.266a.22.22,0,0,1-.19-.211l0-.1c.005-.111.1-.22.211-.19Zm1.131-.6,1.022.266a.221.221,0,0,1,.19.211l0,.1c-.005.111-.1.221-.211.19l-1.022-.266a.222.222,0,0,1-.19-.211l0-.1C954.081,493.624,954.18,493.514,954.287,493.545Zm1.316-.536,1.081.316c.106.031.2.1.19.211l0,.1c-.005.111-.1.223-.211.19l-1.081-.316c-.106-.031-.2-.1-.19-.211l0-.1c.005-.111.1-.223.211-.19Zm.292,1.008.448.13c.107.03.2.1.19.211l-.005.1c-.005.111-.1.223-.211.19l-.448-.127c-.106-.031-.2-.1-.19-.211l.005-.1c0-.111.1-.223.21-.19Zm-1.058.6.883.279c.106.034.2.1.19.211l0,.1c-.005.111-.106.227-.211.19l-.882-.279c-.106-.034-.2-.1-.19-.211l0-.1c.005-.111.106-.227.211-.19Zm1.483.5.139.035a.222.222,0,0,1,.19.211l0,.1c-.005.111-.1.219-.211.19l-.138-.035a.221.221,0,0,1-.19-.211l.005-.1c.005-.111.1-.219.211-.19Zm.97-1.518.035.011a.169.169,0,0,1,.108.213l-.039.118a.169.169,0,0,1-.212.108l-.035-.011a.169.169,0,0,1-.108-.213l.039-.118a.17.17,0,0,1,.213-.108Zm-8.454-5.82.28.022c.131.011.165.063.144.127l-.055.169c-.02.063-.063.174-.19.167a2.105,2.105,0,0,1-.268-.012c-.115-.018-.116-.047-.1-.145l.035-.19c.013-.066.084-.144.151-.139Zm1.76-.8.7.094c.127.017.151.063.144.127l-.035.343c-.006.063-.063.19-.19.167l-.662-.127c-.246-.046-.243-.068-.2-.3a1.076,1.076,0,0,1,.037-.131c.052-.166.056-.19.207-.171Zm.708-.667.578.068c.357.042.01.49-.218.454l-.362-.056a.19.19,0,0,1-.166-.159l-.01-.149a.154.154,0,0,1,.149-.159.149.149,0,0,1,.029,0Zm1.165.2.473.1c.3.063.147.488-.06.448l-.375-.073a.217.217,0,0,1-.166-.159l-.049-.153C952.255,486.553,952.4,486.5,952.469,486.51Zm.346.831.054.009a.246.246,0,0,1,.2.285l-.036.2a.246.246,0,0,1-.285.2l-.054-.01a.246.246,0,0,1-.2-.285l.037-.2a.246.246,0,0,1,.285-.2Zm1.434.847c.078.019.13.063.116.1s-.089.053-.168.034-.131-.063-.117-.1S954.17,488.169,954.249,488.188Zm1.464.38c.078.019.131.063.117.1s-.09.053-.168.034-.13-.063-.116-.1S955.634,488.549,955.713,488.568Zm-5.915-.718.6.052a.189.189,0,0,1,.188.191.182.182,0,0,1-.012.066l-.023.071a.328.328,0,0,1-.328.213l-.6-.052a.19.19,0,0,1-.189-.191.18.18,0,0,1,.012-.066l.023-.071A.33.33,0,0,1,949.8,487.85Zm1.295.139.569.122a.215.215,0,0,1,.176.248.139.139,0,0,1-.007.029l-.022.069a.274.274,0,0,1-.316.174l-.569-.122a.215.215,0,0,1-.176-.248.192.192,0,0,1,.007-.029l.021-.069a.274.274,0,0,1,.316-.174Zm1.29.275.239.063a.219.219,0,0,1,.175.255c0,.008,0,.015-.006.022l-.022.069a.269.269,0,0,1-.316.175l-.239-.063a.219.219,0,0,1-.174-.256l.005-.021.022-.069a.27.27,0,0,1,.316-.174Zm1.49.3.569.122a.215.215,0,0,1,.176.248.146.146,0,0,1-.007.029l-.022.069a.274.274,0,0,1-.316.174l-.569-.122a.215.215,0,0,1-.176-.248.225.225,0,0,1,.007-.029l.022-.069a.274.274,0,0,1,.316-.174Zm1.291.338.717.163a.216.216,0,0,1,.176.249.224.224,0,0,1-.007.028l-.021.069a.272.272,0,0,1-.316.174l-.717-.162a.216.216,0,0,1-.175-.251c0-.009,0-.018.006-.027l.022-.069a.272.272,0,0,1,.316-.174Zm3.9-1.724.686.259a.157.157,0,0,1,.1.2h0a.154.154,0,0,1-.195.1h0l-.686-.259a.158.158,0,0,1-.1-.2h0a.153.153,0,0,1,.193-.1Zm1.356.493.371.15a.158.158,0,0,1,.1.2h0a.151.151,0,0,1-.192.1h0l-.371-.15a.159.159,0,0,1-.1-.2h0a.152.152,0,0,1,.192-.1l.005,0Zm-2.208-.822.371.15a.159.159,0,0,1,.1.2h0a.153.153,0,0,1-.192.1l0,0-.371-.15a.158.158,0,0,1-.1-.2h0a.152.152,0,0,1,.191-.1l.006,0Zm.264.665.38.132a.158.158,0,0,1,.106.19h0a.152.152,0,0,1-.189.106h0l-.38-.132a.159.159,0,0,1-.106-.19h0a.153.153,0,0,1,.188-.106Zm1.057.371.371.15a.158.158,0,0,1,.1.2h0a.152.152,0,0,1-.192.1l-.005,0-.371-.15a.16.16,0,0,1-.1-.2h0a.152.152,0,0,1,.192-.1Zm-.771.311.544.19a.227.227,0,0,1,.152.276h0a.22.22,0,0,1-.27.154l-.007,0-.544-.19a.228.228,0,0,1-.152-.276h0a.221.221,0,0,1,.271-.154l.006,0Zm1.09.406.13.044a.226.226,0,0,1,.152.276h0a.22.22,0,0,1-.271.154h-.005l-.13-.044a.228.228,0,0,1-.152-.276h0a.22.22,0,0,1,.272-.154Zm-1.922-.682.13.044a.226.226,0,0,1,.152.276h0a.22.22,0,0,1-.271.154h-.005l-.13-.044a.228.228,0,0,1-.152-.276h0a.22.22,0,0,1,.271-.154l.006,0Zm.01.833.349.122a.225.225,0,0,1,.137.287l-.016.047a.225.225,0,0,1-.286.137l-.349-.123a.225.225,0,0,1-.137-.287l.017-.047a.225.225,0,0,1,.286-.137h0Zm-.569-.184h0a.154.154,0,0,1,.028.216l-.173.226a.155.155,0,0,1-.216.028h0a.155.155,0,0,1-.029-.216l.173-.226a.155.155,0,0,1,.216-.029Zm2.348.759h0a.155.155,0,0,1,.041.214l-.16.236a.155.155,0,0,1-.214.042h0a.156.156,0,0,1-.041-.214l.159-.237a.154.154,0,0,1,.214-.042Zm-1.918.352.342.119a.179.179,0,0,1,.118.225.177.177,0,0,1-.03.057l-.049.051c-.086.089-.168.173-.287.137l-.3-.091c-.118-.035-.211-.19-.137-.286l.056-.076c.073-.1.17-.178.286-.137Zm.963.3.342.119a.179.179,0,0,1,.117.225.169.169,0,0,1-.03.058l-.049.051c-.085.089-.168.173-.287.137l-.3-.09c-.118-.035-.211-.19-.137-.286l.056-.076c.073-.1.17-.178.287-.137Zm-1.708-.531.146.035a.176.176,0,0,1,.121.217.169.169,0,0,1-.034.065l-.049.051a.344.344,0,0,1-.286.137l-.1-.006a.2.2,0,0,1-.158-.227.185.185,0,0,1,.021-.06l.056-.076a.272.272,0,0,1,.286-.137Zm-2.779.182.473.092a.2.2,0,0,1,.153.241.232.232,0,0,1-.011.034l-.114.223a.236.236,0,0,1-.275.142l-.414-.132a.219.219,0,0,1-.142-.275l.057-.179a.229.229,0,0,1,.275-.143Zm1.728.483.266.039a.156.156,0,0,1,.119.186.154.154,0,0,1-.033.067l-.147.213c-.068.1-.145.168-.261.136l-.233-.063c-.116-.032-.2-.156-.126-.253l.139-.183a.284.284,0,0,1,.275-.143Zm.87.253.31.059c.119.023.213.178.143.275l-.149.209c-.07.1-.159.176-.275.142l-.316-.091c-.116-.034-.223-.186-.143-.275l.159-.177c.08-.09.157-.165.275-.143Zm-1.509-.453.035.02c.086.051.072.149.008.224l-.171.2c-.158.185-.339.078-.235-.137l.116-.243a.177.177,0,0,1,.241-.067l.007,0Zm-1.674-.437.04.005c.1.013.126.108.1.2l-.079.253c-.072.232-.282.2-.271-.034l.012-.269a.178.178,0,0,1,.194-.158h.008Zm4.2,1.154.217.1c.077.035.1.173.027.216l-.458.267c-.161.094-.36,0-.253-.215a2.39,2.39,0,0,1,.253-.341.168.168,0,0,1,.216-.027Zm-5.338-1.411.236.05c.118.025.133.06.131.18l-.005.31a.165.165,0,0,1-.157.173.154.154,0,0,1-.056-.007l-.273-.063c-.117-.027-.11-.136-.106-.256l.008-.247c0-.121.105-.164.223-.138Zm-.893-.172.385.039c.12.012.085.117.082.237l-.005.235a.225.225,0,0,1-.239.2h-.2c-.12,0-.118-.133-.151-.249l-.093-.333c-.032-.116.111-.14.23-.127Zm.143,1.056.326.071c.118.026.134.063.131.18l-.006.23a.166.166,0,0,1-.159.173.171.171,0,0,1-.054-.007l-.374-.084c-.116-.026-.119-.136-.106-.256l.018-.167c.013-.12.1-.165.223-.139Zm.906.215.039,0c.12.013.127.063.131.18l0,.223c0,.119-.094.175-.213.166l-.089-.008c-.119-.01-.114-.136-.106-.256l.012-.171c.008-.12.1-.152.223-.138Zm-.942.7.111.025c.118.026.142.063.13.18l-.023.235c-.011.12-.1.2-.213.166l-.14-.043c-.115-.035-.119-.136-.106-.256l.018-.168c.013-.12.106-.164.223-.139Zm.685.161.226.031c.12.016.137.063.131.18l-.015.287c-.006.12-.1.208-.213.166l-.246-.094c-.112-.043-.119-.137-.106-.256l.019-.168c.013-.12.085-.163.2-.146Zm1.265-.645.1.027c.116.032.126.093.086.2l-.077.211a.175.175,0,0,1-.213.124.155.155,0,0,1-.033-.012l-.071-.027c-.111-.042-.067-.152-.056-.272l.016-.172c.011-.12.133-.115.249-.084Zm-.107.874.351.113c.115.037.2.093.119.18l-.2.211c-.082.087-.113.186-.226.149l-.173-.058c-.114-.038-.113-.136-.106-.256l.011-.2a.156.156,0,0,1,.159-.153.149.149,0,0,1,.064.015Zm.855-.7.144.048c.114.039.156.109.085.206l-.147.2c-.07.1-.13.144-.245.112l-.137-.038c-.115-.032-.119-.17-.056-.273l.106-.172a.182.182,0,0,1,.242-.087l.007,0Zm.822.46-.151.185c-.154.19-.4.051-.235-.126l.2-.218c.147-.159.364-.06.186.159Zm.584-.071.427.132c.115.035.145.1.085.206l-.144.248c-.06.1-.134.151-.246.112l-.452-.156a.169.169,0,0,1-.088-.223.159.159,0,0,1,.032-.049l.135-.186a.19.19,0,0,1,.249-.083Zm1.041.308.271.059c.118.026.163.115.085.206l-.2.233c-.077.091-.132.145-.246.112l-.242-.069c-.115-.033-.126-.175-.056-.272l.136-.186a.2.2,0,0,1,.249-.083Zm-1.1.649.347.083c.118.028.163.115.086.205l-.2.233c-.077.09-.132.145-.246.112l-.316-.092a.168.168,0,0,1-.09-.221.159.159,0,0,1,.034-.051l.136-.185a.2.2,0,0,1,.249-.084Zm-1.2-.344.528.127c.117.029.162.115.086.206l-.2.233c-.077.09-.131.144-.246.112l-.5-.139c-.114-.032-.127-.175-.056-.273l.136-.186a.2.2,0,0,1,.249-.083Zm-5.255-3.065c-.319-.021-.4-.109-.506.208l-.08.243c-.037.114.042.179.161.183l.2.008c.147.006.183-.026.265-.162s.15-.295.183-.354c.059-.1-.11-.12-.231-.127Zm-.919-.094c-.253-.015-.281-.109-.386.208l-.08.243c-.037.114.042.182.161.184h.152c.147,0,.168-.016.237-.158a1.434,1.434,0,0,0,.113-.333c.02-.1-.114-.142-.2-.147Zm.448,1.044c-.32-.021-.469-.2-.574.121l-.08.243c-.037.114.043.173.161.184l.356.031c.146.013.164.006.246-.127.14-.233.181-.43-.108-.448Zm-.99.8c-.319-.021-.483-.159-.587.159l-.08.243c-.038.113.042.173.161.183l.356.031c.146.013.166.008.246-.127.159-.274.195-.467-.095-.486Zm.7.091.044.011a.2.2,0,0,1,.147.245l-.058.228a.2.2,0,0,1-.245.147l-.044-.011a.2.2,0,0,1-.147-.245h0l.057-.228a.2.2,0,0,1,.246-.147Zm-.7-1.012.025.008a.114.114,0,0,1,.075.142l-.113.369a.114.114,0,0,1-.142.076l-.024-.008a.114.114,0,0,1-.075-.142l.113-.369a.113.113,0,0,1,.142-.075Zm-.263-.993.024.008a.113.113,0,0,1,.077.14v0l-.126.37c-.049.143-.238.1-.2-.049l.092-.395a.111.111,0,0,1,.137-.077l.005,0Zm-.471.9c-.319-.021-.3-.045-.333.154l-.044.243c-.021.117.063.183.183.183h.092c.146,0,.142-.049.224-.185.141-.233.168-.38-.122-.4Zm-.87-.069h.132a.151.151,0,0,1,.154.147v.006l-.023.3a.169.169,0,0,1-.154.153l-.05.008c-.083.013-.137-.07-.153-.154l-.059-.3c-.016-.083.069-.154.154-.154Zm.139.915.431.029c.084.006.182.074.153.154l-.114.321c-.028.079-.07.159-.154.154l-.26-.016a.17.17,0,0,1-.154-.154l-.057-.334a.143.143,0,0,1,.132-.154h.022Zm-2.117-.109.439.005a.158.158,0,0,1,.154.154l.019.347a.15.15,0,0,1-.145.154h-.009l-.4-.018a.169.169,0,0,1-.154-.154l-.057-.335a.146.146,0,0,1,.138-.154h.015Zm1.025.054h.216a.163.163,0,0,1,.154.154l.047.345a.146.146,0,0,1-.138.154H945.6l-.206-.009a.169.169,0,0,1-.154-.154l-.057-.334a.147.147,0,0,1,.139-.154h.015Zm-.419-.926.443.006c.084,0,.133.072.153.154l.078.309c.02.082-.07.154-.154.154l-.478,0a.164.164,0,0,1-.154-.154l-.041-.311a.147.147,0,0,1,.14-.154h.012Zm-.788-.022.283.015a.161.161,0,0,1,.154.154l.017.295a.153.153,0,0,1-.151.154h-.263a.163.163,0,0,1-.154-.154l-.041-.311a.145.145,0,0,1,.137-.154h.017Zm2.365-.861.591.012c.085,0,.172.071.154.154l-.08.37c-.017.082-.069.157-.154.154l-.506-.021a.157.157,0,0,1-.154-.154l0-.361a.152.152,0,0,1,.15-.154h0Zm-2.327-.158.393.01a.16.16,0,0,1,.153.154l.033.376a.148.148,0,0,1-.142.154H944.6l-.361-.025a.17.17,0,0,1-.154-.154l-.063-.361a.145.145,0,0,1,.135-.154h.016Zm.934.049.147.018a.171.171,0,0,1,.154.154l.044.359a.145.145,0,0,1-.137.154h-.017l-.151-.013a.167.167,0,0,1-.154-.154l-.04-.364a.143.143,0,0,1,.133-.154h.022Zm.932.1h.016a.063.063,0,0,1,.06.054l.023.217a.047.047,0,0,1-.041.053h-.02a.063.063,0,0,1-.06-.054l-.024-.217a.047.047,0,0,1,.041-.053h0Zm-2.4-.182h.028a.172.172,0,0,1,.159.127l.063.284a.1.1,0,0,1-.071.123.112.112,0,0,1-.029,0h-.029a.174.174,0,0,1-.159-.127l-.063-.284a.1.1,0,0,1,.072-.123.108.108,0,0,1,.028,0Zm-1.97,0h-.029a.172.172,0,0,0-.159.127l-.063.284a.1.1,0,0,0,.071.123.11.11,0,0,0,.029,0h.028a.172.172,0,0,0,.159-.127l.063-.284a.1.1,0,0,0-.071-.123.1.1,0,0,0-.03,0Zm-.54.03-.443.01c-.085,0-.133.072-.154.154l-.1.376c-.02.082.07.158.154.154l.462-.025a.173.173,0,0,0,.154-.154l.075-.361c.017-.083-.069-.156-.154-.154Zm-1.027.049-.147.018a.172.172,0,0,0-.154.154l-.044.359a.145.145,0,0,0,.136.154h.017l.151-.013a.167.167,0,0,0,.154-.154l.04-.364a.143.143,0,0,0-.133-.154h-.021Zm-1.292.114-.506.007a.155.155,0,0,0-.154.154v.38a.153.153,0,0,0,.151.154h0l.462-.024a.164.164,0,0,0,.154-.154l.041-.361a.148.148,0,0,0-.142-.154H938.8Zm.52-.089h.028a.117.117,0,0,1,.118.115.059.059,0,0,1,0,.011l-.039.448a.142.142,0,0,1-.139.127h-.028a.116.116,0,0,1-.117-.115s0-.008,0-.012l.039-.448a.142.142,0,0,1,.138-.126Zm1.834.871-.347.018c-.084,0-.126.075-.154.154l-.116.359c-.026.08.07.158.154.154l.462-.024a.158.158,0,0,0,.154-.154v-.352a.151.151,0,0,0-.149-.154h0Zm-.972.063-.443.009c-.085,0-.133.072-.154.154l-.1.376c-.02.082.07.158.154.154l.463-.024a.172.172,0,0,0,.154-.154l.075-.361c.017-.083-.069-.156-.154-.154Zm.861.891-.752.027c-.084,0-.133.073-.154.154l-.1.376c-.02.081.07.157.154.154l.772-.033a.171.171,0,0,0,.154-.154l.075-.369a.144.144,0,0,0-.154-.154Zm-3.265-1.631h.028a.172.172,0,0,1,.159.126l.063.284a.1.1,0,0,1-.071.123.116.116,0,0,1-.029,0H937.9a.173.173,0,0,1-.159-.127l-.063-.284a.1.1,0,0,1,.071-.123.112.112,0,0,1,.029,0Zm1.324.818-.2.006a.161.161,0,0,0-.154.154l-.021.337a.152.152,0,0,0,.15.154h.164a.167.167,0,0,0,.154-.154l.063-.343a.144.144,0,0,0-.134-.154H939.1Zm-.8.033-.086.006c-.084.006-.173.073-.154.154l.08.328c.019.081.07.155.154.154h.023a.152.152,0,0,0,.154-.152h0l-.018-.334a.152.152,0,0,0-.151-.154h0Zm.618.9-.312.016c-.084,0-.173.073-.154.154l.08.328c.02.081.07.154.154.154h.136c.083,0,.131-.073.154-.154l.1-.345C939.1,490.3,939.007,490.227,938.922,490.231Zm.793-.044-.2.006a.168.168,0,0,0-.154.154l-.055.335a.149.149,0,0,0,.144.154h.224a.163.163,0,0,0,.154-.154l.045-.34a.146.146,0,0,0-.139-.154h-.014Zm-2.776-1.65-.464.063c-.084.011-.183.076-.154.154l.127.333c.029.078.07.161.153.154l.512-.045c.084-.008.19-.078.154-.154l-.172-.348c-.037-.076-.07-.164-.154-.154Zm-.284,1.012-.48.068c-.084.011-.176.073-.154.153l.091.333c.022.08.07.161.154.154l.526-.045c.083-.007.183-.075.154-.154l-.136-.356c-.03-.078-.07-.165-.154-.154Zm.656-.056-.1.009c-.084.008-.147.068-.127.148l.091.333a.2.2,0,0,0,.19.151l.122-.016c.083-.01.156-.068.126-.148l-.119-.332a.2.2,0,0,0-.19-.145Zm-.768,1.012-.1.01c-.084.008-.147.068-.126.147l.091.333a.2.2,0,0,0,.19.151l.073-.009c.083-.01.144-.063.127-.148l-.069-.34a.189.189,0,0,0-.19-.145Zm1.089-.142-.536.075c-.083.011-.146.068-.127.148l.091.333a.2.2,0,0,0,.19.151l.607-.074c.083-.01.165-.071.127-.148l-.164-.34c-.037-.076-.1-.157-.19-.145Zm-1.733-1.7-.281.051c-.108.019-.19.094-.115.19l.222.275c.052.063.07.158.154.154l.253-.012c.083,0,.183-.075.154-.154l-.136-.365a.2.2,0,0,0-.243-.139l-.006,0Zm-2.193.359h.033c.083,0,.178.073.15.15l-.141.38c-.069.19-.19.2-.19,0v-.38a.15.15,0,0,1,.15-.15Zm-.519,1.139.343-.035a.146.146,0,0,1,.154.138.062.062,0,0,1,0,.016l-.023.29a.175.175,0,0,1-.154.154l-.332.063a.144.144,0,0,1-.154-.134v-.02l.013-.321a.163.163,0,0,1,.154-.154Zm-.316.993.619-.159c.082-.021.158.07.154.153l-.02.371a.173.173,0,0,1-.154.154l-.569.105c-.082.015-.146-.07-.154-.154l-.027-.316c-.008-.084.072-.133.154-.154Zm-.667-.793.447-.1c.082-.018.151.071.154.154l.012.335a.17.17,0,0,1-.154.154l-.46.093c-.082.016-.154-.069-.154-.154v-.328c0-.084.071-.135.154-.154Zm.056.917.123-.035c.082-.023.151.071.154.154l.012.335c0,.083-.073.135-.154.154l-.152.037c-.08.02-.158-.069-.154-.154l.016-.336c0-.084.073-.13.154-.154Zm-.027-1.976h.041a.19.19,0,0,1,.19.187v.337a.19.19,0,0,1-.19.19h-.041a.19.19,0,0,1-.187-.19v-.337A.19.19,0,0,1,932.233,489.3Zm.659-.131.28-.053a.175.175,0,0,1,.187.163.182.182,0,0,1,0,.027l-.013.364a.2.2,0,0,1-.19.19l-.267.027a.182.182,0,0,1-.19-.173v-.354a.2.2,0,0,1,.19-.19Zm-1.421.326.1-.023c.1-.023.194.084.19.19l-.023.352a.189.189,0,0,1-.19.19h-.041a.2.2,0,0,1-.19-.19l-.034-.329c-.011-.1.087-.164.19-.19Zm-1.16.276.578-.134c.1-.023.193.084.19.19l-.023.352a.215.215,0,0,1-.19.19l-.428.107c-.1.025-.15-.091-.19-.19l-.126-.325c-.037-.1.087-.164.187-.19Zm.978.809.364-.079c.083-.018.159.071.154.153l-.024.332a.175.175,0,0,1-.154.153l-.293.059c-.081.016-.141-.07-.154-.154l-.047-.312c-.013-.084.071-.135.153-.154Zm.009.931.357-.091c.082-.021.159.071.154.154l-.022.353a.165.165,0,0,1-.154.154l-.118.009c-.082.006-.1-.088-.154-.154l-.217-.271C931.093,491.607,931.217,491.537,931.3,491.516Zm-.712-.763.026-.005a.181.181,0,0,1,.18.085l.161.281a.084.084,0,0,1-.017.118.081.081,0,0,1-.038.016l-.026.006a.182.182,0,0,1-.181-.085l-.161-.281a.084.084,0,0,1,.017-.118.081.081,0,0,1,.039-.016Zm31.595-4.7-.159-.057a.227.227,0,0,0-.278.1l-.094.163a.2.2,0,0,0,.081.268l.021.01.153.054a.23.23,0,0,0,.278-.1l.1-.159a.2.2,0,0,0-.077-.266l-.025-.011Zm.55.239a.126.126,0,0,0-.178,0l-.007.008-.175.29c-.092.154.033.269.145.138l.221-.259c.063-.073.063-.127-.006-.18Zm-.633.785-.242-.144a.138.138,0,0,0-.19.044l0,.005-.271.557a.146.146,0,0,0,.049.193l.112.063a.151.151,0,0,0,.19-.049l.4-.479a.134.134,0,0,0-.041-.185l-.008,0Z" transform="translate(-908.116 -482.005)"/></svg>