<svg xmlns="http://www.w3.org/2000/svg" width="55.075" height="53.595" viewBox="0 0 55.075 53.595"><defs><style>.a,.b{fill:none;stroke:red;fill-rule:evenodd;}.a{stroke-width:4px;}.b{stroke-width:2px;}</style></defs><g transform="translate(-964.5 -284.5)"><path class="a" d="M968.141,286.5h47.8a1.765,1.765,0,0,1,1.638,1.8v33.421a1.624,1.624,0,0,1-1.609,1.638H999.906c-.125,0-.482-.047-.792-.047a.77.77,0,0,0-.482.1l-9.7,9.817v-8.331a1.565,1.565,0,0,0-.422-1.08,1.469,1.469,0,0,0-1.018-.467H968.141a1.6,1.6,0,0,1-1.638-1.55V288.3A1.735,1.735,0,0,1,968.141,286.5Z"/><path class="b" d="M996.978,309.635a15.993,15.993,0,0,1-6.228-3.187,14.229,14.229,0,0,1-3.787-4.676l-.2-.42.65-.277a1.866,1.866,0,0,0,1.107-2.381l-1.891-4.509c-.279-.634-1.878-.787-2.57-.767a2.076,2.076,0,0,0-.821.172l-3.586,2.771a1.859,1.859,0,0,0-1.082,2.333l1.179,2.9s1.143,2.357,1.623,3.058c.311.469.634.914.818,1.142a34.991,34.991,0,0,0,4.8,4.869c5.038,4.232,10.713,6.829,14.906,7.108.126,0,.215-.023.336-.023a1.975,1.975,0,0,0,1.972-1.338l1.41-4.8c.284-.978.684-2.248-.294-2.531h-.013c-.055-.017-.11-.03-.166-.041l-5.476-1.277a2.142,2.142,0,0,0-2.5,1.336Z" transform="translate(0.289 -0.844)"/></g></svg>