<svg xmlns="http://www.w3.org/2000/svg" width="28.787" height="25.786" viewBox="0 0 28.787 25.786"><defs><style>.a{fill:none;stroke:#fff;stroke-width:2px;}</style></defs><g transform="translate(-1563.999 -93)"><g transform="translate(1565 94)"><path class="a" d="M403.7,337.843H421.3a.649.649,0,0,1,.6.662v12.313a.6.6,0,0,1-.593.6H415.4c-.046,0-.178-.017-.292-.017a.283.283,0,0,0-.178.037l-3.572,3.617v-3.069a.581.581,0,0,0-.156-.4.542.542,0,0,0-.375-.172H403.7a.587.587,0,0,1-.6-.571V338.506A.639.639,0,0,1,403.7,337.843Z" transform="translate(-403.092 -337.843)"/><path class="a" d="M424.992,355.086h1.13c.045,0,.173-.017.285-.017a.277.277,0,0,1,.173.036l3.484,3.527v-2.993a.562.562,0,0,1,.152-.388.529.529,0,0,1,.366-.168h6.954a.572.572,0,0,0,.588-.557V342.489a.623.623,0,0,0-.588-.646h-4.523" transform="translate(-411.339 -336.282)"/></g></g></svg>