<svg xmlns="http://www.w3.org/2000/svg" width="58.366" height="46.997" viewBox="0 0 58.366 46.997"><defs><style>.a,.b{fill:none;}.a,.b,.c{stroke:red;}.a{stroke-width:4px;}.b{stroke-width:5px;}.c{fill:rgba(0,0,0,0);stroke-width:2px;}</style></defs><g transform="translate(-173 -23.499)"><path class="a" d="M180.767,25.5h-2.741a3.714,3.714,0,0,0-3.526,3.885V60.854a3.714,3.714,0,0,0,3.526,3.885H225.34a3.714,3.714,0,0,0,3.526-3.885V29.385A3.714,3.714,0,0,0,225.34,25.5H180.767Z" transform="translate(0.5 0)"/><line class="b" x2="0.078" y2="4.228" transform="translate(200.863 66.222)"/><path class="c" d="M191.678,37.964l-3.644,2.722v4.485h13.981V40.914l-3.539-2.643" transform="translate(5.589 9.209)"/><circle class="c" cx="4.029" cy="4.029" r="4.029" transform="translate(196.485 33.769)"/></g></svg>