<svg xmlns="http://www.w3.org/2000/svg" width="59.38" height="48.401" viewBox="0 0 59.38 48.401"><defs><style>.a,.b{fill:none;stroke:red;}.a{stroke-width:2px;}.b{stroke-width:4px;}</style></defs><g transform="translate(-1099.549 -1246.725)"><line class="a" y1="1.45" x2="3.096" transform="translate(1107.598 1262.204)"/><line class="a" y1="1.184" x2="2.621" transform="translate(1109.317 1266.218)"/><line class="a" y1="0.873" x2="1.93" transform="translate(1111.037 1270.276)"/><line class="a" y1="0.471" x2="1.183" transform="translate(1112.756 1274.425)"/><line class="a" y1="0.292" x2="0.764" transform="translate(1114.476 1278.352)"/><path class="b" d="M1123.27,1290.436l-3.348,1.7a3.3,3.3,0,0,1-4.357-1.616l-13.7-29.866a3.3,3.3,0,0,1,1.615-4.356l9.5-4.2" transform="translate(0 0.674)"/><line class="a" y1="0.697" x2="3.641" transform="translate(1119.068 1259.172)"/><line class="a" y1="0.757" x2="3.958" transform="translate(1119.843 1263.161)"/><line class="a" y1="0.578" x2="3.025" transform="translate(1120.616 1267.389)"/><line class="a" y1="0.448" x2="2.346" transform="translate(1121.39 1271.568)"/><line class="a" y1="0.384" x2="2.006" transform="translate(1122.165 1275.682)"/><path class="b" d="M1131.536,1288.824l-9.535,1.929a3.293,3.293,0,0,1-3.844-2.609l-6.172-32.276a3.294,3.294,0,0,1,2.609-3.844l7.26-1.433" transform="translate(2.069 0.373)"/><line class="a" y1="0.001" x2="23.439" transform="translate(1129.329 1256.722)"/><line class="a" y1="0.001" x2="23.439" transform="translate(1129.329 1260.954)"/><line class="a" x2="23.44" transform="translate(1129.329 1265.187)"/><line class="a" x2="23.44" transform="translate(1129.329 1269.419)"/><line class="a" y1="0.001" x2="23.44" transform="translate(1129.329 1273.65)"/><line class="a" y1="0.001" x2="23.44" transform="translate(1129.329 1277.882)"/><line class="a" x2="23.44" transform="translate(1129.329 1282.115)"/><path class="b" d="M4.75,0H27.206a4.751,4.751,0,0,1,4.751,4.751V35.727a4.75,4.75,0,0,1-4.75,4.75H4.75A4.75,4.75,0,0,1,0,35.728V4.75A4.75,4.75,0,0,1,4.75,0Z" transform="translate(1124.973 1248.725)"/></g></svg>