<svg xmlns="http://www.w3.org/2000/svg" width="164.633" height="36.195" viewBox="0 0 164.633 36.195"><defs><style>.a{isolation:isolate;}.b{fill:#0953ff;}</style></defs><g transform="translate(45.019 7)"><g class="a" transform="translate(0.199 0.199)"><path class="b" d="M724.062,530.489V509.477h7a21.819,21.819,0,0,1,3.531.2,6.151,6.151,0,0,1,1.9.656,4.822,4.822,0,0,1,1.911,1.933,5.763,5.763,0,0,1,.671,2.8,5.837,5.837,0,0,1-.87,3.265,4.767,4.767,0,0,1-2.526,1.9,3.3,3.3,0,0,1,1.841,1.312,9.053,9.053,0,0,1,.785,3.567l.271,3.153a4.832,4.832,0,0,0,.228,1.227,1.613,1.613,0,0,0,.442.713v.285h-2.139a3.445,3.445,0,0,1-.285-.857,9.355,9.355,0,0,1-.171-1.3l-.243-2.782q-.213-2.88-1.026-3.673t-3.267-.791h-6.134v9.4Zm1.926-11.127h5.577a7,7,0,0,0,4.23-1,3.842,3.842,0,0,0,1.291-3.239,4.148,4.148,0,0,0-.406-1.854,3.307,3.307,0,0,0-1.163-1.327,3.868,3.868,0,0,0-1.4-.571,14.5,14.5,0,0,0-2.668-.171h-5.463Z" transform="translate(-724.062 -509.477)"/><path class="b" d="M749.887,513.881v15.164h-1.7V526.62a5.832,5.832,0,0,1-2.118,2.139,5.965,5.965,0,0,1-2.96.7,5.114,5.114,0,0,1-3.859-1.347,5.628,5.628,0,0,1-1.291-4.03v-10.2h1.754v9.786a4.812,4.812,0,0,0,.856,3.224,3.673,3.673,0,0,0,2.853.955,4.515,4.515,0,0,0,3.445-1.332,5.11,5.11,0,0,0,1.263-3.66v-8.973Z" transform="translate(-719.503 -508.033)"/><path class="b" d="M749.424,524.418h1.754a3.439,3.439,0,0,0,1.191,2.546,4.212,4.212,0,0,0,2.875.977,5.2,5.2,0,0,0,2.988-.749,2.34,2.34,0,0,0,1.092-2.032q0-1.84-4.037-2.81l-.072-.014a11.356,11.356,0,0,1-4.358-1.727,3.263,3.263,0,0,1-1.1-2.625,3.955,3.955,0,0,1,1.448-3.174,5.661,5.661,0,0,1,3.774-1.219,6.1,6.1,0,0,1,4.065,1.276,4.86,4.86,0,0,1,1.669,3.546h-1.784a3.292,3.292,0,0,0-1.155-2.405,4.3,4.3,0,0,0-2.825-.862,3.957,3.957,0,0,0-2.482.713,2.259,2.259,0,0,0-.927,1.883q0,2.024,4.137,3c.361.081.633.141.814.177a8.363,8.363,0,0,1,3.608,1.605,3.512,3.512,0,0,1,1.013,2.681,3.772,3.772,0,0,1-1.591,3.138,6.726,6.726,0,0,1-4.187,1.212,6.2,6.2,0,0,1-4.236-1.4A4.925,4.925,0,0,1,749.424,524.418Z" transform="translate(-715.744 -508.128)"/><path class="b" d="M763.4,510.6v4.352h2.81v1.426H763.4v11.055a2.288,2.288,0,0,0,.243,1.284,1.041,1.041,0,0,0,.87.313,4.3,4.3,0,0,0,.614-.049c.228-.033.584-.1,1.07-.207l.013,1.4a10.514,10.514,0,0,1-1.17.248,6.7,6.7,0,0,1-1,.08,2.274,2.274,0,0,1-1.854-.663,3.933,3.933,0,0,1-.542-2.4V516.382h-2.069v-1.426h2.069V510.6Z" transform="translate(-712.415 -509.107)"/><path class="b" d="M771.9,509.477h1.426a20.626,20.626,0,0,1,3.894.271,6.644,6.644,0,0,1,2.24.87,7.705,7.705,0,0,1,2.96,3.617,16.678,16.678,0,0,1-.093,11.733,7.539,7.539,0,0,1-3.295,3.623,7.138,7.138,0,0,1-2.24.692,28.756,28.756,0,0,1-4.052.207h-5.777V509.477Zm-3.01,19.286h4.066a24.243,24.243,0,0,0,3.48-.178,5.265,5.265,0,0,0,1.826-.607,5.756,5.756,0,0,0,2.383-2.918,16.535,16.535,0,0,0,.028-9.97,5.956,5.956,0,0,0-2.254-2.947,5.119,5.119,0,0,0-1.891-.726,22.854,22.854,0,0,0-3.787-.215h-3.851Z" transform="translate(-709.991 -509.477)"/><path class="b" d="M783.218,521.893v.085a6.813,6.813,0,0,0,1.341,4.43,4.4,4.4,0,0,0,3.595,1.647,4.615,4.615,0,0,0,2.981-.961,4.028,4.028,0,0,0,1.455-2.633h1.754a5.425,5.425,0,0,1-2,3.7,6.6,6.6,0,0,1-4.308,1.392,5.98,5.98,0,0,1-4.85-2.1,8.8,8.8,0,0,1-1.754-5.821,9.015,9.015,0,0,1,1.761-5.92,6.013,6.013,0,0,1,4.9-2.125,5.87,5.87,0,0,1,4.758,2.033,8.6,8.6,0,0,1,1.7,5.684v.586Zm.029-1.413,9.5.015a6.266,6.266,0,0,0-1.363-3.945,4.186,4.186,0,0,0-3.316-1.433,4.341,4.341,0,0,0-3.389,1.456A6.138,6.138,0,0,0,783.247,520.481Z" transform="translate(-705.245 -508.128)"/><path class="b" d="M793.177,524.418h1.754a3.44,3.44,0,0,0,1.191,2.546,4.212,4.212,0,0,0,2.875.977,5.2,5.2,0,0,0,2.988-.749,2.341,2.341,0,0,0,1.092-2.032q0-1.84-4.037-2.81l-.072-.014a11.355,11.355,0,0,1-4.358-1.727,3.263,3.263,0,0,1-1.1-2.625,3.954,3.954,0,0,1,1.447-3.174,5.66,5.66,0,0,1,3.773-1.219,6.1,6.1,0,0,1,4.066,1.276,4.859,4.859,0,0,1,1.669,3.546h-1.783a3.3,3.3,0,0,0-1.155-2.405,4.3,4.3,0,0,0-2.825-.862,3.957,3.957,0,0,0-2.482.713,2.259,2.259,0,0,0-.927,1.883q0,2.024,4.137,3c.361.081.633.141.814.177a8.363,8.363,0,0,1,3.608,1.605,3.512,3.512,0,0,1,1.013,2.681,3.772,3.772,0,0,1-1.591,3.138,6.726,6.726,0,0,1-4.187,1.212,6.2,6.2,0,0,1-4.236-1.4A4.926,4.926,0,0,1,793.177,524.418Z" transform="translate(-701.395 -508.128)"/><path class="b" d="M804.467,530.489V509.477h1.754v13.209l7.575-7.361h2.24l-5.721,5.55,6.419,9.615h-2.006l-5.639-8.446-2.868,2.754v5.692Z" transform="translate(-697.692 -509.477)"/></g><g class="a" transform="translate(0 0)"><path class="b" d="M739.5,530.738h-2.459l-.056-.108a3.69,3.69,0,0,1-.3-.906,9.776,9.776,0,0,1-.175-1.327l-.242-2.778c-.139-1.866-.465-3.058-.968-3.547s-1.552-.736-3.127-.736h-5.935v9.4h-2.324V509.327h7.2a21.828,21.828,0,0,1,3.566.2,6.379,6.379,0,0,1,1.967.679,5.042,5.042,0,0,1,1.989,2.012,6.586,6.586,0,0,1-.208,6.273,4.853,4.853,0,0,1-2.145,1.789,3.234,3.234,0,0,1,1.462,1.207,9.062,9.062,0,0,1,.814,3.655l.271,3.153a4.7,4.7,0,0,0,.219,1.178,1.424,1.424,0,0,0,.381.627l.072.06Zm-2.214-.4H739.1a1.937,1.937,0,0,1-.43-.733,5.018,5.018,0,0,1-.238-1.279l-.271-3.15a8.969,8.969,0,0,0-.756-3.478,3.123,3.123,0,0,0-1.734-1.23l-.558-.185.556-.191a4.592,4.592,0,0,0,2.422-1.819,5.659,5.659,0,0,0,.838-3.156,5.6,5.6,0,0,0-.647-2.708,4.635,4.635,0,0,0-1.834-1.855,5.98,5.98,0,0,0-1.842-.635,21.864,21.864,0,0,0-3.5-.2h-6.806V530.34h1.529v-9.4h6.333c1.706,0,2.821.278,3.406.849s.938,1.81,1.086,3.8l.242,2.779a9.621,9.621,0,0,0,.167,1.274A3.656,3.656,0,0,0,737.289,530.34Zm-5.674-10.729h-5.777v-8.559H731.5a14.852,14.852,0,0,1,2.709.175,4.107,4.107,0,0,1,1.469.6,3.544,3.544,0,0,1,1.23,1.4,4.368,4.368,0,0,1,.426,1.941,4.047,4.047,0,0,1-1.368,3.4A7.213,7.213,0,0,1,731.614,519.611Zm-5.378-.4h5.378a6.851,6.851,0,0,0,4.107-.957,3.666,3.666,0,0,0,1.214-3.081,3.964,3.964,0,0,0-.387-1.766,3.129,3.129,0,0,0-1.093-1.248,3.69,3.69,0,0,0-1.329-.542,14.468,14.468,0,0,0-2.627-.167h-5.264Z" transform="translate(-723.912 -509.327)"/><path class="b" d="M743.161,529.706a5.323,5.323,0,0,1-4-1.408,5.84,5.84,0,0,1-1.346-4.168v-10.4h2.153v9.985a4.654,4.654,0,0,0,.806,3.092,3.508,3.508,0,0,0,2.7.89,4.354,4.354,0,0,0,3.3-1.271,4.949,4.949,0,0,0,1.207-3.523v-9.172h2.153v15.563h-2.1v-1.966a5.731,5.731,0,0,1-1.822,1.655A6.192,6.192,0,0,1,743.161,529.706Zm-4.951-15.577v10a5.465,5.465,0,0,0,1.235,3.892,4.949,4.949,0,0,0,3.716,1.286,5.8,5.8,0,0,0,2.863-.673,5.657,5.657,0,0,0,2.045-2.069l.369-.612V528.9h1.3V514.129h-1.356V522.9a5.326,5.326,0,0,1-1.317,3.8,4.728,4.728,0,0,1-3.59,1.394,3.869,3.869,0,0,1-3-1.021,5.015,5.015,0,0,1-.907-3.357v-9.587Z" transform="translate(-719.353 -507.883)"/><path class="b" d="M755.38,529.8a6.413,6.413,0,0,1-4.368-1.447,5.144,5.144,0,0,1-1.737-3.88l-.007-.206h2.151l.008.19a3.218,3.218,0,0,0,1.123,2.4,4.033,4.033,0,0,0,2.744.93,5.036,5.036,0,0,0,2.875-.716,2.133,2.133,0,0,0,1.005-1.867c0-1.117-1.307-2-3.884-2.616l-.064-.013a11.413,11.413,0,0,1-4.449-1.77,3.466,3.466,0,0,1-1.175-2.777,4.165,4.165,0,0,1,1.519-3.327,5.884,5.884,0,0,1,3.9-1.266,6.318,6.318,0,0,1,4.193,1.323,5.073,5.073,0,0,1,1.738,3.684l.016.214h-2.182l-.013-.185a3.114,3.114,0,0,0-1.085-2.267,4.129,4.129,0,0,0-2.7-.815,3.8,3.8,0,0,0-2.361.671,2.059,2.059,0,0,0-.849,1.726c0,1.238,1.34,2.182,3.983,2.8.358.081.628.139.807.175a8.563,8.563,0,0,1,3.706,1.656,3.716,3.716,0,0,1,1.076,2.826,3.975,3.975,0,0,1-1.669,3.3A6.95,6.95,0,0,1,755.38,529.8Zm-5.7-5.135a4.714,4.714,0,0,0,1.591,3.389,6.037,6.037,0,0,0,4.106,1.348,6.565,6.565,0,0,0,4.066-1.171,3.555,3.555,0,0,0,1.513-2.98,3.336,3.336,0,0,0-.951-2.536,8.206,8.206,0,0,0-3.519-1.556c-.173-.035-.446-.094-.81-.177-2.849-.669-4.292-1.744-4.292-3.191a2.457,2.457,0,0,1,1.005-2.041A4.172,4.172,0,0,1,755,515a4.515,4.515,0,0,1,2.952.907,3.453,3.453,0,0,1,1.21,2.36h1.385a4.623,4.623,0,0,0-1.582-3.194,5.928,5.928,0,0,0-3.936-1.23,5.494,5.494,0,0,0-3.645,1.173A3.733,3.733,0,0,0,750,518.033a3.046,3.046,0,0,0,1.036,2.474,11.243,11.243,0,0,0,4.275,1.684l.064.013c2.827.679,4.2,1.661,4.2,3.005a2.539,2.539,0,0,1-1.178,2.2,5.417,5.417,0,0,1-3.1.784,4.422,4.422,0,0,1-3.006-1.027,3.613,3.613,0,0,1-1.247-2.5Z" transform="translate(-715.596 -507.978)"/><path class="b" d="M764.089,530.753a2.469,2.469,0,0,1-2.008-.736,4.058,4.058,0,0,1-.587-2.531V516.63h-2.069v-1.824h2.069v-4.351h2.153v4.351h2.81v1.824h-2.81v10.856a2.056,2.056,0,0,0,.2,1.162c.179.232.614.287,1.3.19.227-.034.583-.1,1.056-.2l.239-.053.019,1.8-.15.04a10.818,10.818,0,0,1-1.193.254A7.017,7.017,0,0,1,764.089,530.753Zm-4.266-14.521h2.069v11.255a3.791,3.791,0,0,0,.5,2.279,2.1,2.1,0,0,0,1.7.59,6.6,6.6,0,0,0,.969-.077c.3-.045.637-.114,1-.206l-.009-1c-.365.077-.648.13-.844.159-.863.124-1.392.02-1.671-.34a2.421,2.421,0,0,1-.284-1.406V516.232h2.81V515.2h-2.81v-4.352h-1.356V515.2h-2.069Z" transform="translate(-712.265 -508.957)"/><path class="b" d="M772.792,530.738h-5.976V509.327h6.561a20.883,20.883,0,0,1,3.935.275,6.9,6.9,0,0,1,2.307.9,7.955,7.955,0,0,1,3.036,3.706,16.879,16.879,0,0,1-.094,11.894,7.766,7.766,0,0,1-3.382,3.716,7.325,7.325,0,0,1-2.3.713A29.139,29.139,0,0,1,772.792,530.738Zm-5.577-.4h5.577a28.706,28.706,0,0,0,4.021-.2,6.981,6.981,0,0,0,2.177-.671,7.378,7.378,0,0,0,3.208-3.53,16.486,16.486,0,0,0,.09-11.572,7.552,7.552,0,0,0-2.883-3.527,6.477,6.477,0,0,0-2.174-.843,20.479,20.479,0,0,0-3.854-.268h-6.163Zm5.793-1.328h-4.266V511.052h4.05a23.386,23.386,0,0,1,3.826.218,5.344,5.344,0,0,1,1.963.757,6.176,6.176,0,0,1,2.329,3.041,16.72,16.72,0,0,1-.029,10.116,5.981,5.981,0,0,1-2.465,3.015,5.474,5.474,0,0,1-1.9.632A24.567,24.567,0,0,1,773.007,529.012Zm-3.867-.4h3.867a24.114,24.114,0,0,0,3.449-.175,5.08,5.08,0,0,0,1.756-.582,5.583,5.583,0,0,0,2.3-2.821,16.335,16.335,0,0,0,.028-9.824,5.776,5.776,0,0,0-2.178-2.851,4.911,4.911,0,0,0-1.818-.7,22.778,22.778,0,0,0-3.75-.211H769.14Z" transform="translate(-709.841 -509.327)"/><path class="b" d="M788.089,529.8a6.194,6.194,0,0,1-5-2.169,9.031,9.031,0,0,1-1.8-5.948,9.254,9.254,0,0,1,1.806-6.046,6.234,6.234,0,0,1,5.054-2.2,6.078,6.078,0,0,1,4.91,2.1,8.815,8.815,0,0,1,1.752,5.811v.785h-11.34a6.584,6.584,0,0,0,1.295,4.19,4.226,4.226,0,0,0,3.441,1.574,4.438,4.438,0,0,0,2.856-.918,3.848,3.848,0,0,0,1.383-2.508l.026-.169h2.152l-.028.224a5.653,5.653,0,0,1-2.069,3.831A6.83,6.83,0,0,1,788.089,529.8Zm.057-15.962a5.847,5.847,0,0,0-4.746,2.053,8.87,8.87,0,0,0-1.717,5.793,8.658,8.658,0,0,0,1.709,5.693,5.817,5.817,0,0,0,4.7,2.025,6.443,6.443,0,0,0,4.183-1.347,5.217,5.217,0,0,0,1.892-3.348h-1.357a4.186,4.186,0,0,1-1.5,2.588A4.827,4.827,0,0,1,788.2,528.3a4.6,4.6,0,0,1-3.749-1.72,7.034,7.034,0,0,1-1.386-4.556v-.284h11.341v-.386a8.445,8.445,0,0,0-1.657-5.556A5.7,5.7,0,0,0,788.146,513.84Zm4.859,6.9-9.919-.015.011-.21a6.355,6.355,0,0,1,1.485-4.03,4.551,4.551,0,0,1,3.536-1.522,4.4,4.4,0,0,1,3.467,1.5,6.5,6.5,0,0,1,1.41,4.066Zm-9.5-.413,9.078.015a5.973,5.973,0,0,0-1.3-3.615,4.01,4.01,0,0,0-3.166-1.365,4.169,4.169,0,0,0-3.24,1.389A5.866,5.866,0,0,0,783.508,520.331Z" transform="translate(-705.095 -507.978)"/><path class="b" d="M799.133,529.8a6.412,6.412,0,0,1-4.368-1.447,5.14,5.14,0,0,1-1.737-3.88l-.007-.206h2.151l.008.19a3.214,3.214,0,0,0,1.123,2.4,4.033,4.033,0,0,0,2.744.93,5.036,5.036,0,0,0,2.875-.716,2.133,2.133,0,0,0,1.005-1.867c0-1.117-1.307-2-3.884-2.616l-.064-.013a11.413,11.413,0,0,1-4.449-1.77,3.466,3.466,0,0,1-1.175-2.777,4.168,4.168,0,0,1,1.518-3.327,5.886,5.886,0,0,1,3.9-1.266,6.323,6.323,0,0,1,4.2,1.323,5.073,5.073,0,0,1,1.738,3.684l.015.214h-2.181l-.013-.185a3.118,3.118,0,0,0-1.085-2.267,4.132,4.132,0,0,0-2.7-.815,3.8,3.8,0,0,0-2.361.671,2.059,2.059,0,0,0-.849,1.726c0,1.238,1.34,2.182,3.983,2.8q.538.121.807.175a8.561,8.561,0,0,1,3.706,1.656,3.715,3.715,0,0,1,1.076,2.826,3.975,3.975,0,0,1-1.669,3.3A6.949,6.949,0,0,1,799.133,529.8Zm-5.7-5.135a4.714,4.714,0,0,0,1.591,3.389,6.038,6.038,0,0,0,4.106,1.348,6.564,6.564,0,0,0,4.066-1.171,3.554,3.554,0,0,0,1.513-2.98,3.336,3.336,0,0,0-.951-2.536,8.206,8.206,0,0,0-3.521-1.556c-.171-.035-.445-.094-.809-.177-2.849-.669-4.292-1.744-4.292-3.191a2.457,2.457,0,0,1,1.005-2.041,4.169,4.169,0,0,1,2.6-.754,4.516,4.516,0,0,1,2.952.907,3.453,3.453,0,0,1,1.21,2.36H804.3a4.623,4.623,0,0,0-1.582-3.194,5.929,5.929,0,0,0-3.938-1.23,5.49,5.49,0,0,0-3.644,1.173,3.733,3.733,0,0,0-1.377,3.021,3.046,3.046,0,0,0,1.036,2.474,11.242,11.242,0,0,0,4.275,1.684l.064.013c2.827.679,4.2,1.661,4.2,3.005a2.54,2.54,0,0,1-1.178,2.2,5.418,5.418,0,0,1-3.1.784,4.422,4.422,0,0,1-3.007-1.027,3.615,3.615,0,0,1-1.247-2.5Z" transform="translate(-701.246 -507.978)"/><path class="b" d="M817.156,530.738h-2.485L809.1,522.4l-2.635,2.53v5.806h-2.153V509.327h2.153v12.937l7.294-7.089h2.813l-5.955,5.775Zm-2.272-.4h1.528l-6.305-9.443,5.487-5.323h-1.668l-7.855,7.633V509.724h-1.356V530.34h1.356v-5.577l3.1-2.977Z" transform="translate(-697.542 -509.327)"/></g></g><path class="b" d="M670.951,419.7a1.062,1.062,0,0,0-.814-1.033,11.6,11.6,0,0,1,0-22.557,1.062,1.062,0,0,0,.814-1.033v-4.719a1.063,1.063,0,0,0-1.236-1.051,18.352,18.352,0,0,0,0,36.165,1.062,1.062,0,0,0,1.236-1.051Z" transform="translate(-654.5 -389.288)"/><path class="b" d="M798.5,390.355v4.719a1.062,1.062,0,0,0,.814,1.033,11.6,11.6,0,0,1,0,22.557,1.062,1.062,0,0,0-.814,1.033v4.719a1.062,1.062,0,0,0,1.236,1.051,18.352,18.352,0,0,0,0-36.165A1.063,1.063,0,0,0,798.5,390.355Z" transform="translate(-778.252 -389.288)"/></svg>