<svg xmlns="http://www.w3.org/2000/svg" width="183.495" height="64.611" viewBox="0 0 183.495 64.611"><defs><style>.a{fill:#58bfea;}.b{fill:#33a6d5;}.c{fill:#37bbec;}.d{fill:#136396;}.e{fill:#28a0d5;}.f{fill:#0486c4;}.g{fill:#039ed4;}.h{fill:#004f84;}.i{fill:#0a92d1;}</style></defs><path class="a" d="M764.395,503.046c0,.332-6.395,56.238-6.395,56.238l6.336-6.22,4.151-36.693C766.252,509,764.395,502.914,764.395,503.046Z" transform="translate(-758 -499.297)"/><path class="b" d="M811.109,535.844,765.459,501l2.467,7.732,36.751,27.858Z" transform="translate(-751.784 -501)"/><path class="c" d="M761.01,545.962l51.27-21.384-11.513.975-34.178,14.478Z" transform="translate(-755.492 -481.351)"/><path class="d" d="M808.386,534.536l-26.87,3.115-9.882-30.974-4.235-3.21-1.419,12.553c3.37,11.121,7.6,25.159,7.6,25.159L761.83,552.711l-.823,7.278,5.584-2.365,11.838-12.586,22.339-1.892,12.175-5.157Z" transform="translate(-755.494 -498.945)"/><path class="e" d="M765.607,510.313l-4.151,36.693L773.2,535.472S768.976,521.434,765.607,510.313Z" transform="translate(-755.12 -493.239)"/><path class="f" d="M803.555,533.076,766.8,505.217l9.881,30.974Z" transform="translate(-750.663 -497.486)"/><path class="g" d="M764.053,539.587l34.178-14.478L775.891,527Z" transform="translate(-752.956 -480.908)"/><g transform="translate(74.747 22)"><path class="h" d="M.264-23.1H19.569v4.422H12.507V0H7.293V-18.678H.264Zm37.587,7.227A8.763,8.763,0,0,0,35.063-18.1a7.076,7.076,0,0,0-3.217-.809,6.868,6.868,0,0,0-3.564.957,6.885,6.885,0,0,0-2.541,2.607,7.368,7.368,0,0,0-.924,3.663A7.46,7.46,0,0,0,25.74-8a6.973,6.973,0,0,0,2.541,2.64,6.779,6.779,0,0,0,3.564.974A7.449,7.449,0,0,0,35-5.132a9.9,9.9,0,0,0,2.854-2L40.92-3.8a13.905,13.905,0,0,1-4.34,3.036,12.083,12.083,0,0,1-5,1.122A12.317,12.317,0,0,1,25.41-1.2a11.454,11.454,0,0,1-4.356-4.307,11.973,11.973,0,0,1-1.584-6.105,11.547,11.547,0,0,1,1.617-6.039,11.55,11.55,0,0,1,4.439-4.257,12.764,12.764,0,0,1,6.253-1.551,12.535,12.535,0,0,1,4.95,1.039A12.476,12.476,0,0,1,40.887-19.6ZM44.022-23.1H61.611v4.323H49.236v5.016H60.357v4.323H49.236v5.115H61.974V0H44.022Z" transform="translate(-0.264 23.463)"/><path class="i" d="M12.342-23.1q4.422,0,6.831,2.1a7.43,7.43,0,0,1,2.409,5.923,8.065,8.065,0,0,1-2.426,6.253A9.705,9.705,0,0,1,12.342-6.6H7.755V0H2.541V-23.1Zm-.264,12.144a5.049,5.049,0,0,0,3.382-1.007,3.68,3.68,0,0,0,1.171-2.953A3.539,3.539,0,0,0,15.461-17.8a5.167,5.167,0,0,0-3.382-.974H7.755v7.821ZM39.105,0,35.442-6.6H30.129V0H24.915V-23.1H34.947q4.521,0,7,2.1a7.335,7.335,0,0,1,2.475,5.923,8.93,8.93,0,0,1-1.105,4.571A7.1,7.1,0,0,1,40.1-7.623L45.012,0ZM30.129-10.956h4.818a4.993,4.993,0,0,0,3.35-1.007,3.68,3.68,0,0,0,1.172-2.953A3.539,3.539,0,0,0,38.3-17.8a5.109,5.109,0,0,0-3.35-.974H30.129Z" transform="translate(63.736 23.463)"/><path class="i" d="M2.847-3.252H1.88V0H1.088V-3.252H.137V-3.91h2.71ZM4.485-1.429H4.093V0H3.3V-3.91h1.26A1.279,1.279,0,0,1,5.48-3.6a1.148,1.148,0,0,1,.324.874,1.137,1.137,0,0,1-.567,1.09l.685,1.6V0H5.073Zm-.392-.658h.448A.415.415,0,0,0,4.9-2.244a.683.683,0,0,0,.118-.42q0-.588-.459-.588H4.093ZM7.17,0h-.79V-3.91h.79Zm.663,0V-3.91H9.042a1.394,1.394,0,0,1,.931.273.994.994,0,0,1,.318.8.963.963,0,0,1-.132.513.777.777,0,0,1-.36.314.684.684,0,0,1,.406.3,1.034,1.034,0,0,1,.142.56,1.115,1.115,0,0,1-.313.859A1.287,1.287,0,0,1,9.128,0Zm.79-1.7V-.655h.5A.4.4,0,0,0,9.45-.787a.566.566,0,0,0,.11-.373q0-.526-.381-.54Zm0-.575h.411A.418.418,0,0,0,9.5-2.755a.552.552,0,0,0-.107-.381.458.458,0,0,0-.349-.115H8.623ZM13.463-3.91V-1.2a1.265,1.265,0,0,1-.336.933,1.3,1.3,0,0,1-.948.324,1.31,1.31,0,0,1-.96-.328,1.274,1.274,0,0,1-.332-.948V-3.91h.795v2.691a.806.806,0,0,0,.107.475.46.46,0,0,0,.389.142.455.455,0,0,0,.387-.141.8.8,0,0,0,.107-.463v-2.7ZM16.8,0h-.79L14.851-2.565V0h-.79V-3.91h.79l1.157,2.567V-3.91H16.8Zm2.549-.8H18.267l-.209.8h-.835l1.222-3.91h.722L20.4,0h-.843Zm-.905-.658h.73L18.8-2.852Zm3.113.8h1.386V0H20.762V-3.91h.79ZM24.661,0V-3.91H25.7a1.423,1.423,0,0,1,1.092.435A1.7,1.7,0,0,1,27.2-2.283v.634A1.711,1.711,0,0,1,26.8-.439,1.453,1.453,0,0,1,25.674,0Zm.79-3.252v2.6h.236a.662.662,0,0,0,.556-.208,1.238,1.238,0,0,0,.169-.718v-.679a1.389,1.389,0,0,0-.153-.764.618.618,0,0,0-.521-.227Zm4.337,1.56h-1.23V-.655h1.456V0H27.769V-3.91h2.24v.658h-1.45v.924h1.23Zm4.6.389A1.462,1.462,0,0,1,34.01-.29a1.328,1.328,0,0,1-.978.344,1.232,1.232,0,0,1-1.016-.436,1.934,1.934,0,0,1-.353-1.245v-.658a1.884,1.884,0,0,1,.365-1.242,1.252,1.252,0,0,1,1.015-.436,1.26,1.26,0,0,1,.971.357,1.624,1.624,0,0,1,.377,1.026H33.6a1.053,1.053,0,0,0-.128-.571.5.5,0,0,0-.428-.157.479.479,0,0,0-.448.222,1.549,1.549,0,0,0-.14.729v.739a1.7,1.7,0,0,0,.13.8.479.479,0,0,0,.447.218.517.517,0,0,0,.43-.152A1,1,0,0,0,33.6-1.3Zm3.239-.3a1.824,1.824,0,0,1-.372,1.222A1.286,1.286,0,0,1,36.22.054a1.3,1.3,0,0,1-1.034-.431A1.8,1.8,0,0,1,34.8-1.584v-.669a1.922,1.922,0,0,1,.373-1.258,1.27,1.27,0,0,1,1.037-.453,1.276,1.276,0,0,1,1.029.444,1.9,1.9,0,0,1,.381,1.247Zm-.792-.655a1.606,1.606,0,0,0-.15-.787.5.5,0,0,0-.467-.258.505.505,0,0,0-.465.248,1.526,1.526,0,0,0-.156.756v.7a1.454,1.454,0,0,0,.153.756A.519.519,0,0,0,36.22-.6a.506.506,0,0,0,.459-.238,1.426,1.426,0,0,0,.153-.737ZM40.925,0h-.79L38.981-2.565V0h-.79V-3.91h.79l1.157,2.567V-3.91h.787Zm3.088-3.252h-.967V0h-.792V-3.252H41.3V-3.91h2.71Zm2,2.452H44.935l-.209.8H43.89l1.222-3.91h.722L47.064,0h-.843Zm-.905-.658h.73l-.365-1.394Zm3.975.432a.49.49,0,0,0-.122-.361,1.407,1.407,0,0,0-.444-.254,2.071,2.071,0,0,1-.846-.522,1.05,1.05,0,0,1-.258-.708.992.992,0,0,1,.35-.794,1.322,1.322,0,0,1,.89-.3,1.333,1.333,0,0,1,.642.152,1.053,1.053,0,0,1,.434.428,1.285,1.285,0,0,1,.152.628h-.787a.648.648,0,0,0-.117-.418.409.409,0,0,0-.337-.144.422.422,0,0,0-.322.122.459.459,0,0,0-.115.329.405.405,0,0,0,.129.291,1.482,1.482,0,0,0,.457.27,1.956,1.956,0,0,1,.831.508,1.131,1.131,0,0,1,.259.765,1.009,1.009,0,0,1-.325.8,1.286,1.286,0,0,1-.884.287,1.522,1.522,0,0,1-.69-.156,1.168,1.168,0,0,1-.487-.446,1.3,1.3,0,0,1-.176-.685h.792a.747.747,0,0,0,.132.491.539.539,0,0,0,.43.153Q49.081-.588,49.081-1.026ZM51.667,0V-3.91H52.7a1.423,1.423,0,0,1,1.092.435,1.7,1.7,0,0,1,.415,1.192v.634A1.711,1.711,0,0,1,53.8-.439,1.453,1.453,0,0,1,52.68,0Zm.79-3.252v2.6h.236a.662.662,0,0,0,.556-.208,1.238,1.238,0,0,0,.169-.718v-.679a1.389,1.389,0,0,0-.153-.764.618.618,0,0,0-.521-.227ZM57.527-1.6a1.824,1.824,0,0,1-.372,1.222,1.286,1.286,0,0,1-1.033.435,1.3,1.3,0,0,1-1.034-.431,1.8,1.8,0,0,1-.381-1.207v-.669a1.922,1.922,0,0,1,.373-1.258,1.27,1.27,0,0,1,1.037-.453,1.276,1.276,0,0,1,1.029.444,1.9,1.9,0,0,1,.381,1.247Zm-.792-.655a1.606,1.606,0,0,0-.15-.787.5.5,0,0,0-.467-.258.505.505,0,0,0-.465.248A1.526,1.526,0,0,0,55.5-2.3v.7a1.454,1.454,0,0,0,.153.756.519.519,0,0,0,.473.243.506.506,0,0,0,.459-.238,1.426,1.426,0,0,0,.153-.737Zm4.646.567h-1.23V-.655h1.456V0H59.361V-3.91H61.6v.658h-1.45v.924h1.23Zm2.331.666a.49.49,0,0,0-.122-.361,1.407,1.407,0,0,0-.444-.254,2.071,2.071,0,0,1-.846-.522,1.05,1.05,0,0,1-.258-.708.992.992,0,0,1,.35-.794,1.322,1.322,0,0,1,.89-.3,1.333,1.333,0,0,1,.642.152,1.053,1.053,0,0,1,.434.428,1.285,1.285,0,0,1,.152.628h-.787a.648.648,0,0,0-.117-.418.409.409,0,0,0-.337-.144.422.422,0,0,0-.322.122.459.459,0,0,0-.115.329.405.405,0,0,0,.129.291,1.482,1.482,0,0,0,.457.27,1.956,1.956,0,0,1,.831.508,1.131,1.131,0,0,1,.259.765,1.009,1.009,0,0,1-.325.8A1.286,1.286,0,0,1,63.3.054a1.522,1.522,0,0,1-.69-.156,1.168,1.168,0,0,1-.487-.446,1.3,1.3,0,0,1-.176-.685h.792a.747.747,0,0,0,.132.491.539.539,0,0,0,.43.153Q63.712-.588,63.712-1.026Zm3.851-2.226H66.6V0H65.8V-3.252h-.951V-3.91h2.71Zm2,2.452H68.484l-.209.8h-.835l1.222-3.91h.722L70.614,0h-.843Zm-.905-.658h.73l-.365-1.394ZM70.979,0V-3.91h1.034a1.423,1.423,0,0,1,1.092.435,1.7,1.7,0,0,1,.415,1.192v.634a1.711,1.711,0,0,1-.407,1.21A1.453,1.453,0,0,1,71.991,0Zm.79-3.252v2.6H72a.662.662,0,0,0,.556-.208,1.238,1.238,0,0,0,.169-.718v-.679a1.389,1.389,0,0,0-.153-.764.618.618,0,0,0-.521-.227ZM76.839-1.6a1.824,1.824,0,0,1-.372,1.222,1.286,1.286,0,0,1-1.033.435A1.3,1.3,0,0,1,74.4-.377a1.8,1.8,0,0,1-.381-1.207v-.669a1.922,1.922,0,0,1,.373-1.258,1.27,1.27,0,0,1,1.037-.453,1.276,1.276,0,0,1,1.029.444,1.9,1.9,0,0,1,.381,1.247Zm-.792-.655a1.606,1.606,0,0,0-.15-.787.5.5,0,0,0-.467-.258.505.505,0,0,0-.465.248,1.526,1.526,0,0,0-.156.756v.7a1.454,1.454,0,0,0,.153.756.519.519,0,0,0,.473.243.506.506,0,0,0,.459-.238,1.426,1.426,0,0,0,.153-.737ZM78.673,0V-3.91h1.034a1.423,1.423,0,0,1,1.092.435,1.7,1.7,0,0,1,.415,1.192v.634a1.711,1.711,0,0,1-.407,1.21A1.453,1.453,0,0,1,79.686,0Zm.79-3.252v2.6H79.7a.662.662,0,0,0,.556-.208,1.238,1.238,0,0,0,.169-.718v-.679a1.389,1.389,0,0,0-.153-.764.618.618,0,0,0-.521-.227ZM84.533-1.6a1.824,1.824,0,0,1-.372,1.222,1.286,1.286,0,0,1-1.033.435,1.3,1.3,0,0,1-1.034-.431,1.8,1.8,0,0,1-.381-1.207v-.669a1.922,1.922,0,0,1,.373-1.258,1.27,1.27,0,0,1,1.037-.453,1.276,1.276,0,0,1,1.029.444,1.9,1.9,0,0,1,.381,1.247Zm-.792-.655a1.606,1.606,0,0,0-.15-.787.5.5,0,0,0-.467-.258.505.505,0,0,0-.465.248A1.526,1.526,0,0,0,82.5-2.3v.7a1.454,1.454,0,0,0,.153.756.519.519,0,0,0,.473.243.506.506,0,0,0,.459-.238,1.426,1.426,0,0,0,.153-.737Zm3.416.884V0h-.79V-3.91H87.7a1.222,1.222,0,0,1,.925.36,1.294,1.294,0,0,1,.345.935,1.21,1.21,0,0,1-.341.908,1.3,1.3,0,0,1-.945.333Zm0-.658H87.7a.43.43,0,0,0,.349-.148.654.654,0,0,0,.124-.43.775.775,0,0,0-.126-.466.4.4,0,0,0-.338-.176h-.551ZM90.884-.8H89.807L89.6,0h-.835l1.222-3.91h.722L91.937,0h-.843Zm-.905-.658h.73l-.365-1.394Zm3.507.03h-.392V0H92.3V-3.91h1.26a1.279,1.279,0,0,1,.917.307,1.148,1.148,0,0,1,.324.874,1.137,1.137,0,0,1-.567,1.09l.685,1.6V0h-.849Zm-.392-.658h.448a.415.415,0,0,0,.354-.157.683.683,0,0,0,.118-.42q0-.588-.459-.588h-.462ZM97.214-.8H96.137l-.209.8h-.835l1.222-3.91h.722L98.267,0h-.843Zm-.905-.658h.73l-.365-1.394ZM101.366,0h-.79L99.422-2.565V0h-.79V-3.91h.79l1.157,2.567V-3.91h.787Zm2.549-.8h-1.077l-.209.8h-.835l1.222-3.91h.722L104.967,0h-.843Zm-.905-.658h.73l-.365-1.394Zm.526-3.5h.854l-.747.833h-.634Z" transform="translate(3.736 32.463)"/></g></svg>