<svg xmlns="http://www.w3.org/2000/svg" width="9.999" height="17.001" viewBox="0 0 9.999 17.001"><defs><style>.a{fill:#363f49;fill-rule:evenodd;}</style></defs><g transform="translate(-1208.001 -23.001)"><g transform="translate(1208.001 23.001)"><path class="a" d="M1342.371,3007.142l2.239,1.859a1.139,1.139,0,0,1,.17,1.529l-1.219,1.58a.942.942,0,0,1-1.169.3l-.161-.051c-1.88-1.019-4.02-3.619-5.57-7.049a22.711,22.711,0,0,1-1.33-3.83c-.04-.17-.11-.5-.17-.85-.09-.51-.16-2.12-.16-2.12l.029-1.95a1.06,1.06,0,0,1,1.051-1.06l1.94.03a1.046,1.046,0,0,1,1.009,1.1l-.039,2.99a1.052,1.052,0,0,1-1.05,1.06l-.37-.01.01.29a9.744,9.744,0,0,0,.85,3.48,8.918,8.918,0,0,0,2.3,3.13l.19-.26A1.007,1.007,0,0,1,1342.371,3007.142Z" transform="translate(-1335 -2995.5)"/></g></g></svg>